<?xml version="1.0" encoding="utf-8"?>
<!-- Generator: Adobe Illustrator 27.3.1, SVG Export Plug-In . SVG Version: 6.00 Build 0)  -->
<svg version="1.1" id="Isolation_Mode" xmlns="http://www.w3.org/2000/svg" xmlns:xlink="http://www.w3.org/1999/xlink" x="0px"
	 y="0px" viewBox="0 0 124.2 16.6" style="enable-background:new 0 0 124.2 16.6;" xml:space="preserve">
<style type="text/css">
	.st0{fill:#002D74;}
</style>
<g>
	<path class="st0" d="M116.4,0.7l1.4,4.2c0.1,0.4,0.5,0.7,0.9,0.7h4.4c1,0,1.4,1.2,0.6,1.8l-3.6,2.6c-0.3,0.3-0.5,0.7-0.4,1.1
		l1.4,4.2c0.3,0.9-0.7,1.7-1.5,1.1l-3.6-2.6c-0.3-0.3-0.8-0.3-1.2,0l-3.6,2.6c-0.8,0.6-1.8-0.2-1.5-1.1l1.4-4.2
		c0.1-0.4,0-0.9-0.4-1.1l-3.6-2.6c-0.8-0.6-0.4-1.8,0.6-1.8h4.4c0.4,0,0.8-0.3,0.9-0.7l1.4-4.2C114.8-0.2,116.1-0.2,116.4,0.7z"/>
	<path class="st0" d="M89.7,0.7l1.4,4.2c0.1,0.4,0.5,0.7,0.9,0.7h4.4c1,0,1.4,1.2,0.6,1.8L93.5,10c-0.3,0.3-0.5,0.7-0.4,1.1l1.4,4.2
		c0.3,0.9-0.7,1.7-1.5,1.1l-3.6-2.6c-0.3-0.3-0.8-0.3-1.2,0l-3.6,2.6c-0.8,0.6-1.8-0.2-1.5-1.1l1.4-4.2c0.1-0.4,0-0.9-0.4-1.1
		l-3.6-2.6c-0.8-0.6-0.4-1.8,0.6-1.8h4.4c0.4,0,0.8-0.3,0.9-0.7l1.4-4.2C88.1-0.2,89.4-0.2,89.7,0.7z"/>
	<path class="st0" d="M36.3,0.7l1.4,4.2c0.1,0.4,0.5,0.7,0.9,0.7h4.4c1,0,1.4,1.2,0.6,1.8L40.1,10c-0.3,0.3-0.5,0.7-0.4,1.1l1.4,4.2
		c0.3,0.9-0.7,1.7-1.5,1.1L36,13.8c-0.3-0.3-0.8-0.3-1.2,0l-3.6,2.6c-0.8,0.6-1.8-0.2-1.5-1.1l1.4-4.2c0.1-0.4,0-0.9-0.4-1.1
		l-3.6-2.6c-0.8-0.6-0.4-1.8,0.6-1.8h4.4c0.4,0,0.8-0.3,0.9-0.7l1.4-4.2C34.7-0.2,36-0.2,36.3,0.7z"/>
	<path class="st0" d="M9.6,0.7L11,4.9c0.1,0.4,0.5,0.7,0.9,0.7h4.4c1,0,1.4,1.2,0.6,1.8L13.4,10c-0.3,0.3-0.5,0.7-0.4,1.1l1.4,4.2
		c0.3,0.9-0.7,1.7-1.5,1.1l-3.6-2.6c-0.3-0.3-0.8-0.3-1.2,0l-3.6,2.6C3.7,17,2.7,16.2,3,15.3l1.4-4.2c0.1-0.4,0-0.9-0.4-1.1L0.4,7.4
		C-0.4,6.8,0,5.6,1,5.6h4.4c0.4,0,0.8-0.3,0.9-0.7l1.4-4.2C8-0.2,9.3-0.2,9.6,0.7z"/>
	<path class="st0" d="M63,0.7l1.4,4.2c0.1,0.4,0.5,0.7,0.9,0.7h4.4c1,0,1.4,1.2,0.6,1.8L66.8,10c-0.3,0.3-0.5,0.7-0.4,1.1l1.4,4.2
		c0.3,0.9-0.7,1.7-1.5,1.1l-3.6-2.6c-0.3-0.3-0.8-0.3-1.2,0l-3.6,2.6c-0.8,0.6-1.8-0.2-1.5-1.1l1.4-4.2c0.1-0.4,0-0.9-0.4-1.1
		l-3.6-2.6c-0.8-0.6-0.4-1.8,0.6-1.8h4.4c0.4,0,0.8-0.3,0.9-0.7l1.4-4.2C61.4-0.2,62.7-0.2,63,0.7z"/>
</g>
</svg>
