<?xml version="1.0" encoding="utf-8"?>
<!-- Generator: Adobe Illustrator 27.3.1, SVG Export Plug-In . SVG Version: 6.00 Build 0)  -->
<svg version="1.1" id="type" xmlns="http://www.w3.org/2000/svg" xmlns:xlink="http://www.w3.org/1999/xlink" x="0px" y="0px"
	 viewBox="0 0 78.3 77.1" style="enable-background:new 0 0 78.3 77.1;" xml:space="preserve">
<style type="text/css">
	.st0{fill-rule:evenodd;clip-rule:evenodd;fill:#C10230;}
	.st1{fill-rule:evenodd;clip-rule:evenodd;fill:#FFFFFF;}
	.st2{fill:#FFFFFF;}
	.st3{fill:#FBDEDC;}
	.st4{fill:#FFEAC9;}
	.st5{fill:#002D74;}
</style>
<g>
	<g>
		<g id="XMLID_00000119801631737929226390000012174166948621462420_">
			<g id="XMLID_00000044171382469198852940000015596107451733584261_">
				<path id="XMLID_00000096039996663865387540000018034350591484538261_" class="st0" d="M77.1,38.5c0,21.3-17.3,38.5-38.5,38.5
					C17.3,77.1,0,59.8,0,38.5C0,17.3,17.3,0,38.5,0C59.8,0,77.1,17.3,77.1,38.5"/>
				<path class="st0" d="M38.5,0.2C17.4,0.2,0.2,17.4,0.2,38.5c0,21.1,17.2,38.3,38.3,38.3s38.3-17.2,38.3-38.3
					C76.8,17.4,59.7,0.2,38.5,0.2z"/>
				<path id="XMLID_00000182494387070544019400000002707944505177016989_" class="st1" d="M60.4,38.5c0-12.1-9.8-21.9-21.9-21.9
					s-21.9,9.8-21.9,21.9c0,12.1,9.8,21.9,21.9,21.9S60.4,50.6,60.4,38.5"/>
				<path id="XMLID_00000138533882615357698110000008191530656784584884_" class="st2" d="M38.5,1.8C18.3,1.8,1.8,18.3,1.8,38.5
					c0,20.3,16.5,36.8,36.8,36.8c20.3,0,36.8-16.5,36.8-36.8C75.3,18.3,58.8,1.8,38.5,1.8z M38.5,74.2c-19.7,0-35.7-16-35.7-35.7
					c0-19.7,16-35.7,35.7-35.7c19.7,0,35.7,16,35.7,35.7C74.2,58.2,58.2,74.2,38.5,74.2z"/>
				<path id="XMLID_00000130609007267119875040000000731927042016263605_" class="st3" d="M46.4,41c-1.1-1.1-2.2-1.4-2.6-1.4
					c-0.4-0.1-1.7-0.2-2.2-0.1c-0.5,0.1-1.2,0.3-1.3,0.6c-0.1,0.3-0.2,0.6-0.5,1c-0.2,0.3-0.6,0.7-0.8,1.2c-0.5,0.7-0.6,1.5-0.7,2.5
					c-0.1,0.9-0.2,1.9-0.6,2.6l-0.2,0.3l-0.3-0.2c-0.3-0.2-0.4-0.4-0.6-0.7L36.2,46c-2.6-2.3-3.9-3.9-5.4-6.9l-0.6-1.3l0-0.2
					c0.7-0.9,1-2,1.1-3.1c0.1-0.2,0-0.5-0.1-0.7c-0.1-0.3-0.2-0.6-0.1-1c0,0,0-0.2,0-0.3c0-0.1-0.1-0.3-0.1-0.4
					c-0.1-0.1-0.5-0.7-1-1c-0.3-0.2-0.4-0.2-0.5-0.3l-0.3,0l-0.1-0.1c-0.3-0.4-0.6-0.7-0.9-0.5c-0.3,0.2-0.8,0.1-0.9-0.1
					c-0.1-0.1-0.3-0.2-0.5-0.2c-0.3,0-0.7,0.1-0.8,0.3c-0.4,0.5-0.7,0.6-1,0.7c-0.2,0-0.3,0.1-0.4,0.3l-0.1,0.2l-0.2,0
					c-0.4,0-0.6,0.3-0.7,0.5L23.5,32l-0.7,0.8c-0.2,0.3-0.7,1.1-0.6,2.4l0.1,0.1l0.7-0.3l1-0.5c0,0,0.6-0.2,0.9,0.2
					c0.2,0.4,0.3,0.5,0.8,0.9c0.3,0.2-1.7,1.7-1.7,1.7l-0.2,0.7c0.5,0.4,0.6,0.6,1.1,1l0.9,1l0,0c0.9,2.9,1.8,5.7,2.8,8.4
					c1.9,5.1,5.8,8.9,7.1,9c1.3,0.2,2.2-0.2,3.6-1.7c0,0,0.6-0.6,1.1-0.9c0.2-0.2,1.3-1,2.4-2c1-1,2.1-2.1,2.5-2.6
					c0.9-1.1,1.7-2.3,2.3-3.5c0,0,0.2-0.2,0.2-1.2c0-0.8-0.1-1.5-0.2-2C47.5,43.2,47.4,42.1,46.4,41z"/>
				<path id="XMLID_00000044173142862034461760000018299521249368697251_" class="st4" d="M46.4,41c-1.1-1.1-2.2-1.4-2.6-1.4
					c-0.4-0.1-1.7-0.2-2.2-0.1c-0.5,0.1-1.2,0.3-1.3,0.6c-0.1,0.3-0.2,0.6-0.5,1c-0.2,0.3-0.6,0.7-0.8,1.2c-0.5,0.7-0.6,1.5-0.7,2.5
					c-0.1,0.9-0.2,1.9-0.6,2.6l-0.2,0.3l-0.3-0.2c-0.3-0.2-0.4-0.4-0.6-0.7L36.2,46c-2.6-2.3-3.9-3.9-5.4-6.9l-0.6-1.3l0-0.2
					c0.7-0.9,1-2,1.1-3.1c0.1-0.2,0-0.5-0.1-0.7c-0.1-0.3-0.2-0.6-0.1-1c0,0,0-0.2,0-0.3c0-0.1-0.1-0.3-0.1-0.4
					c-0.1-0.1-0.5-0.7-1-1c-0.3-0.2-0.4-0.2-0.5-0.3l-0.3,0l-0.1-0.1c-0.3-0.4-0.6-0.7-0.9-0.5c-0.3,0.2-0.8,0.1-0.9-0.1
					c-0.1-0.1-0.3-0.2-0.5-0.2c-0.3,0-0.7,0.1-0.8,0.3c-0.4,0.5-0.7,0.6-1,0.7c-0.2,0-0.3,0.1-0.4,0.3l-0.1,0.2l-0.2,0
					c-0.4,0-0.6,0.3-0.7,0.5L23.5,32l-0.7,0.8c-0.2,0.3-0.7,1.1-0.6,2.4l0.1,0.1l0.7-0.3l1-0.5c0,0,0.6-0.2,0.9,0.2
					c0.2,0.4,0.3,0.5,0.8,0.9c0.3,0.2-1.7,1.7-1.7,1.7l-0.2,0.7c0.5,0.4,0.6,0.6,1.1,1l0.9,1l0,0c0.9,2.9,1.8,5.7,2.8,8.4
					c1.9,5.1,5.8,8.9,7.1,9c1.3,0.2,2.2-0.2,3.6-1.7c0,0,0.6-0.6,1.1-0.9c0.2-0.2,1.3-1,2.4-2c1-1,2.1-2.1,2.5-2.6
					c0.9-1.1,1.7-2.3,2.3-3.5c0,0,0.2-0.2,0.2-1.2c0-0.8-0.1-1.5-0.2-2C47.5,43.2,47.4,42.1,46.4,41z"/>
				<path id="XMLID_00000088854826199547450110000015234587183089338503_" class="st5" d="M33.7,47.9c-0.1,0.2-0.2,0.5-0.4,0.5
					c-0.3-0.1-0.1-0.5,0.1-0.7l-0.1,0.4L33.7,47.9z M34,48.5L33.8,49l-0.1,0.1L34,48.5z M54.2,42.8c0.3,0.7-1,0.7-0.3,1.3
					c-0.3,0.3-0.8,0.4-1.2,0.5c-0.5,0.6-1,1.1-1.8,0.9c-0.4,0.7-1.1,1.3-2,1.1c-0.1-0.1-0.3-0.2-0.4-0.1c-0.1,0.3-0.3,0.6-0.4,0.8
					c-1.9,3.5-5.1,6.5-8.2,8.7c-1.2,1.3-2.4,2.1-4,1.9c-1.5-0.1-5.5-4-7.4-9.2c0,0,0,0,0,0c-1-2.8-2-5.6-2.9-8.4
					c-0.2-0.3-0.5-0.7-0.8-1c-0.4-0.5-0.9-0.9-1.4-1.3c-0.6,0.2-1.1,0.9-1.7,0.4c-0.5-0.4-0.8-0.9-0.9-1.5c-0.3-1,0.8-1.3,1.4-1.8
					c-0.1-1.3,0.4-2.2,0.7-2.5c0.4-0.5,0.5-0.7,0.7-1c0.2-0.2,0.5-0.6,1-0.6c0.8-0.9,0.8-0.2,1.6-1.1c0.2-0.3,1.2-0.6,1.4-0.2
					c0.5,0.7,1.2-0.5,1.9,0.6c2.6-1.5,5-3.1,7.5-4.8c-0.5-1.1-1.1-2.3-1.1-3.5l4.8-3.2c1.2,0.3,2.1,1.5,3,2.4
					c0.6-0.8,1.3,0.1,1.7,0.6c0.3,0.5,0.5,1,0.7,1.5l-0.6,0.5c0.5,1.3,1.1,2.6,1.4,4.1c-1.4,1.3-3.2,2.1-4.7,3.3
					c-1.5-0.2-2.5-1.7-3.4-2.8l-0.5,0l-6.6,4.3c-0.3,0.5,0.3,0.9,0.1,1.5c-0.2,1.1-0.4,2.2-1.1,3.1c0.2,0.5,0.4,0.9,0.6,1.4
					c1.4,2.9,2.7,4.6,5.4,6.9c0.6,0.7,0.6,1.1,1.1,1.4c0.8-1.6,0.4-3.7,1.3-5.1c0.7-1.4,1.6-1.6,1.1-2.5c-0.4-0.3-0.5-0.8-0.4-1.3
					c0-0.1,0-0.2,0.1-0.2c0.5-1.4,2.5-2,2.6-3.7c0.3,0.1,0.4-0.3,0.7-0.3c-0.3,0.2-0.6,0.6-0.7,0.9l0.2,0c-0.1,0.2-0.2,0.4,0,0.5
					c0.8,0.2,1.5-0.1,2.3,0c1.3-0.1,2.1,1.2,3.3,1.2c0.3,0,0.4-0.2,0.7-0.4c0.2,0,0.4,0.2,0.5,0.4c0.1,0.1-0.6-0.4-0.4,0.1l-0.2,0
					c0.1,0.2,0.1,0.4,0.1,0.6c0.1,0.2,0.1,0.4,0.3,0.6c0.4,0,0.4,0.6,0.7,0.4c0.1,0.5,1,0.2,0.8,0.9c-0.2,0.1-0.5,0.1-0.7,0.2
					c-0.1-0.1-0.1-0.2-0.2-0.3c0.2,0.7,0.7,1.2,1,1.8c0.1-0.4-0.3-0.7-0.4-1.1l0.5,0.6l-0.1-0.5c0.4,0.8,0.9,0,1.2,0.7
					c0.1,0.2-0.2,0.2-0.2,0.3L51.4,41c-0.1,0,0,0.1-0.1,0.3l-0.3-0.4c-0.3,0.3-0.3,0.9-0.1,1.3l0,0l0.1-0.4c0.1,0.4,0.1,0.6,0.3,0.8
					c0.1-0.2,0-0.4,0.1-0.6c0.1,0.2,0.1,0.5,0.2,0.6c0.1,0,0.2-0.1,0.2-0.2l0-0.3l0.2,0l0-0.3l0.2,0c0.1-0.2-0.1-0.4-0.1-0.5
					l0.3-0.1c-0.5-0.4,0.3-0.6-0.1-1c0.5-0.2,0.3-0.9,0.2-1.4c-0.1-0.2-0.2-0.6-0.2-0.8c0.6,1.4,0.8,3.3,0.6,4.6l0.3-0.7
					c0.2,0.4-0.2,0.6,0.1,0.8l0.2-0.5l0.1,0.4c0.2-0.3,0.3-0.7,0.3-1.1c0.4,0.6-0.2,1.3,0,1.6L54.2,42.8z M44.3,21.9l0.1,0.3l0-0.1
					l0,0L44.3,21.9z M42.5,29.8l-0.8-1.2l-0.2,0l0,0l0.8,1.2L42.5,29.8z M43,29.9l-1.9-2.7L41,27.3l1.8,2.8l0.1-0.1L43,29.9z
					 M40.5,25.6c0.7,1.6,1.8,2.8,2.6,4.3l0.2-0.1L40.5,25.6z M35.4,46.4l0.1,0l0-0.4L35.4,46.4z M35.4,45.6l-0.4,0.9l0.2-0.2
					L35.4,45.6z M35.1,45.5l-0.4,0.7L35,46L35.1,45.5z M34.6,45.7l0.2,0c0.1-0.2,0.2-0.4,0.2-0.6C34.7,45.2,34.6,45.5,34.6,45.7z
					 M34.6,44.9l-0.2,0.4l0,0l0.2-0.2L34.6,44.9z M34.3,44.7l-0.3,0.5l0.1,0C34.3,45,34.5,44.8,34.3,44.7z M33.9,44.8l0.1,0
					c0.2-0.1,0.1-0.4,0.1-0.4L33.9,44.8z M33.6,44.3c0-0.1,0.1-0.1,0.1-0.2l-0.1,0L33.6,44.3z M33.1,43.9l0.1,0
					c0.1-0.1,0.1-0.1,0.1-0.3C33.1,43.5,33.1,43.7,33.1,43.9z M31.5,41.7l0.1,0c0-0.1,0.2-0.2,0-0.3L31.5,41.7z M31.4,40.9l-0.2,0.2
					l0.1,0C31.4,41,31.4,40.9,31.4,40.9z M31.1,40.8L31.1,40.8c0.1,0,0.1-0.1,0.1-0.2L31.1,40.8z M37.2,23.3l0.1,0.2l0.1-0.1
					L37.2,23.3L37.2,23.3L37.2,23.3z M30.4,31c0.7,0.5,1.1-0.5,1.7-0.7c0.4-0.4,1.3-0.6,1.7-1.2c1.8-1.1,3.8-2.2,5.6-3.6l0-0.1
					c0-0.2-0.2-0.2-0.4-0.2l-8.6,5.6L30.4,31z M27.9,33.1l0,0.3l-0.2-0.2c0,0.1,0,0.1-0.1,0.2c-0.1,0-0.1-0.1-0.2-0.1
					c0.1,0.2-0.2,0.2-0.2,0.3c0.1,0.3,0.3,0.7,0.8,0.5c0.4-0.2,0.4-0.6,0.2-0.9C28.1,33.2,28,33.2,27.9,33.1z M28.1,35.5
					c-0.5,0.1-1,0.3-1.4,0.7L28.1,35.5z M27.4,36.1l-0.2,0.2l0.3-0.2L27.4,36.1z M28.3,35.1C28.2,35.1,28.2,35.1,28.3,35.1
					c-0.1,0-0.1,0-0.2,0l-0.1,0c-0.1,0-0.1,0-0.1,0.1C28,35.3,28.1,35.2,28.3,35.1z M26,30.3c0.1,0.3,0.5,0.4,0.8,0.5
					c0.4,0.1,0.6,0.6,1,0.5c0-0.3-0.4-0.5-0.1-0.7c-0.1,0-0.2,0.1-0.3,0l0.3-0.3L27,30.4l0.2-0.3c-0.3-0.1-0.4,0.3-0.6,0.1l0.2-0.3
					C26.6,30,26.3,30.2,26,30.3z M24.8,31.3c0.9,0.3,2,0.8,2.4,1.8c0.2-0.3,0.6-0.4,0.9-0.4l-0.2-0.3c-0.2,0-0.3,0.3-0.5,0.1
					c0.1-0.2,0.3-0.1,0.4-0.3l-0.5,0c0.1-0.1,0.1-0.2,0.2-0.2l-0.4,0c0-0.1,0.1-0.1,0.2-0.2l-0.5,0c0.1-0.2,0.2-0.1,0.3-0.2
					c-0.2,0-0.4,0.1-0.5,0l0.3-0.2l-0.6,0c0-0.1,0.1-0.1,0.2-0.1l-0.6,0c0.1-0.1,0.1-0.1,0.2-0.1l-0.6,0l0.2-0.2
					C25.5,31,24.7,30.7,24.8,31.3z M24.5,32.4c0.8,0.2,1.3,1,1.5,1.7c0.1,0.4,0.3,0.5,0.5,0.4l0.1,0c0.1,0,0.2,0,0.3,0l0.1,0
					c0.1,0,0.1,0,0.1,0c0.2,0,0.1-0.3,0.2-0.4c-0.2-0.2-0.2-0.6-0.5-0.5c-0.1,0.2,0.1,0.2,0.1,0.4c-0.1,0-0.1-0.1-0.2,0l-0.1,0
					c-0.2,0-0.3,0.1-0.4,0.2l-0.1-0.1c0-0.4,0.4-0.7,0.7-0.8c0-0.2-0.1-0.2-0.2-0.2c-0.1,0-0.2,0-0.2,0c0-0.1,0.1-0.1,0.1-0.2
					l-0.4,0c0,0,0.1-0.1,0.2-0.1l-0.4,0l0,0c0-0.1,0.1-0.2,0.2-0.1c0,0,0,0-0.1,0c-0.1,0-0.3,0.1-0.3,0c0.1-0.1,0.2-0.1,0.2-0.2
					l-0.5,0l0.1-0.1l-0.4,0c0,0,0-0.1,0.1-0.1c0,0,0,0,0,0l-0.5,0c0,0,0.1-0.1,0.1-0.1l0.1,0c0,0,0,0,0,0c0,0,0,0,0,0l-0.4,0.1
					l0.2-0.3c-0.2,0-0.4,0.2-0.6,0.2c0,0-0.1,0-0.1,0c0,0,0.1-0.1,0.1-0.1l-0.2,0.2C23.5,32.4,24.2,32.2,24.5,32.4z M22.3,35l0.1,0
					c0.2-0.3,1-0.3,0.6-0.8c0.2,0,0.2-0.4,0.4-0.1l0-0.3c0.8,0.2,1.3,0.8,2.1,1c0.3,0,0.3-0.3,0.3-0.5c-0.2-0.7-0.6,0.3-0.9-0.1
					c0-0.2,0.1-0.5,0.1-0.8l-0.2,0l0-0.2l-0.4,0.1l0.1-0.3l-0.5,0.2l0.1-0.4c-0.2,0-0.4,0.3-0.6,0.1l0.1-0.1l-0.3,0.1l0-0.3
					l-0.4,0.3c-0.4,0.3-0.4,0.9-0.3,1.3c-0.1,0-0.2-0.2-0.3-0.2l0,0.6C22.3,34.5,22.5,34.9,22.3,35z M21.3,36.4
					c0.4,0.4,0.6,0.9,1,1.3c0-0.3-0.3-0.5-0.3-0.7l0.5,0.5l-0.2-0.4c-0.2-0.4-0.7-0.9-1.2-0.8c-0.1,0.1-0.4,0.4-0.1,0.6
					c0.8,0.1,0.8,1.1,1.4,1.5C22.1,37.6,21.6,37.1,21.3,36.4z M22.6,37.9c0-0.1-0.1-0.1-0.2-0.1c0.1,0.1,0,0.3,0.2,0.2L22.6,37.9z
					 M24.8,35l-0.1-0.2c-0.6,0.1-0.9,0.6-1.5,0.8c-0.5,0.2-0.7,0.9-1.3,0.5c0.1,0.3,0.5,0.5,0.7,0.7l0-0.4
					C23.3,35.9,24.2,35.6,24.8,35z M25.3,39.2l1-1.2c-0.4-0.2-0.1-0.7-0.6-0.7c0-0.3,0.2-0.7,0.3-0.8l-0.5,0.3
					c-0.6,0.3-1.2,1-1.3,1.5l0.6-0.7c0,0.3-0.4,0.5-0.4,0.9c0-0.1,0.1-0.2,0.2-0.1c0.2,0.1,0,0.2,0,0.2l0.3,0c0,0.1-0.1,0.2,0,0.3
					l0.2-0.2c0.1,0,0.1,0.1,0.1,0.2l0.2,0C25.4,39,25.3,39.1,25.3,39.2z M42.8,49.6l-0.6-0.3c0.1-0.2,0.3,0.1,0.5,0l-0.3-0.3
					l0.1-0.1c0.2,0,0.6,0.1,0.7,0.1l-0.8-0.4c0.3-0.1,0.7,0.2,1.1,0.2c-0.1-0.3-0.6-0.3-0.8-0.5c0.2-0.2,0.6,0.1,0.8,0l-0.7-0.4
					c0.4-0.1,0.8,0.4,1.1,0.2c-0.3-0.2-0.8-0.3-1-0.5c0.3,0,0.7,0.2,1,0.2l-0.6-0.5c0.2-0.1,0.5,0.1,0.8,0.1l-0.4-0.4
					c0.2-0.1,0.5,0,0.7,0.1l-0.8-0.6c0.2,0,0.6,0.2,0.7,0.1L44,46.2c0.2-0.2,0.5,0.3,0.6,0l-0.4-0.3c0.2-0.2,0.5,0.2,0.7,0l-0.3-0.3
					c0.3-0.3,0.5,0.2,0.7,0.1c-0.1-0.2-0.4-0.2-0.5-0.4l0.5,0c0-0.3-0.3-0.2-0.3-0.4l0.6,0c0-0.3-0.3-0.2-0.5-0.4
					c0.2-0.2,0.5,0.1,0.7,0.1c0-0.3-0.6-0.4-0.6-0.7c0.3,0.2,0.8,0,1,0.4l0.1-0.1c-0.2-0.3-0.9-0.5-0.9-0.9c0.3,0.1,0.5,0.5,0.9,0.4
					l-0.9-0.8l-0.1-0.1c0.1,0,0.2,0,0.2,0c0.3,0.1,0.6,0.4,1,0.5c-0.1-0.2-0.4-0.4-0.6-0.6l0,0c-0.2-0.1-0.3-0.2-0.4-0.4
					c0.3,0,0.5,0.3,0.7,0.4c0.1,0.1,0.2,0.1,0.4,0l-0.1-0.1l0,0c-0.4-0.4-1-0.5-1.2-0.9l0.8,0.3c-0.2-0.4-0.9-0.5-1-0.9l0.5,0.1
					c-0.5-0.3-1-0.5-1.5-0.7c0.3-0.2,0.7,0.2,1.1,0.2c-0.4-0.3-0.8-0.4-1.2-0.5l0.7,0l-0.1-0.1c-0.3-0.1-1-0.1-0.8-0.4l-1.9,0
					c-0.2,0.1-0.2,0.3-0.4,0.1l0,0.3c-0.2,0.1-0.2-0.2-0.4-0.2l0.1,0.3c-0.1,0.2-0.4-0.3-0.3,0l0.1,0.2c-0.1,0.1-0.2,0-0.3,0l0,0.4
					c-0.1,0-0.2-0.1-0.3-0.2l0.1,0.4l-0.4-0.2l0,0.1c0.2,0.2,0.1,0.3,0.3,0.5c-0.2,0.2-0.2-0.2-0.5-0.3c0,0.3,0.3,0.4,0.2,0.6
					l-0.3-0.2c0,0.2,0.3,0.3,0.2,0.5l-0.3-0.3c0,0.2,0.2,0.3,0.2,0.5L39.5,42c0,0.2,0.3,0.3,0.2,0.5c-0.1,0-0.2-0.2-0.3-0.1
					c0,0.1,0.2,0.2,0,0.4l-0.1-0.1c0.3,0.2,0.1,0.5,0,0.7l0,0.1l-0.1-0.1L38.9,43c0,0.2,0,0.3,0.1,0.4l0,0.1
					c0.1,0.2,0.2,0.3,0.2,0.5c-0.2,0-0.3-0.5-0.3-0.4c-0.3,0.3,0.2,0.7,0.1,1c-0.3,0-0.1-0.3-0.4-0.4c0.1,0.3,0.3,0.5,0.2,0.8
					l-0.2-0.2c0,0.2,0.3,0.3,0.1,0.5l-0.2-0.1l0.3,0.5c-0.4,0.2,0.2,0.5,0.1,0.7l-0.5-0.3l1.4,1.6c-0.1,0.1-0.2-0.1-0.3,0
					c-0.4,0.2,0,0.3,0,0.5c-0.2,0-0.4-0.1-0.5-0.3l0.5,0.7c-0.6-0.3-1.2-0.8-1.3-1.5l-0.1,0.1l0.1,0.1c0.1,0.3,0.5,0.7,0.1,1
					l-0.1-0.1c-0.1,0-0.1,0.1-0.2,0.1l-0.4-0.6c0,0.4,0.4,0.7,0.3,1c-0.2-0.2-0.3-0.4-0.4-0.7c0,0.3,0.2,0.6,0.2,0.9l-0.1-0.1l0,0.2
					c0.4,0.4-0.1,0.8,0.2,1.2c-0.1,0-0.2,0.1-0.2,0.2l0,0c0,0.1,0.1,0.3,0,0.4l0,0c0,0.5-0.5,0.9-0.5,1.4c-0.1-0.5,0.1-0.9,0.1-1.4
					c-0.1,0.4-0.1,0.8-0.3,1.2L36.7,52c0.1-0.3,0.1-0.7,0.2-1l-0.3,0.6c-0.1-0.3,0.2-0.7,0.1-1l-0.3,0.7c-0.2-0.2,0.2-0.5,0-0.7l0,0
					l0,0.1L36,51.1c0-0.2,0-0.3,0-0.5c0-0.2,0.1-0.4,0.1-0.5l-0.4,0.3c0-0.3,0.2-0.5,0.3-0.7c-0.4,0-0.3,0.7-0.6,0.7l0.3-0.9
					l-0.5,0.5c0,0-0.1-0.1-0.1-0.1l-0.3,0.4c-0.1,0-0.1-0.2-0.1-0.3c-0.1,0-0.3,0-0.4-0.1l0.3-0.6l0.1,0.1c0,0.1,0,0.2,0,0.3
					l0.2-0.3c0,0,0.1,0.1,0.1,0.1l0.3,0c0.1-0.2,0.4-0.4,0.2-0.7l-0.1,0.1c-0.1,0-0.1,0-0.1-0.1c0-0.1,0.1-0.2,0.1-0.4l-0.1,0.1
					c-0.1,0.1-0.2,0-0.3-0.1c0.3-0.3-0.2-0.4-0.1-0.7c-0.5,0.2-0.1-0.4-0.2-0.4l-0.1,0.1c-0.3-0.3-0.3-0.5-0.6-0.7
					c0-0.2-0.5-0.2-0.2-0.5l-0.3,0c0-0.2,0.2-0.3,0.1-0.5c-0.2,0.1-0.2,0.6-0.5,0.5c-0.1-0.4,0.5-0.6,0.4-0.9l-0.5,0.5
					c-0.8,0,0.4-0.7,0.1-1.2c-0.5,0-0.5-0.5-0.6-0.8l-0.1-0.2l-0.3,0.2l-0.6,0.5l0.3-0.5l0.2-0.3l-0.4,0.3l-0.2,0.2
					c0-0.1,0-0.1,0-0.2c0.1-0.3,0.5-0.5,0.5-0.7l-0.6,0.6l-0.1,0l0.5-0.8c-0.4,0-0.3,0.6-0.7,0.5c0-0.4,0.4-0.5,0.6-0.9
					c-0.2-0.9-0.6,0.4-0.9,0.2c0.1-0.3,0.4-0.4,0.6-0.7c0.3-0.7-0.7-0.9-0.5-1.4l-0.4,0.1c0-0.1,0.1-0.1,0.1-0.2l-0.2,0l0-0.1l0,0
					c0-0.1,0.1-0.2,0.2-0.3c-0.2,0-0.3,0.3-0.4,0.2c0-0.1,0.1-0.2,0.2-0.3L30,40.2l0.2-0.5c-0.1,0-0.2,0.3-0.3,0.1
					c0.1-0.1,0.3-0.2,0.2-0.4c-0.1,0-0.2,0.2-0.3,0c0.1-0.5-0.1-0.7-0.3-1l0.1-0.4l-0.4-0.2c0.1-0.4,0.9,0,1-0.4
					c-0.1,0-0.1,0-0.1-0.1l0.2-0.2l0.1-0.1c0,0,0,0-0.1,0c0,0,0,0-0.1,0c-0.3,0-0.6,0.1-0.7-0.1l0.1-0.1c0,0,0,0,0,0l0,0
					c0,0,0,0,0.1,0l0,0c0,0,0.1,0,0.1,0.1c0-0.2,0.5-0.2,0.3-0.5c0.2-0.1,0.6-0.1,0.7-0.4c-0.2,0.1-0.4,0.3-0.6,0.1
					c0.1-0.3,0.5-0.2,0.7-0.4l-0.5,0c0-0.1,0-0.1,0-0.1l-0.1,0c0-0.2,0.5-0.3,0.7-0.5c-0.7-0.1,0.3-0.2,0.2-0.5
					c-0.2,0-0.3,0.3-0.5,0.1l0.5-0.4c0,0,0,0,0,0c0,0-0.1,0-0.1,0l0,0c0,0-0.1,0-0.1-0.1l0.2-0.3l-0.2-0.2l0.1-0.1
					c-0.3-0.3-0.2-0.8-0.2-1.2l-0.3,0c0-0.1,0.1-0.2,0.2-0.3l-0.4,0c0-0.1,0.2-0.2,0.3-0.2c-0.4,0.2-0.6-0.2-0.9-0.3l0.2-0.2
					c0-0.1,0-0.1-0.1-0.2l-0.3,0.3l-0.1-0.2c-0.4,0-0.8-0.4-1-0.7l0.1-0.1c0.1,0,0.1,0.2,0.3,0.2c-0.1,0-0.3-0.3-0.5-0.3
					c0,0-0.1,0-0.1,0c-0.3,0.2-0.2,0.6-0.2,0.9c0.2,0.8,1.1,1.1,1.6,1.4c0.1,0.3-0.1,0.5,0.2,0.7c-0.1,0.1-0.1,0-0.2,0c0,0,0,0,0,0
					l0.2,0.2c-0.3,0-0.1,0.4-0.3,0.4c0,0-0.1,0-0.1,0c0.2,0.2-0.3,0.2,0,0.4l-0.2,0.2l0.1,0.1c-0.4,0.1,0.1,0.3-0.3,0.4l0.3,0.2
					c0,0,0,0.1-0.1,0.1l0,0c0,0-0.1,0-0.1,0c0,0,0,0,0,0c0,0.1,0,0.1,0.1,0.2c-0.4,0.2-0.9,0.3-1.1,0.8l0.1,0.2l-0.9,0.7l0.5-0.2
					l-0.5,0.6l0,0c0.1-0.1,0.3-0.3,0.5-0.3c0,0,0.1,0,0.1,0l-0.2,0.2L27,37.8c0.2-0.2,0.5-0.5,0.8-0.4l-0.5,0.5l0.5-0.2
					c0,0.3-0.3,0.3-0.4,0.5l0.4,0l-0.3,0.4c0.1,0.1,0.3,0,0.2,0.2l0.1,0c0.2,0.1-0.1,0.2-0.1,0.4l0.4-0.1c0.1,0.1-0.1,0.2-0.1,0.3
					l0.3,0l-0.3,0.5c0.1,0,0.1,0,0.2,0.1c-0.1,0.1-0.1,0.1-0.1,0.2c0.1,0,0.2-0.1,0.3,0c-0.1,0.1-0.3,0.2-0.2,0.4
					c0.1,0,0.1,0.1,0.1,0.2c-0.1,0.1-0.2,0.3-0.2,0.5c0.2,0,0.3-0.5,0.5-0.3c-0.2,0.2-0.2,0.4-0.4,0.5c0.2-0.1,0.3-0.4,0.5-0.2
					c-0.3,0.4-0.7,1-1.1,1.1l0-0.2c-0.6,0,0.3-0.4,0-0.7l-0.3,0.2c-0.2-0.1,0.1-0.2,0.1-0.4l-0.1,0c-0.1-0.1-0.1-0.2-0.1-0.3
					c-0.1,0-0.1-0.1-0.2-0.1c-0.2-0.3,0-0.7-0.2-0.9c-0.2-0.4-0.5-0.8-0.5-1.2l-0.3-0.1c0-0.1,0-0.1,0-0.2c-0.4,0.2-0.9,0.7-1,1.2
					l0.3-0.3c0.2,0.2-0.1,0.3-0.1,0.4l0.3-0.3c0.1,0.1-0.1,0.3-0.1,0.4l0.2-0.1c0,0.2-0.1,0.3-0.2,0.4c0.8-0.3-0.2,0.4,0.2,0.7
					l0.1,0l0,0.1c-0.1,0.3,0.2,0.4,0,0.7c0.1,0,0.2-0.1,0.3,0c-0.2,0.4,0.3,0.5,0.1,0.9l0.3,0l-0.2,0.4c0.1-0.1,0.1-0.2,0.2-0.2
					c0.1,0.2-0.1,0.3-0.1,0.5l0.3-0.3c0.2,0.1,0,0.2,0,0.2l0.2,0l-0.2,0.4l0.3-0.1c-0.2,0.2,0,0.4-0.1,0.7c0.3,0.2,0.1,0.4,0,0.6
					l0.3-0.3c0.1,0.2-0.1,0.4-0.2,0.7l0.3-0.3c0.1,0.2-0.2,0.5-0.2,0.8l0.4-0.2L28,46.2c0.3-0.2,0-0.4,0.3-0.6
					c0.2,0.4-0.3,0.7-0.2,1.1c0.1-0.2,0.1-0.5,0.3-0.5l-0.2,0.8c0.2-0.2,0.2-0.6,0.5-0.5l-0.2,0.8l0.3-0.3c0.1,0.3-0.2,0.6-0.2,0.9
					l0.3-0.4c0.1,0.3-0.2,0.5-0.1,0.8l0.3-0.4c0.1,0.2-0.2,0.5-0.1,0.8l0.3-0.2L29.1,49l0.3-0.4c0.1,0.4-0.2,0.5-0.2,0.9l0.3-0.5
					c0.1,0.4-0.1,0.6,0,1l0.3-0.6c0.2,0.4-0.1,0.6,0,1.1l0.4-0.8c0,0.4-0.1,0.6-0.2,1l0,0.1l0-0.1l0.4-0.7c0,0.3-0.1,0.6-0.1,1
					c0,0.2,0,0,0,0.2c0.1-0.1,0-0.1,0.1-0.2c0,0,0.1-0.1,0.1,0c0,0.2,0.1,0,0.2,0c0,0,0.1,0,0.1,0.1c0,0.3-0.1,0.6-0.1,0.9l0.2-0.3
					l0.1,0.1c0,0.2-0.1,0.5-0.1,0.8l0.3-0.6c0.1,0.3-0.1,0.7,0,0.9l0.2-0.3c0.2,0.2,0,0.3,0,0.6l0.2-0.3c0.2,0.2,0,0.5,0.1,0.7
					l0.2-0.4c0.1,0.1,0.1,0.3,0,0.5l0.2-0.3c0.3,0.2,0,0.4,0.1,0.7l0.1-0.2c0.4,0,0.3,0.5,0.4,0.8c0.1-0.2,0-0.5,0.2-0.6l0.1,0.8
					c0-0.2,0-0.3,0.2-0.4l0.1,1.1c0.2-0.2-0.1-0.5,0.1-0.7l0.2,0.7c0.1-0.1,0.1-0.3,0.2-0.4c0.2,0.3,0,0.5,0.1,0.8l0.3-0.5
					c0,0.1,0,0.4,0,0.6c0,0,0.1-0.1,0.1-0.1c0.2,0,0.1,0.5,0.3,0.3c-0.2,0.7,0.6,0.7,0.9,1.1l0.1-0.1l0.3,0.2l0.2-0.2
					c0.1,0.2,0.2,0.2,0.4,0.2c0.1,0,0.2,0,0.3,0l0.2,0c0.6-0.1,1.3-0.4,1.6-0.9c0.6-0.2,0.2-0.8,0.6-1.1c0,0,0,0,0,0
					c0.1,0,0.2,0.2,0.3,0c0.1-0.2-0.1-0.2-0.2-0.3c0.2-0.1,0-0.2,0-0.4l0.3-0.1l-0.1-0.2l0.4,0l-0.1-0.2c0.2-0.2,0.3-0.3,0.6-0.3
					c0,0,0.1,0,0.1,0L40,53.8c0.2,0,0.2-0.3,0.3-0.3c0,0,0.1,0,0.2,0.1l0-0.3c0.1-0.1,0.2-0.3,0.3-0.3c0,0,0.1,0,0.2,0.1
					c-0.3-0.3,0.2-0.4,0.2-0.6c0.1,0,0.2,0.1,0.3,0.1c0,0,0,0,0,0c-0.1-0.3-0.1-0.4-0.1-0.7l0.4-0.1c-0.1-0.1-0.2,0-0.3-0.2l0.3-0.2
					c-0.1,0-0.1-0.1-0.1-0.2l0.5,0L41.9,51c0,0,0-0.1,0.1-0.1c0,0,0,0,0,0l0-0.2c0,0,0,0,0.1,0c0.1,0,0.3,0.1,0.4,0.1
					c0,0,0.1,0,0.1-0.1l-0.5-0.3l0.4,0c0-0.1-0.1-0.2-0.2-0.2c-0.1,0-0.2-0.1-0.2-0.1c0.1-0.1,0.3,0,0.4,0l-0.3-0.4
					C42.4,49.5,42.7,49.7,42.8,49.6z M29.1,33.3c-0.1-0.2-0.2-0.4-0.3-0.7l0,0.6l-0.3-0.1l0,0.1C28.6,33.4,28.9,33.5,29.1,33.3z
					 M39,47l0.2,0.2l-0.4-0.4L39,47z M43.2,50l-0.1,0.2l0.2,0C43.4,50.1,43.3,50.1,43.2,50z M44.1,51.1c-0.2-0.2-0.5-0.4-0.8-0.3
					l0,0.4c0,0.2,0.2,0.2,0.4,0.2l0-0.2L44.1,51.1z M47,45.6c0.1-0.1,0.1-0.2,0.2-0.1c-0.1-0.1,0.2-0.5-0.1-0.6
					c0.1,0.5-0.8,0.3-0.7,0.9c-0.4-0.3,0,0.4-0.4,0.3c0,0.4-0.3,0.6-0.4,1c-0.1,0-0.1-0.1-0.2-0.1c0.1,0.2,0,0.5-0.1,0.8l-0.2,0
					C45,47.8,45,48.1,44.8,48l0.1,0.4c-0.2,0-0.3,0.1-0.5,0l0.1,0.2c-0.2,0.3-0.4,0.7-0.7,0.7l0.1,0.3c-0.4,0.3-0.2,1-0.7,1
					c0.3,0.1,0.5,0.2,0.8,0.2l-0.1-0.2l0.6,0L44,50.2c0.1-0.1,0.6,0.1,0.6,0l-0.2-0.2l0.7,0c-0.3-0.2-0.6-0.3-0.8-0.5
					c0.3-0.1,0.6,0.2,0.9,0.1l-0.6-0.4c0.3-0.1,0.6,0.3,1,0.1l-0.6-0.3c0.2-0.2,0.3,0.2,0.6,0l0-0.3l0.4,0l-0.4-0.3l0.4,0
					c-0.1,0-0.2-0.1-0.1-0.2l0.4,0L46,48c0.4-0.1,0.1-0.2,0.2-0.4l0.4,0.1l-0.2-0.4c0.3,0-0.1-0.2,0.1-0.3c0.1,0,0.3,0.2,0.4,0
					l-0.4-0.2l0.1-0.1l0.1,0.1c0.4,0.1,0.2-0.1,0.3-0.3l0.3,0C47.1,46.2,47.6,45.8,47,45.6z M48.1,42.2l-0.2,0l0,0.4l0.2,0
					L48.1,42.2z M50.2,43.4l-0.1,0l0,0.4l0.1,0L50.2,43.4z M50.8,42.7l-0.1-0.9l0,0.9L50.8,42.7z M51.5,44.5l-0.4,0.4l0.3,0
					L51.5,44.5z M52.4,43.8c-0.2,0-0.5,0.1-0.5,0.3C52.1,44,52.4,44,52.4,43.8z M52.8,40.8c0,0.5-0.3,1.1-0.1,1.6l0.1,0
					C52.8,41.9,53.1,41.4,52.8,40.8z M31.1,45l-0.2,0.2L31.1,45L31.1,45z M31.2,42.7l-0.3,0.4l0.2-0.1L31.2,42.7z M33.7,48.6
					l-0.2,0.2l0.3-0.7L33.7,48.6z M34.4,49.4l-0.2,0.2l0.3-0.6L34.4,49.4z M37.9,56.2l0.1,0.1L37.9,56.2L37.9,56.2z M30.7,42.2
					l0.1,0l-0.2,0.2L30.7,42.2z M38.1,56.1L38.1,56.1L38,55.9L38.1,56.1z M36.6,56.7l0.3,0.4l0,0.1L36.6,56.7z M36.9,56.6l0.3,0.3
					l0,0L36.9,56.6L36.9,56.6z M34.3,48.7l-0.2,0.4L34,49.3L34.3,48.7z M32.6,45.4l0.4-0.5l-0.1,0L32.6,45.4L32.6,45.4z M31,47.3
					c0-0.2,0.4-0.4,0.3-0.5C31.2,47,30.9,47.2,31,47.3z M32.7,44.6c-0.1,0.2-0.2,0.4-0.3,0.6C32.2,45.1,32.6,44.8,32.7,44.6z
					 M32,44.9l0.4-0.5l0,0L32,44.9L32,44.9z M31,46.6l-0.3,0.5l0.1,0L31,46.6L31,46.6z M30.4,47.1c-0.2-0.2,0.2-0.4,0.3-0.6
					C30.8,46.6,30.6,46.9,30.4,47.1z M30.2,46.8c-0.1-0.2,0.1-0.5,0.3-0.6C30.5,46.5,30.2,46.6,30.2,46.8z M32.4,48.1
					c0.2-0.2,0.4-0.5,0.5-0.7C32.7,47.6,32.4,48,32.4,48.1z M30.5,42.2l0.3-0.4l0,0L30.5,42.2L30.5,42.2z M32.9,48L32.9,48l0.1-0.3
					C33.2,47.7,32.9,47.8,32.9,48z M32.2,44.1l-0.4,0.6l0.2-0.2L32.2,44.1z M32.2,46.6c-0.1,0.3-0.4,0.6-0.5,0.8
					C31.8,47.2,32,46.8,32.2,46.6z M31.5,47.1l0.1-0.1l0.4-0.7L31.5,47.1z M32.2,47.4l0.2-0.5L32,47.7c0-0.1,0.1-0.1,0.2-0.1
					l0.1,0.2l0.4-0.6L32.2,47.4z M29,42.2c-0.2,0.4-0.4,0.7-0.7,1C28.3,42.8,28.8,42.5,29,42.2z M29.1,45c-0.2-0.2-0.2-0.4,0-0.6
					l0.1-0.1c-0.1-0.2-0.2,0.1-0.3,0.1c0.1-0.4,0.4-0.8,0.7-1.1l-0.3,0.6l0.4-0.2C29.9,44.1,29.3,44.5,29.1,45z M29.1,41.8l-0.4,0.1
					c0-0.2,0.2-0.3,0.3-0.5c-0.4,0.3-0.8,0.7-1,1l0.3,0l-0.1,0.4L29.1,41.8z M29.4,42.9c-0.2-0.1-0.1-0.3,0-0.4
					c-0.3,0.3-0.8,0.6-0.9,1.1l0.4-0.2L28.6,44C29,43.8,29.1,43.3,29.4,42.9z M30.3,41.9L30.3,41.9l0.2-0.4l0.1,0L30.3,41.9z
					 M30.2,46L30,46.5l0.2-0.2L30.2,46z M30.5,44.8l0.2-0.3l-0.1,0L30.5,44.8L30.5,44.8z M30.4,44.4l-1,1.3l0.1,0L30.4,44.4
					L30.4,44.4z M29.2,45.4c0.4-0.3,0.7-1,0.9-1.3L29.2,45.4z M30.2,45.7l-0.3,0.5l0.2-0.3L30.2,45.7z M30,45.3l-0.4,0.5l0.2-0.1
					L30,45.3z M39.8,23.1l0-0.1l-0.3-0.3L39.8,23.1L39.8,23.1z M37.2,21.6L37,21.8c0,0,0.1,0.2,0.2,0.2c0,0,0-0.1,0-0.1
					c0,0,0,0,0-0.1c0,0,0-0.1,0.1-0.1l0,0l0,0c0.1,0.1,0.3,0.3,0.3,0.5l0,0.1l0,0.1c0,0-0.2-0.1-0.3-0.2h0c0.2,0.6,0.6,1.1,1,1.6
					c0,0,0.2,0.3,0.4,0.5l0,0c0-0.3-0.2-0.5-0.4-0.7c-0.2-0.2-0.3-0.4-0.4-0.7l0-0.1l0.1,0c0.2,0.2,0.4,0.4,0.5,0.7
					c0.2,0.4,0.4,0.7,0.8,0.7l-0.2-0.3c-0.1-0.2-0.3-0.4-0.3-0.6l0-0.1l0.1,0.1c0.2,0.2,0.4,0.5,0.5,0.7c0.2,0.3,0.3,0.6,0.6,0.8
					l-0.2-0.3L39.6,24l0-0.1l0.1,0.1c0.6,0.8,1.2,1.7,1.8,2.7c0.6,1,1.3,2.1,2.1,3l0,0l0,0c0,0-0.1-0.3-0.1-0.3
					c-0.2-0.8-0.4-1.7-0.9-2.8c-0.5-0.4-0.8-0.9-1.2-1.4l-0.8-1.1c0,0,0-0.3,0-0.3l0-0.1l0.7,1c0.3,0.4,0.6,0.9,0.9,1.3l0,0
					c-0.3-0.9-0.9-1.6-1.4-2.4l-0.5-0.7c0,0-1.8-1.7-1.8-1.7C38,20.9,37.5,21.3,37.2,21.6z M38.3,22.3l-0.5-0.8l0.5,0.6L38.3,22.3
					L38.3,22.3z M39.2,22.7l0-0.1L39,22.4L39.2,22.7L39.2,22.7z M38.6,23.4l-0.2-0.3l0.2,0.2L38.6,23.4L38.6,23.4z M39.6,23.5
					l0.8,1.2C40.1,24.4,39.8,23.9,39.6,23.5z M40.5,24.2c0.2,0,0.2,0.2,0.3,0.4C40.6,24.7,40.6,24.4,40.5,24.2z M42.9,28l0-0.1
					L41,24.9l-0.1,0L42.9,28L42.9,28z M42.2,27.5l-0.6-1C41.8,26.8,42.3,27.1,42.2,27.5L42.2,27.5z M43.3,29l0-0.2l-0.9-1.2L43.3,29
					z M49.7,40c-0.2,0-0.4,0-0.5-0.1c-0.1-0.1-0.1-0.2-0.1-0.3c0-0.1,0-0.2,0-0.4c0-0.1,0-0.3,0-0.4c0-0.2-0.1-0.3-0.2-0.4
					c0,0-0.1,0.1-0.1,0.1l0,0l0,0l-0.2-0.1c-0.2-0.1-0.3-0.1-0.3-0.4l0,0c0,0,0,0,0,0c0,0.1-0.1,0.2-0.2,0.2l0,0l0,0l-0.1-0.6
					c0,0.1-0.2,0.3-0.2,0.3s-0.2-0.3-0.2-0.3c0,0,0,0.1,0,0.1s-0.3-0.3-0.3-0.4c0,0,0,0,0,0v0c0,0.1,0,0.1-0.1,0.1l0,0l0,0
					c-0.1-0.1-0.2-0.2-0.3-0.3c-0.1-0.1-0.3-0.1-0.3-0.3c0,0-0.1,0-0.1,0c-0.1,0-0.1,0-0.1,0.1c-0.2,0-0.4-0.2-0.6-0.3l-0.3-0.2
					c0,0,0,0,0,0c0.1,0.1,0.1,0.1,0.1,0.2c-0.3,0-0.6-0.2-0.8-0.4l-0.3-0.2l0.2,0c0,0,0.1,0,0.1,0l-0.3-0.1
					c-0.1-0.1-0.2-0.2-0.4-0.1c0,0-0.1,0-0.1,0c0,0,0,0,0,0c0,0,0,0.2,0,0.2l0,0l0,0l-0.2-0.1c0,0-0.2,0-0.2,0c0,0-0.1,0-0.2,0.1
					c0,0,0.3,0.1,0.3,0.1c0.2,0,0.3,0.1,0.3,0.2l0,0l-0.3,0c-0.3,0-0.6,0-0.7-0.2c-0.1,0.2-0.2,0.2-0.3,0.2l-0.1,0
					c-0.1,0-0.1,0-0.2,0.1c0,0-0.3,0-0.3,0c-0.7,0.2-1.3,0.7-1.7,1.5c0.1,0.1,0,0.3-0.1,0.4c-0.1,0.1-0.2,0.3-0.2,0.4
					c0.3,0.3,0.5,0.3,0.7,0.3l0.1,0c0,0,0.3,0,0.3,0l0.3,0c0,0,0.2,0,0.2,0c0.2,0,0.3,0,0.6,0.3c0-0.1,0-0.1,0.1-0.1
					c0,0,0.1-0.1,0.1-0.1c0,0,0.1-0.1,0.1-0.1c0,0,0.3-0.1,0.3-0.1l0.1,0c0.2,0,0.3,0.1,0.3,0.3c0,0,0.2-0.1,0.2-0.1
					c0.2,0,0.3,0.1,0.4,0.1c0,0,0.3,0.1,0.3,0.1c0,0,0.2-0.1,0.2-0.1c0,0,0.2,0,0.2,0l0.2,0c0.1,0,0.2-0.1,0.2-0.3l0,0l0,0
					c0.2,0.1,0.3,0.2,0.4,0.4c0.1,0.2,0.2,0.3,0.3,0.4c0.1-0.1,0.1-0.2,0.2-0.3c0,0,0.1-0.2,0.1-0.2l0,0.1c0,0,0.2,0.2,0.3,0.3
					c0.1,0.1,0.3,0.3,0.5,0.3c0,0,0,0,0,0c0,0.1,0,0.2,0,0.2c0,0.1,0.1,0.2,0.3,0.2c0.1,0.1,0.3,0.1,0.3,0.3c0,0,0,0,0,0v0
					c0,0,0.1-0.3,0.1-0.3l0,0l0,0c0.1,0.1,0.2,0.2,0.2,0.4c0,0,0.1-0.2,0.1-0.2l0.3,0.6c0,0,0.3,0.7,0.3,0.7c0,0,0,0,0,0
					c0,0,0-0.2,0-0.2c0,0,0-0.1,0-0.1l0-0.2l0,0.1l0.3,0.8c0,0,0,0.1,0,0.1c0.3,0.2,0.3,0.5,0.4,0.9l0,0.4c0,0.2,0,0.4,0.1,0.5
					c0.1-0.4,0.1-0.8,0-1.2c0-0.4,0-0.9,0.1-1.3l0-0.1l0,0.1l0.1,0.5l0,0.9l0,1c0,0,0.1,0.4,0.1,0.4c0,0,0,0,0,0
					c0.1-0.8,0-1.7,0-2.5c0,0,0-1.3,0-1.3s0.1,0.1,0.1,0.1v0c0,0,0-0.1,0-0.1c0-0.2,0-0.3,0.2-0.4c0,0,0.1,0.1,0.1,0.1c0,0,0,0,0,0
					c0-0.1,0.1-0.2,0.2-0.2c0.2,0.6,0.2,1.3,0.3,1.9c0,0,0.1,1,0.1,1c0,0,0,0,0,0c0-0.4,0-0.8,0-1.2C50.1,41.2,50,40.6,49.7,40z
					 M42.5,36.8c0.3-0.1,0.3-0.3,0.7-0.2C42.9,36.7,42.8,37.2,42.5,36.8z M42.9,36.4l0.5,0l0.1,0.1L42.9,36.4z M45.2,37.3
					c0.2-0.3-0.1-0.5-0.2-0.6c0.2,0,0.3,0.2,0.4,0.3l0.1,0.4C45.4,37.4,45.3,37.4,45.2,37.3z M47.8,40l0.1-0.4L48,40L47.8,40z
					 M48.5,39.7c-0.1,0.1,0,0.2,0,0.3l-0.2-0.2c0,0.1-0.1,0.1-0.2,0.1l0-0.2c0.2,0.2,0.6-0.5,0.7-0.1l0.1-0.5l0.1,1.1
					C48.8,40.2,48.7,39.8,48.5,39.7z"/>
				<g id="XMLID_00000115504031022417708620000006515548010314488459_">
					<path id="XMLID_00000088094572852157033700000006035246620632728962_" class="st2" d="M10.1,32.4c0,0,0.1-0.3,0.2-0.9
						c0.1-0.6-0.4-1.2-1.1-1.4c-0.8-0.2-1.4,0.1-1.5,0.7c-0.2,0.5-0.2,1.1-0.2,1.1L10.1,32.4 M11.5,32.8l3.4,0.7
						c-0.3,1.1-0.4,2.3-0.4,2.3l-8.9-1.5c0,0,0.2-1.8,0.8-4c0.6-2.4,2-3,3.6-2.6c1.2,0.3,1.7,1.2,1.7,2.3c0.5,0,1.4,0,2.4-0.2
						c1.5-0.3,2.3-0.6,2.3-0.6s-0.6,1.5-0.9,2.5c-0.4,0.3-1.5,0.4-3.7,0.7L11.5,32.8z"/>
					<path id="XMLID_00000109738381537285523900000014645812536201919121_" class="st2" d="M67.9,39.8c0,0,0,0.3,0,1
						c0,0.6,0.6,1.1,1.3,1.1c0.8,0,1.3-0.4,1.4-1c0.1-0.6,0.1-1.1,0.1-1.1L67.9,39.8 M66.4,39.8L63,39.8c0.1-1.1,0-2.3,0-2.3L72,37
						c0,0,0.1,1.8-0.1,4c-0.2,2.5-1.4,3.3-3,3.2c-1.2-0.1-1.8-0.8-2.1-1.8c-0.5,0.2-1.4,0.3-2.3,0.7c-1.4,0.6-2.1,1.1-2.1,1.1
						s0.3-1.6,0.4-2.5c0.3-0.4,1.4-0.7,3.5-1.4L66.4,39.8z"/>
					<path id="XMLID_00000064331472010570153450000006696776757826955686_" class="st2" d="M16.5,28.7l-8.2-4.1c0,0,0.9-2.1,1.8-3.4
						l5.9,1.9l-3.9-4.8c0,0,1.1-1.4,2.2-2.7l7,6.1c-0.8,0.8-1.4,1.6-1.4,1.6l-5-3.8l0,0.1l4,4.7c-0.6,0.8-1,1.6-1,1.6L12,24l0,0
						l5.4,3C17,27.7,16.5,28.7,16.5,28.7z"/>
					<path id="XMLID_00000008127497138659293310000003271058085242626225_" class="st2" d="M49.1,16.6l4.2-8.3c0,0,2.2,1,3.4,1.9
						l-1.9,6l4.8-3.9c0,0,1.4,1.1,2.6,2.3l-6.1,7c-0.8-0.8-1.6-1.5-1.6-1.5l3.8-5l-0.1,0l-4.7,4C52.7,18.4,52,18,52,18l1.9-6l0,0
						l-3.1,5.4C50.1,17.1,49.1,16.6,49.1,16.6z"/>
					<path id="XMLID_00000039093146832772123550000003426757896678312115_" class="st2" d="M56.9,22.5l7-6c0,0,1.6,1.8,2.3,3l-4,4.7
						l5.8-1.7c0,0,0.8,1.6,1.5,3.1l-8.2,4c-0.4-1.1-0.9-2-0.9-2l5.4-3.1l0,0L60,26.5c-0.5-0.9-1-1.6-1-1.6l4-4.7l0,0L58,23.9
						C57.6,23.3,56.9,22.5,56.9,22.5z"/>
					<path id="XMLID_00000082331769753479775340000015482403960422901890_" class="st2" d="M28.2,14.7c0.2-0.8,0.1-2.5-0.7-4
						L26,11.6c0.8,1.2,0.7,2.3,0.6,2.6l-2.5-0.9c0.7-1.3,1.1-2,0.5-3c-0.7-1.3-2.2-1.3-3.6-0.4c-1.1,0.7-1.9,2.4-0.9,3.8
						c0.2,0.3,0.8,0.6,1.4,0.7c-0.6,1-1,2.5-0.3,3.6c0.9,1.5,2.9,1.5,4.1,0.8c0.9-0.5,1.9-1.4,2.1-2.1l0.7,0.2c0,0,1.6-0.8,2.8-1.2
						L28.2,14.7z M21.7,12.1c-0.3-0.4-0.1-0.9,0.3-1.1c0.2-0.1,0.6-0.2,0.8,0c0.6,0.5,0.3,1,0,1.5C22.3,12.6,21.9,12.5,21.7,12.1z
						 M25.8,16.5c-0.1,0.2-0.5,0.5-0.7,0.6c-0.7,0.3-1.7,0-2-0.6c-0.3-0.4-0.4-1.2-0.1-1.6l2.8,1C26,16.1,26,16.2,25.8,16.5z"/>
					<path id="XMLID_00000161610687284942493460000003478910703436202152_" class="st2" d="M14.6,42.9l-2.1-0.4
						c-0.1-0.9-0.2-2-0.2-2.8l2-0.6c0,0,0-1.5,0.1-2.7l-9.2,2.9c0,0,0,1.7,0.3,3.7l9.5,2C15,44.9,14.7,43.9,14.6,42.9z M7,41.3
						l3.7-1.2c0,0.7,0.1,1.4,0.2,2L7,41.3L7,41.3z"/>
					<path id="XMLID_00000103242868221687805130000012524216535694931122_" class="st2" d="M45.5,5.7l-4.9,8.7c0,0,1,0,2.1,0.2
						l1.1-1.9c0.9,0.2,2,0.4,2.8,0.7l0,2.1c0,0,1.4,0.4,2.5,1l0.1-10C49.1,6.6,47.5,6.1,45.5,5.7z M44.6,11.2l2-3.5l0.1,0l-0.1,4
						C45.9,11.5,45.1,11.3,44.6,11.2z"/>
					<path id="XMLID_00000090981021183287980000000007820791897205834660_" class="st2" d="M40.3,5c0,0-1.3-0.1-2.8,0l0.3,3.7
						c-0.6,0-1.8,0.1-3,0.3l-0.4-3.6c0,0-1.3,0.1-2.8,0.5L33,15c0,0,1.2-0.3,2.3-0.4l-0.4-3.8c0.6-0.1,1.7-0.2,3-0.3l0.3,3.8
						c0,0,1.3,0,2.3,0L40.3,5z"/>
					<path id="XMLID_00000085966197749841675440000002767054266943468959_" class="st2" d="M70.4,28.1l-8.6,2.8
						c0.9,2.8,1.2,5.5,1.2,5.5l1.5-0.2c-0.1-1.2-0.6-3.5-0.6-3.5l2.1-0.6c0.3,1.6,0.5,3.2,0.5,3.2l1.6-0.2c-0.2-1.4-0.4-2.8-0.6-3.4
						l2-0.5c0,0,0.5,2,0.7,4.3l1.6-0.1C71.5,31.3,70.4,28.1,70.4,28.1z"/>
				</g>
				<g id="XMLID_00000039115150909137316480000011708381871212978077_">
					<path id="XMLID_00000018947202268017128810000013017240070958295944_" class="st2" d="M16.3,54.8l0.6-0.4l-1.5-2.2l-0.6,0.4
						c0,0,0.4,0.6,0.5,0.7c-0.1,0.1-2.6,1.7-2.6,1.7l0.5,0.8c0,0,2.5-1.7,2.6-1.7C15.9,54.2,16.3,54.8,16.3,54.8z"/>
					<path id="XMLID_00000071547386902994577940000004179192452855913913_" class="st2" d="M18.1,55.8c0,0-1.1,0.9-1.2,1
						c-0.1-0.1-0.4-0.5-0.5-0.6c0.1-0.1,1.2-1,1.2-1L17,54.5L14,57l0.6,0.7c0,0,1.2-1,1.3-1.1c0.1,0.1,0.4,0.5,0.5,0.6
						c-0.1,0.1-1.3,1.1-1.3,1.1l0.6,0.7l3-2.5L18.1,55.8z"/>
					<path id="XMLID_00000076605646707305958170000016112951096684658606_" class="st2" d="M19.1,58c0.1,0.1,0.9,0.9,0.9,0.9
						l0.5-0.5L19,56.9l-2.7,2.8l1.6,1.6l0.5-0.5c0,0-0.9-0.8-0.9-0.9c0.1-0.1,0.6-0.6,0.7-0.7c0.1,0.1,0.8,0.8,0.8,0.8l0.5-0.5
						c0,0-0.8-0.7-0.8-0.8C18.6,58.5,19.1,58.1,19.1,58z"/>
					<path id="XMLID_00000124134062838831275990000011621801565338373511_" class="st2" d="M21.8,60.6c0.1-0.1,0.1-0.1,0.2-0.2
						c0.1,0,0.2,0,0.3,0.1c0.2,0.1,0.2,0.3-0.1,0.6l0,0l0.7,0.5l0,0c0.3-0.3,0.4-0.6,0.3-0.9c0-0.3-0.2-0.5-0.6-0.8
						c-0.7-0.5-1.3-0.5-1.7,0.1c-0.4,0.5-0.1,1.1,0,1.6c0.2,0.4,0.3,0.7,0.1,0.9c-0.1,0.1-0.2,0.2-0.2,0.2c-0.1,0-0.2,0-0.2-0.1
						c-0.1-0.1-0.2-0.2-0.2-0.2c0-0.1,0.1-0.3,0.2-0.5l0,0L20,61.4l0,0c-0.3,0.3-0.4,0.6-0.4,0.9c0,0.3,0.2,0.6,0.6,0.8
						c0.5,0.4,1.2,0.7,1.8-0.1c0.4-0.6,0.2-1.1,0-1.6C21.7,61.1,21.6,60.8,21.8,60.6z"/>
					<path id="XMLID_00000067933039403782947030000005708396436877789877_" class="st2" d="M25.5,62.8l0.4-0.6l-2.3-1.4l-0.4,0.6
						c0,0,0.7,0.4,0.8,0.5c-0.1,0.1-1.6,2.7-1.6,2.7l0.8,0.5c0,0,1.6-2.6,1.6-2.7C24.9,62.4,25.5,62.8,25.5,62.8z"/>
					<path id="XMLID_00000052062614327562851350000005966466491563023237_" class="st2" d="M26.5,62.4l-2.7,3l0.8,0.4
						c0,0,0.5-0.6,0.6-0.7c0.1,0,0.8,0.4,0.9,0.4c0,0.1-0.2,0.8-0.2,0.8l0.9,0.4l0.7-4L26.5,62.4z M26.5,63.6
						c-0.1,0.3-0.3,1.2-0.3,1.3c-0.1,0-0.4-0.2-0.5-0.3C25.7,64.6,26.3,63.9,26.5,63.6z"/>
					<path id="XMLID_00000074437358585751663100000003498624822807528341_" class="st2" d="M30.5,64.1c0,0-0.6,1.8-0.8,2.3
						c0-0.5-0.1-2.5-0.1-2.5l-1.1-0.4l-1.3,3.7l0.8,0.3c0,0,0.7-1.9,0.8-2.4c0,0.5,0.1,2.7,0.1,2.7L30,68l1.3-3.7L30.5,64.1z"/>
					<path id="XMLID_00000013169881559207847810000009589637762894312375_" class="st2" d="M33,64.7l-1.3-0.3l-0.8,3.8l1.3,0.3
						c0.4,0.1,0.7,0,1-0.1c0.5-0.3,0.6-1,0.7-1.4l0-0.1C34.1,65.7,34,64.9,33,64.7z M32.7,65.4c0.3,0.1,0.3,0.2,0.3,0.5
						c0,0.2-0.1,0.5-0.1,0.8c-0.1,0.6-0.2,0.9-0.4,1.1c-0.1,0.1-0.2,0.1-0.3,0c0,0-0.2,0-0.3-0.1c0-0.1,0.5-2.3,0.5-2.4
						C32.5,65.3,32.7,65.4,32.7,65.4z"/>
					<path id="XMLID_00000073711197351429603380000014524797196819000494_" class="st2" d="M35.4,65.1l-1.5,3.8l0.9,0.1
						c0,0,0.3-0.7,0.3-0.8c0.1,0,0.9,0.1,1,0.1c0,0.1,0.1,0.9,0.1,0.9l1,0.1l-0.7-4L35.4,65.1z M36,67.5c-0.1,0-0.5,0-0.6-0.1
						c0-0.1,0.3-1,0.4-1.3C35.8,66.5,35.9,67.4,36,67.5z"/>
					<path id="XMLID_00000072997529741388203490000017410142393959692715_" class="st2" d="M40.1,68c0-0.5-0.3-0.7-0.5-0.8
						c0.3-0.1,0.5-0.4,0.5-0.9c0,0,0,0,0,0c0-0.3-0.1-0.6-0.3-0.8c-0.2-0.2-0.4-0.2-0.7-0.2l-1.5,0l0.1,3.9l0.9,0c0,0,0-1.5,0-1.6
						c0.1,0,0.1,0,0.1,0c0.2,0,0.3,0,0.4,0.1c0.1,0.1,0.1,0.3,0.1,0.6l0,0.2c0,0.2,0,0.4,0.1,0.7l0,0l0.9,0l0-0.1
						C40.1,69,40.1,68.4,40.1,68z M39.1,66.4C39.1,66.4,39.1,66.4,39.1,66.4c0,0.1,0,0.5-0.3,0.5c0,0-0.2,0-0.3,0c0-0.1,0-0.8,0-0.9
						c0.1,0,0.3,0,0.3,0c0.1,0,0.2,0,0.2,0.1C39.1,66.1,39.1,66.3,39.1,66.4z"/>
					<path id="XMLID_00000009552303318941774420000001852860420394064816_" class="st2" d="M43.3,66.9c-0.1-0.6-0.2-1.3-0.6-1.6
						c-0.2-0.2-0.5-0.2-0.9-0.2l-1.4,0.2l0.5,3.9l1.3-0.2c0.4,0,0.7-0.2,0.9-0.4c0.4-0.5,0.3-1.2,0.2-1.6L43.3,66.9z M41.7,68.3
						c0-0.1-0.3-2.4-0.3-2.5c0.1,0,0.3,0,0.3,0c0.1,0,0.2,0,0.3,0.1c0.2,0.2,0.3,0.6,0.3,1.1c0,0.3,0,0.5,0,0.6c0,0.2,0,0.4-0.1,0.5
						c-0.1,0.1-0.2,0.1-0.3,0.1C42,68.3,41.8,68.3,41.7,68.3z"/>
					<path id="XMLID_00000170968579986045745210000007025208235517615516_" class="st2" d="M45.8,64.3c-1.3,0.4-1,1.3-0.8,2.3l0,0
						c0.3,1,0.5,1.9,1.9,1.6c1.3-0.4,1-1.3,0.8-2.3C47.3,64.9,47.1,63.9,45.8,64.3z M46.6,67.5c-0.1,0-0.2,0-0.3,0
						c-0.2-0.1-0.3-0.5-0.5-1.1c-0.2-0.7-0.3-1-0.1-1.2c0-0.1,0.1-0.1,0.2-0.2c0.1,0,0.2,0,0.3,0c0.2,0.1,0.3,0.5,0.5,1.1
						C47,67,47,67.4,46.6,67.5z"/>
					<path id="XMLID_00000058563403056244163190000014273505800282753960_" class="st2" d="M49.9,64.5c0,0-0.9,0.4-1,0.4
						c0-0.1-0.3-0.7-0.3-0.8c0.1,0,1.1-0.4,1.1-0.4l-0.3-0.7l-1.9,0.8l1.4,3.6l0.8-0.3c0,0-0.6-1.4-0.6-1.5c0.1,0,1-0.4,1-0.4
						L49.9,64.5z"/>
					<path id="XMLID_00000114778805169139397290000006144932379626592447_" class="st2" d="M53.6,63c0-0.2-0.1-0.4-0.2-0.7
						c-0.2-0.4-0.4-0.6-0.7-0.7c-0.2-0.1-0.5,0-0.8,0.1l-1.3,0.7l1.9,3.4l0.8-0.4c0,0-0.7-1.2-0.7-1.3c0.1,0,0.5-0.3,0.5-0.3
						C53.4,63.7,53.6,63.4,53.6,63z M52.6,62.8c0,0.1,0.1,0.2,0.1,0.3c0,0.1,0,0.2-0.1,0.3c0,0-0.3,0.1-0.3,0.2
						c0-0.1-0.4-0.7-0.5-0.8c0.1,0,0.3-0.2,0.3-0.2C52.2,62.4,52.4,62.5,52.6,62.8z"/>
					<path id="XMLID_00000039839178998159523320000002670603268367800242_" class="st2" d="M55.1,59.6l-0.7,0.5l1.5,2.2
						c0.1,0.2,0.2,0.3,0.2,0.5c0,0.1-0.1,0.2-0.2,0.3c-0.1,0.1-0.2,0.1-0.3,0.1c-0.1,0-0.3-0.1-0.4-0.3l-1.5-2.2l-0.7,0.5l1.6,2.2
						c0.4,0.6,1.1,0.7,1.8,0.2c1-0.7,0.6-1.5,0.4-1.8L55.1,59.6z"/>
					<path id="XMLID_00000165228333027895630800000003390325544818902954_" class="st2" d="M59,59.8c-0.3-0.4-0.7-0.3-0.9-0.2
						c0.1-0.1,0.1-0.2,0.1-0.4c0-0.2-0.1-0.5-0.3-0.7c-0.4-0.5-1-0.6-1.4-0.2l-1.1,1l2.6,2.9l0.7-0.6c0,0-1-1.1-1-1.2
						c0,0,0.1-0.1,0.1-0.1c0.1-0.1,0.3-0.2,0.4-0.2c0.2,0,0.3,0.2,0.5,0.4l0.1,0.1c0.1,0.2,0.3,0.3,0.5,0.4l0,0l0.7-0.6l-0.1,0
						C59.7,60.6,59.3,60.1,59,59.8z M57.5,59.6c0,0.1,0,0.2-0.1,0.2c0,0-0.1,0.1-0.2,0.2c-0.1-0.1-0.5-0.6-0.6-0.7
						c0.1-0.1,0.2-0.2,0.2-0.2c0.1-0.1,0.3-0.2,0.5,0.1C57.4,59.3,57.5,59.5,57.5,59.6z"/>
					
						<rect id="XMLID_00000092433519084426758570000011870704956442233253_" x="58.8" y="56.6" transform="matrix(0.6965 -0.7176 0.7176 0.6965 -23.993 60.2831)" class="st2" width="0.9" height="3.9"/>
					<path id="XMLID_00000094593526813620133220000006855161132110856374_" class="st2" d="M63.1,54.6c0,0-1.4-2.2-1.4-2.2l0-0.1
						l-0.5,0.8c0,0,0.8,1.1,0.9,1.3c-0.3-0.1-1.5-0.4-1.5-0.4l-0.5,0.7l-1.7,2l0.6,0.5c0,0,0.5-0.6,0.6-0.7c0.1,0.1,2.4,2,2.4,2
						l0.6-0.7c0,0-2.3-1.9-2.4-2c0.1-0.1,0.6-0.7,0.6-0.7l-0.3-0.2c0.7,0.2,2.3,0.5,2.3,0.5c0,0,1.1,0.8,1.1,0.8l0.5-0.8L63.1,54.6z
						"/>
				</g>
			</g>
			<g id="XMLID_00000034792724939540715230000003233183956693659067_">
				<path id="XMLID_00000111902509158456721250000009256325184670845840_" class="st5" d="M48.7,50.6h-0.5v-0.3h1.4v0.3h-0.5v1.7
					h-0.3V50.6z"/>
				<path id="XMLID_00000121249132995656801090000007976038373942207880_" class="st5" d="M49.8,50.3h0.5l0.4,1.4h0l0.4-1.4h0.5v1.9
					h-0.3v-1.6h0l-0.4,1.6h-0.3l-0.4-1.6h0v1.6h-0.3V50.3z"/>
			</g>
			<g id="XMLID_00000050652638888267765340000007934236293312154275_">
				<path id="XMLID_00000026880579547122683450000007064743053494108046_" class="st5" d="M75.5,56.1h-0.5v-0.3h1.4v0.3h-0.5v1.7
					h-0.3V56.1z"/>
				<path id="XMLID_00000040556853862873737960000003796121750215292095_" class="st5" d="M76.5,55.9H77l0.4,1.4h0l0.4-1.4h0.5v1.9
					H78v-1.6h0l-0.4,1.6h-0.3l-0.4-1.6h0v1.6h-0.3V55.9z"/>
			</g>
		</g>
	</g>
</g>
</svg>
