<?xml version="1.0" encoding="utf-8"?>
<!-- Generator: Adobe Illustrator 27.3.1, SVG Export Plug-In . SVG Version: 6.00 Build 0)  -->
<svg version="1.1" id="background_art" xmlns="http://www.w3.org/2000/svg" xmlns:xlink="http://www.w3.org/1999/xlink" x="0px"
	 y="0px" viewBox="0 0 143.4 103.2" style="enable-background:new 0 0 143.4 103.2;" xml:space="preserve">
<style type="text/css">
	.st0{fill:#F1F2F7;stroke:#002D74;stroke-width:0.9442;stroke-miterlimit:10;}
	.st1{fill:none;stroke:#002D74;stroke-width:1.4162;stroke-miterlimit:10;}
	.st2{fill:#B4B8D3;stroke:#002D74;stroke-width:1.8883;stroke-miterlimit:10;}
	.st3{fill:#002D74;stroke:#002D74;stroke-width:1.8883;stroke-miterlimit:10;}
	.st4{clip-path:url(#SVGID_00000180336739117496289150000016315500289638052533_);}
	.st5{fill:#FFFFFF;}
	.st6{fill:#B4B8D3;}
	.st7{fill:#D9DBE9;stroke:#002D74;stroke-width:1.4162;stroke-linecap:round;stroke-miterlimit:10;}
	.st8{clip-path:url(#SVGID_00000101800943675827242360000017285187573874308024_);fill:none;}
	.st9{clip-path:url(#SVGID_00000101800943675827242360000017285187573874308024_);}
	.st10{fill:#7BAFD9;}
	.st11{fill:#B5D8E9;}
	.st12{fill:#3988C4;}
	.st13{fill:#002D74;}
	.st14{clip-path:url(#SVGID_00000101800943675827242360000017285187573874308024_);fill:#93C5D8;}
	.st15{fill:#7BAFD9;stroke:#002D74;stroke-width:0.9442;stroke-linecap:round;stroke-linejoin:round;stroke-miterlimit:10;}
</style>
<g>
	<path class="st0" d="M22.1,102.5V17.4c0-0.9,0.7-1.6,1.6-1.6h95.9c0.9,0,1.6,0.7,1.6,1.6v85.1"/>
	<g>
		<path class="st1" d="M137.8,102.5V15.6c0-5.5-4.5-10-10-10H15.6c-5.5,0-10,4.5-10,10v86.9H137.8z"/>
	</g>
	<circle class="st2" cx="71.7" cy="53.7" r="40.7"/>
	<circle class="st3" cx="71.7" cy="53.7" r="36.8"/>
	<path class="st1" d="M123.5,102.5H19.8V17.4c0-2.1,1.7-3.9,3.9-3.9h95.9c2.1,0,3.9,1.7,3.9,3.9V102.5z"/>
	<g>
		<defs>
			<rect id="SVGID_1_" x="0" y="0" width="143.4" height="18.3"/>
		</defs>
		<clipPath id="SVGID_00000071546513306872559630000010591584468412891777_">
			<use xlink:href="#SVGID_1_"  style="overflow:visible;"/>
		</clipPath>
		<g style="clip-path:url(#SVGID_00000071546513306872559630000010591584468412891777_);">
			<path class="st5" d="M13.5-16.3l8.1,28.9c0.5,1.6,2,2.8,3.7,2.8h92.9c1.7,0,3.2-1.1,3.7-2.8l8.1-28.9H65H13.5z"/>
			<path class="st1" d="M13.5-16.3l8.1,28.9c0.5,1.6,2,2.8,3.7,2.8h92.9c1.7,0,3.2-1.1,3.7-2.8l8.1-28.9H65H13.5z"/>
			<path class="st6" d="M25.2,12c-0.2,0-0.4-0.1-0.4-0.3L17.9-13h107.6l-6.9,24.6c-0.1,0.2-0.2,0.3-0.4,0.3h-5.7H28.6H25.2z"/>
			<path class="st7" d="M30.1,12h-4.9c-0.2,0-0.4-0.1-0.4-0.3L17.9-13h107.6l-6.9,24.6c-0.1,0.2-0.2,0.3-0.4,0.3h-5.7"/>
		</g>
	</g>
	<g>
		<path class="st1" d="M28.3,81.1v9c0,3.7,3,6.8,6.8,6.8h9c1.7,0,2.5-2.1,1.3-3.3L31.5,79.8C30.3,78.6,28.3,79.4,28.3,81.1z"/>
	</g>
	<g>
		<path class="st1" d="M115.7,81.1v9c0,3.7-3,6.8-6.8,6.8h-9c-1.7,0-2.5-2.1-1.3-3.3l13.9-13.9C113.6,78.6,115.7,79.4,115.7,81.1z"
			/>
	</g>
	<g>
		<defs>
			<circle id="SVGID_00000084507392657954148270000010064066880804011410_" cx="72.3" cy="53.8" r="32.9"/>
		</defs>
		<clipPath id="SVGID_00000015317171079061194430000016283039781195589282_">
			<use xlink:href="#SVGID_00000084507392657954148270000010064066880804011410_"  style="overflow:visible;"/>
		</clipPath>
		
			<circle style="clip-path:url(#SVGID_00000015317171079061194430000016283039781195589282_);fill:none;" cx="71.8" cy="53.7" r="7.8"/>
		<g style="clip-path:url(#SVGID_00000015317171079061194430000016283039781195589282_);">
			<circle class="st10" cx="72.3" cy="53.8" r="32.9"/>
			<path class="st11" d="M46.7,60.6c0,0,3.2-5.2,4.2-7.9c0.9-2.7,2.2-10.5,5.1-13.6c2.9-3.1,5.2-3.3,9.2-5c4-1.6,6.2-2.8,8.3-2.8
				c2,0,7.2,2.5,9.9,5.1s4.8,5.6,8.6,5.5c0,0-5.7-9.7-7.9-10.4s-3.3-0.5-8.1-1c-4.8-0.4-13.8-0.1-16.5,0.3s-5.9,2.5-7.3,4.7
				c-1.3,2.2-3.7,6.9-5,8.5c-1.3,1.6-3.9,4.5-3.6,7.2C43.8,53.6,46.7,60.6,46.7,60.6z"/>
			<path class="st12" d="M51.5,70.9c0,0-3.3-2.6-4-5.5c-0.7-2.9-0.7-6.2,0.9-8.5c1.6-2.3,3.1-6.6,3.5-8.3s1.3-7.9,3.3-9.3
				c0.7-0.4,2.2,0.5,4.2-0.3c1.9-0.8,5.9-2.8,9.7-2.8s10.2,1.8,12.9,4s7.2,7.3,5.8,11.1C86.9,53.1,87,54,87,54s-0.6-4.6-2.3-6.8
				C83,45,81,42.8,78.4,42.9s-6.3,0-8.7,0.2c-2.4,0.2-7.7,0.4-8.9,0.9c-1.2,0.6-2.7,2.6-3.7,4.5c-0.6,1.1-1.5,3-2.4,4.8
				c-0.6,1.4-1.2,2.8-1.5,3.7c-0.6,2.2-1.6,7.9-1.4,12.1C51.9,69.4,51.5,70.9,51.5,70.9z"/>
			<path class="st11" d="M55.9,39c0,0,4.7,0.8,8.5-1.8c4.8-0.9,9.1-2.1,14,1s10.5,7.3,9.3,11.6c-1.1,4.3-1.9,9.4-5.6,10.2
				c-0.3,0,5.5,1.4,7.6-1.4c2-2.8,4.3-7.1,3.4-11.2c-0.9-4.1-1.3-5.6-1.3-5.6s-3.1-0.3-5.9-2.9s-7.7-7.6-10.5-7.6
				c-2.7,0.1-4.3,0.2-6.3,1.2c-2,1-5,2-7.1,2.8S55.9,39,55.9,39z"/>
			<path class="st11" d="M56.5,65.1c1,2.3,3.8,5.4,4.5,7.5c0.8,2.1,2.2,5,3.4,5.2c1.3,0.3,4.6-0.3,7,0.5s6.1,1.9,6.5,1.7
				c0.4-0.2,3.7-3.4,5.8-4.6c2-1.2,10.6-4.9,11.4-5.6c0.8-0.7,3.1-4.6,4.3-7.8c1.2-3.2,4.6-8.6,6.5-10c0.8-0.7-0.8,7.4-0.7,8.5
				c0.1,1.2-3.7,9.4-5.1,11.8c-1.4,2.4-7.6,9.1-13.1,11.5c-5.5,2.4-14.3,5-16.9,3.6s-9.9-7.1-11.5-8s-6.2-2.5-6.7-5.5
				S52.3,61,52.3,61s1.6-7.3,2.7-8.4c-0.3,0.7,0.3,2.5,0.3,2.5L56.5,65.1z"/>
			<path class="st12" d="M80.6,44.2c0.5,0.3-4,1.7-6.7,2.3s-4.9,1.1-7,0.8c-2.2-0.4-4.4-0.6-4.7,1.1c-0.2,1.7,0.5,2.1,0.2,2.9
				C62,52,60.1,55,60.1,56.3c0,1.3,0.6,2.3,0.6,4c0,1.7,2.3,5,3.3,6s4.6,1.1,6.8,1.6s4.2,3,5.5,2.5c1.3-0.5,4.3,1.2,7.3-2.1
				c2.3-2.5,7-4,7.9-5.3c0.9-1.3,3-4.1,2.9-5.4c-0.1-1.2,0.9-1.4,1.9-5.3c1-3.9,1.7-7.4,1.7-7.4s1.2,1.1,1.1,3.3
				c-0.1,2.2-1.3,6.5-1,7.8c0.3,1.3,1.4,4.5,1.4,4.5s-0.8,5-1.8,6.3c-1,1.3-3.4,3.4-5.5,4.4c-2.1,1-6.5,2.1-8.4,4
				c-2,1.9-2.7,3.5-4.6,4.1c-2,0.6-4.3,0.4-5.5-0.3c-1.2-0.7-3.6-1-6-1.2c-2.4-0.2-4.3,0-4.6-1c-0.3-1-2-4.5-2-4.5s-2.9-3.7-3.6-5.2
				c-0.7-1.5-2-8.1-2.2-9.6c-0.2-1.6-0.3-4.4,1.2-8.1c1.5-3.6,3-5.4,3.6-5.5s6.5-0.7,8-0.9S77.5,42.1,80.6,44.2z"/>
			<path class="st12" d="M67.7,51.8c0,0-1.7,2.6-1,4.7c0.7,2.1,1.1,3.6,2.6,4.5c1.5,0.9,5.2,1.1,6.5,0.2c1.3-0.9,4-3.2,3.8-5.1
				c-0.2-1.9-1.9-4.5-3.3-5.7C74.8,49.4,69.8,48.9,67.7,51.8z"/>
			<g>
				<g>
					<g>
						<path class="st13" d="M48.6,29.1c1.7,0.6,3.6,0.2,5.3-0.2c2.1-0.5,4.2-1.3,6.2-2.1c1.8-0.7,3.6-1.4,5.5-1.9
							c3-0.8,6.1-1.2,9.2-1.2c1.5,0,3,0,4.5,0.4c1.3,0.4,2.3,1.5,3.5,2.3c2.3,1.7,5.1,2.5,7.6,3.8c2.1,1.1,4.3,2.7,5,5
							c0.4,1.3,0.3,2.7,0.1,4.1c-0.1,1.4-0.1,2.9,0.5,4.2c0.6,1.2,1.6,2.2,2,3.5c0.4,1.3,0.3,2.8,0.2,4.1c-0.4,2.6-1.1,5.4-0.3,8
							c0.2,0.6,0.5,1.2,0.9,1.7c0.2,0.3,0.6,0.5,1,0.3c0.3-0.2,0.5-0.7,0.3-1c-1.6-2.2-1-5-0.6-7.5c0.2-1.4,0.5-2.9,0.3-4.4
							c-0.2-1.5-0.7-2.7-1.5-3.9c-0.4-0.5-0.8-1.1-1-1.7c-0.3-0.7-0.4-1.4-0.4-2.1c0-1.5,0.3-2.9,0.1-4.4c-0.3-2.6-2.1-4.7-4.2-6.1
							c-2.3-1.6-5-2.4-7.5-3.7c-1.3-0.7-2.4-1.6-3.5-2.4c-1.2-0.9-2.5-1.4-4-1.5c-3.1-0.4-6.3-0.1-9.3,0.5c-2.4,0.4-4.6,1.1-6.9,1.9
							c-2,0.8-4,1.6-6.1,2.2c-1.8,0.6-3.8,1.2-5.7,1c-0.3,0-0.6-0.1-0.9-0.2C48.1,27.4,47.7,28.8,48.6,29.1L48.6,29.1z"/>
					</g>
				</g>
				<g>
					<g>
						<path class="st13" d="M70.6,87c-3.6-3.1-7.5-5.8-11.7-8.1c-1.7-1-3.9-1.8-5.1-3.4c-1.3-1.7-1.1-4.1-2.3-5.9
							c-0.6-0.9-1.4-1.6-2.1-2.3c-0.7-0.8-1.2-1.6-1.5-2.6c-0.3-1.1-0.4-2.2-0.7-3.2c-0.3-1-0.7-2-1.2-2.9c-0.9-1.8-2-3.7-2.1-5.7
							c-0.1-2.3,1.1-4.3,2.2-6.2c1.3-2.3,2.6-4.5,3.9-6.8c1.1-1.9,2.1-4,3.6-5.6c1.4-1.6,3.3-2.5,5.4-2.9c2.3-0.5,4.7-0.6,7-0.7
							c2.2,0,4.4,0.1,6.6,0.2c1.2,0.1,2.4,0.1,3.6,0.1c1.1,0,2.3-0.1,3.4,0c1,0,2.1,0.1,3.1,0.5c1,0.4,1.8,1.1,2.5,1.9
							c1.3,1.6,2.7,3.2,3.9,4.9c0.6,0.9,1.1,1.8,1.6,2.7c0.4,1,0.7,2,0.9,3.1c0.5,2.4,0.9,4.9,0.6,7.4c-0.4,3.8-2.8,8-7.1,8.2
							c-0.9,0.1-1.8-0.1-2.6-0.5c-0.8-0.4-1.5,0.8-0.7,1.2c2,0.9,4.2,0.8,6.1,0c2-0.9,3.5-2.5,4.5-4.5c1-2.1,1.4-4.3,1.3-6.6
							c0-1.3-0.2-2.7-0.4-4c-0.2-1.2-0.4-2.5-0.8-3.7c-0.7-2.1-1.9-3.9-3.2-5.6c-0.7-0.9-1.4-1.8-2.1-2.7c-0.7-0.9-1.4-1.8-2.3-2.5
							c-1.9-1.4-4.3-1.5-6.6-1.4c-2.4,0.1-4.9,0-7.3-0.2c-2.4-0.1-4.8-0.2-7.2-0.1c-2.3,0.1-4.8,0.4-7,1.2c-2.2,0.8-3.8,2.3-5.1,4.2
							c-1.4,2.1-2.6,4.4-3.9,6.5c-1.3,2.2-2.7,4.4-3.9,6.7c-1.1,2.1-1.6,4.4-1,6.8c0.6,2.1,1.8,4,2.6,6c0.8,2.1,0.8,4.6,2.1,6.4
							c0.6,0.9,1.5,1.6,2.2,2.5c0.8,0.8,1.1,1.8,1.4,2.9c0.3,1.1,0.5,2.2,1.1,3.1c0.5,0.9,1.3,1.7,2.2,2.3c0.9,0.6,1.9,1.1,2.9,1.6
							c1.1,0.6,2.2,1.2,3.3,1.9c2.1,1.3,4.2,2.7,6.2,4.2c1,0.7,1.9,1.5,2.8,2.2C70.3,88.5,71.3,87.5,70.6,87L70.6,87z"/>
					</g>
				</g>
				<g>
					<g>
						<path class="st13" d="M97.3,45c-0.5,3.7-1.5,7.4-2.9,10.8c-0.7,1.7-1.4,3.4-2.3,5c-0.8,1.5-1.8,2.9-3.2,3.9
							c-1.5,1-3.3,1.4-4.7,2.4c-1.4,1-2.4,2.4-4.1,2.9c-1.7,0.4-3.5-0.1-5-0.8c-1.7-0.8-3.2-1.9-5.1-2.2c-1-0.1-1.9,0.1-2.9,0
							c-0.7-0.1-1.4-0.4-1.9-0.8c-1.2-0.9-2-2.2-2.6-3.6c-1.2-2.6-2.3-6.1-0.9-8.8c0.4-0.7,1-1.2,1.4-1.8c0.2-0.4,0.3-0.8,0.2-1.2
							c-0.1-0.4-0.3-0.7-0.4-1.1c-0.2-0.6,0.2-1.3,0.7-1.7c0.7-0.5,1.6-0.6,2.4-0.6c1,0.1,2,0.3,3,0.3c1,0.1,2,0,2.9-0.1
							c1.9-0.3,3.5-1.1,5.3-1.8c1.6-0.6,3.3-1,4.9-0.2c1.5,0.8,2.6,2.1,3.3,3.6c1.4,2.8,1.1,6.6-1.3,8.8c-0.5,0.5-1.1,0.8-1.8,1
							c-0.9,0.3-0.5,1.6,0.4,1.4c3.3-1.1,5.2-4.7,5-8c-0.2-3.6-2.6-7.7-6.3-8.5c-2-0.5-3.9,0.3-5.6,1.1c-1.9,0.8-3.7,1.4-5.8,1.5
							c-2,0-4.3-0.9-6.3-0.1c-1.7,0.7-2.8,2.5-2,4.2c0.2,0.3,0.3,0.5,0.1,0.8c-0.3,0.4-0.6,0.7-0.8,1c-0.5,0.7-0.8,1.5-1,2.3
							c-0.4,1.7-0.2,3.5,0.2,5.1c0.4,1.7,1.1,3.3,1.9,4.8c0.8,1.4,1.9,2.7,3.4,3.4c0.9,0.4,1.8,0.5,2.7,0.4c1-0.1,2-0.1,2.9,0.3
							c0.9,0.4,1.8,0.9,2.7,1.4c0.9,0.4,1.8,0.8,2.8,1.1c1.8,0.5,3.8,0.5,5.5-0.5c0.8-0.5,1.5-1.1,2.2-1.8c0.7-0.6,1.4-1.1,2.3-1.5
							c0.9-0.4,1.8-0.7,2.6-1.2c0.8-0.4,1.6-1,2.3-1.7c1.3-1.4,2.2-3.1,3-4.8c1.7-3.7,3.1-7.5,3.9-11.5c0.2-1,0.4-2,0.5-3
							c0.1-0.4-0.1-0.8-0.5-0.9C97.8,44.4,97.3,44.7,97.3,45L97.3,45z"/>
					</g>
				</g>
				<g>
					<g>
						<path class="st13" d="M52.6,72.3c-0.1-3.5-0.1-7,0.3-10.4c0.5-3.6,1.7-7,3.3-10.2c0.8-1.7,1.7-3.3,2.6-4.9
							c0.4-0.6,0.7-1.4,1.4-1.8c0.7-0.4,1.7-0.4,2.5-0.5c2-0.2,4-0.4,6-0.6c2-0.2,3.9-0.4,5.9-0.5c3.5-0.1,7.7,0.6,9.4,4.1
							c0.4,0.8,1.6,0.1,1.2-0.7c-1.5-3.2-5.1-4.6-8.5-4.8c-2.1-0.1-4.1,0.1-6.2,0.3c-2.1,0.2-4.2,0.4-6.3,0.6c-1,0.1-2,0.2-3,0.3
							c-0.9,0.1-1.7,0.4-2.4,1.1c-0.6,0.6-1.1,1.4-1.5,2.2c-0.5,0.8-0.9,1.7-1.4,2.6c-1.8,3.4-3.5,7-4.2,10.8
							c-0.8,4.1-0.7,8.3-0.6,12.4C51.2,73.2,52.7,73.3,52.6,72.3L52.6,72.3z"/>
					</g>
				</g>
				<g>
					<g>
						<path class="st13" d="M54.3,52.6c-0.4,5.8,0.1,12.1,3.7,16.8c0.9,1.2,1.9,2.3,2.5,3.7c0.5,1.2,0.7,2.6,1.5,3.7
							c1.7,2.4,4.6,1.9,7.2,1.9c1.4,0,2.7,0.4,4,0.9c1.3,0.5,2.6,1.1,4,1.1c3,0,4.3-2.8,6.4-4.4c3.8-2.9,9.1-3.3,12.7-6.6
							c2.1-1.9,2.9-4.6,3.7-7.3c0.4-1.4,0.9-2.8,1.5-4.1c0.7-1.3,1.5-2.5,2.5-3.6c0.5-0.5,1-1,1.5-1.5c0.7-0.6-0.3-1.6-1-1
							c-2.2,1.9-3.9,4.2-5,6.9c-1.1,2.6-1.4,5.5-2.9,7.9c-1.2,1.9-3.3,3.1-5.3,4c-2.1,1-4.4,1.7-6.5,2.8c-1,0.5-2,1.2-2.9,2
							c-0.9,0.8-1.7,1.9-2.7,2.7c-2.3,1.8-5-0.1-7.4-0.9c-1.3-0.4-2.6-0.4-3.9-0.4c-1.2,0-2.5,0.1-3.6-0.3c-1.2-0.5-1.7-1.7-2.1-2.8
							c-0.4-1.3-0.9-2.5-1.7-3.6c-0.9-1.2-1.8-2.3-2.6-3.6c-0.7-1.2-1.2-2.5-1.6-3.8c-0.8-2.8-1-5.6-0.9-8.5c0-0.7,0.1-1.4,0.1-2.1
							C55.8,51.7,54.4,51.7,54.3,52.6L54.3,52.6z"/>
					</g>
				</g>
				<g>
					<g>
						<path class="st13" d="M86.6,56.7c1.7-2.4,2.2-5.4,1.7-8.3c-0.5-2.9-2.1-5.5-4.3-7.4c-2.2-2-4.9-3.5-7.7-4.4
							c-3.2-1-6.6-1.4-9.9-0.7c-1.8,0.4-3.5,1.2-5.2,1.9c-1.6,0.6-3.4,1.2-5.1,0.5c-0.9-0.3-1.2,1.1-0.4,1.4c3,1.1,6-0.7,8.7-1.7
							c3-1.1,6.2-1.2,9.4-0.6c5.3,1.1,11,4.5,12.8,9.9c0.9,2.9,0.7,6.2-1.2,8.7c-0.2,0.3-0.1,0.8,0.3,1C86,57.1,86.4,57,86.6,56.7
							L86.6,56.7z"/>
					</g>
				</g>
				<g>
					<g>
						<path class="st13" d="M65.2,33.4c-2.5,0.9-5.1,1.3-7.4,2.7c-1.9,1.2-3.5,2.9-4.6,4.9c-1.3,2.4-1.5,4.9-1.9,7.5
							c-0.4,2.5-1.5,4.7-2.6,7c-1.2,2.5-2.3,5-2.5,7.8c-0.1,0.9,1.4,0.9,1.4,0c0.3-4.7,3.6-8.6,4.8-13.1c0.6-2.5,0.6-5.1,1.6-7.5
							c0.8-1.9,2.2-3.7,3.8-4.9c1-0.8,2.2-1.3,3.4-1.7c1.4-0.5,2.9-0.8,4.3-1.3C66.5,34.4,66.1,33.1,65.2,33.4L65.2,33.4z"/>
					</g>
				</g>
				<g>
					<g>
						<path class="st13" d="M93.1,59.5c-3.3-0.2-6.5,0.9-9.6,1.8c-2.7,0.7-5.5,0.9-8.2,0.5c-1.7-0.3-3.4-0.7-4.9-1.4
							c-0.4-0.2-0.8-0.1-1,0.3c-0.2,0.3-0.1,0.8,0.3,1c2.8,1.3,5.9,1.9,9,1.9c1.4,0,2.7-0.2,4-0.5c1.6-0.4,3.2-0.9,4.8-1.3
							c1.8-0.5,3.7-0.8,5.6-0.7C94,61,94,59.6,93.1,59.5L93.1,59.5z"/>
					</g>
				</g>
				<g>
					<g>
						<path class="st13" d="M69.6,59.9c-0.9-0.7-1.7-1.6-2.1-2.6c-0.4-1.1-0.2-2.3,0.2-3.3c0.5-1.1,1.3-2.2,2.2-2.9
							c0.9-0.6,1.9-0.8,3-0.7c2.1,0.1,4.3,1.2,5.1,3.2c0.9,2,0.3,4.6-1.3,6.1C74.9,61.4,71.7,61.4,69.6,59.9c-0.3-0.2-0.8,0-1,0.3
							c-0.2,0.4-0.1,0.7,0.3,1c2.3,1.7,5.7,1.8,8.1,0.2c2.4-1.6,3.4-4.7,2.7-7.4c-0.7-2.7-3.2-4.5-5.8-4.9c-1.3-0.2-2.7-0.1-3.9,0.4
							c-1.3,0.6-2.4,1.9-3.1,3.2c-0.8,1.4-1.2,3.1-0.8,4.8c0.4,1.6,1.6,2.8,2.8,3.8c0.3,0.2,0.8,0,1-0.3
							C70.1,60.5,69.9,60.1,69.6,59.9L69.6,59.9z"/>
					</g>
				</g>
			</g>
		</g>
		<path style="clip-path:url(#SVGID_00000015317171079061194430000016283039781195589282_);fill:#93C5D8;" d="M91.5,56.2"/>
	</g>
	<path class="st15" d="M110.8,20.3l-0.6,2.3c0,0.2-0.2,0.3-0.3,0.4l-1.9,1.1l1.6,0.6c0.3,0.1,0.5,0.4,0.6,0.7l0.6,2.6l0.7-2.5
		c0.1-0.3,0.3-0.5,0.5-0.6l1.7-0.7l-1.9-1.1c-0.2-0.1-0.3-0.2-0.3-0.4L110.8,20.3z"/>
	<path class="st15" d="M104.8,24.1l-1.1,4.6c-0.1,0.4-0.3,0.7-0.7,0.9l-3.8,2.2l3.1,1.3c0.6,0.2,1,0.8,1.2,1.4l1.3,5.1l1.3-5
		c0.1-0.5,0.5-1,1-1.2l3.4-1.5l-3.9-2.3c-0.3-0.2-0.6-0.5-0.6-0.9L104.8,24.1z"/>
</g>
</svg>
