<?xml version="1.0" encoding="utf-8"?>
<!-- Generator: Adobe Illustrator 27.3.1, SVG Export Plug-In . SVG Version: 6.00 Build 0)  -->
<svg version="1.1" id="background_art" xmlns="http://www.w3.org/2000/svg" xmlns:xlink="http://www.w3.org/1999/xlink" x="0px"
	 y="0px" viewBox="0 0 143.4 105.3" style="enable-background:new 0 0 143.4 105.3;" xml:space="preserve">
<style type="text/css">
	.st0{fill:#F1F2F7;stroke:#002D74;stroke-width:0.9442;stroke-miterlimit:10;}
	.st1{fill:none;stroke:#002D74;stroke-width:1.4162;stroke-miterlimit:10;}
	.st2{fill:#B4B8D3;stroke:#002D74;stroke-width:1.8883;stroke-miterlimit:10;}
	.st3{fill:#002D74;stroke:#002D74;stroke-width:1.8883;stroke-miterlimit:10;}
	.st4{opacity:0.7;}
	.st5{fill:none;stroke:#FFFFFF;stroke-width:1.8883;stroke-linecap:round;stroke-miterlimit:10;stroke-dasharray:0,15.4804;}
	.st6{fill:none;stroke:#FFFFFF;stroke-width:1.6523;stroke-linecap:round;stroke-miterlimit:10;stroke-dasharray:0,14.8677;}
	.st7{fill:none;stroke:#FFFFFF;stroke-width:1.4162;stroke-linecap:round;stroke-miterlimit:10;stroke-dasharray:0,15.7411;}
	.st8{fill:none;stroke:#FFFFFF;stroke-width:1.1802;stroke-linecap:round;stroke-miterlimit:10;stroke-dasharray:0,14.7514;}
	.st9{fill:none;stroke:#FFFFFF;stroke-width:0.9442;stroke-linecap:round;stroke-miterlimit:10;stroke-dasharray:0,17.2257;}
	.st10{fill:none;}
	.st11{clip-path:url(#SVGID_00000017474065777556431200000015732567423499558040_);}
	.st12{fill:#FFFFFF;}
	.st13{fill:#B4B8D3;}
	.st14{fill:#D9DBE9;stroke:#002D74;stroke-width:1.4162;stroke-linecap:round;stroke-miterlimit:10;}
	.st15{fill:none;stroke:#002D74;stroke-width:1.4162;stroke-linecap:round;stroke-miterlimit:10;}
	.st16{fill:#1FB2E2;}
	.st17{fill:#002D74;}
	.st18{clip-path:url(#SVGID_00000141431136488172461400000004509971878331426726_);}
</style>
<g>
	<path class="st0" d="M22.1,102.5V17.4c0-0.9,0.7-1.6,1.6-1.6h95.9c0.9,0,1.6,0.7,1.6,1.6v85.1"/>
	<g>
		<path class="st1" d="M137.8,102.5V15.6c0-5.5-4.5-10-10-10H15.6c-5.5,0-10,4.5-10,10v86.9H137.8z"/>
	</g>
	<circle class="st2" cx="71.7" cy="53.7" r="40.7"/>
	<circle class="st3" cx="71.7" cy="53.7" r="36.8"/>
	<g class="st4">
		<g>
			<path class="st5" d="M102.9,61.1c-4,17.2-21.3,27.9-38.5,23.9c-41-11.4-27.1-70.5,14.7-62.4C96.3,26.6,107,43.8,102.9,61.1
				L102.9,61.1z"/>
		</g>
		<g>
			<path class="st6" d="M97.2,59.2c-3,14.1-16.9,23-30.9,20c-33.5-8.6-23-56.9,11-50.9C91.3,31.3,100.2,45.2,97.2,59.2L97.2,59.2z"
				/>
		</g>
		<g>
			<path class="st7" d="M91.5,57.4c-2,10.9-12.5,18.1-23.4,16c-26-5.9-19-43.2,7.3-39.4C86.3,36.1,93.5,46.5,91.5,57.4L91.5,57.4z"
				/>
		</g>
		<g>
			<path class="st8" d="M85.7,55.6c-1,7.7-8.1,13.1-15.8,12.1c-18.4-3.2-15-29.6,3.7-27.9C81.3,40.8,86.7,47.9,85.7,55.6L85.7,55.6z
				"/>
		</g>
		<g>
			<path class="st9" d="M80,53.7c0,4.5-3.7,8.2-8.2,8.2c-10.9-0.4-10.9-16,0-16.5C76.3,45.5,80,49.2,80,53.7L80,53.7z"/>
		</g>
	</g>
	<circle class="st10" cx="71.7" cy="53.7" r="8"/>
	<path class="st1" d="M123.5,102.5H19.8V17.4c0-2.1,1.7-3.9,3.9-3.9h95.9c2.1,0,3.9,1.7,3.9,3.9V102.5z"/>
	<g>
		<defs>
			<rect id="SVGID_1_" x="0" y="0" width="143.4" height="18.3"/>
		</defs>
		<clipPath id="SVGID_00000136391598317914188820000008090868559458309787_">
			<use xlink:href="#SVGID_1_"  style="overflow:visible;"/>
		</clipPath>
		<g style="clip-path:url(#SVGID_00000136391598317914188820000008090868559458309787_);">
			<path class="st12" d="M13.5-16.3l8.1,28.9c0.5,1.6,2,2.8,3.7,2.8h92.9c1.7,0,3.2-1.1,3.7-2.8l8.1-28.9H65H13.5z"/>
			<path class="st1" d="M13.5-16.3l8.1,28.9c0.5,1.6,2,2.8,3.7,2.8h92.9c1.7,0,3.2-1.1,3.7-2.8l8.1-28.9H65H13.5z"/>
			<path class="st13" d="M25.2,12c-0.2,0-0.4-0.1-0.4-0.3L17.9-13h107.6l-6.9,24.6c-0.1,0.2-0.2,0.3-0.4,0.3h-5.7H28.6H25.2z"/>
			<path class="st14" d="M30.1,12h-4.9c-0.2,0-0.4-0.1-0.4-0.3L17.9-13h107.6l-6.9,24.6c-0.1,0.2-0.2,0.3-0.4,0.3h-5.7"/>
		</g>
	</g>
	<g>
		<path class="st1" d="M28.3,81.1v9c0,3.7,3,6.8,6.8,6.8h9c1.7,0,2.5-2.1,1.3-3.3L31.5,79.8C30.3,78.6,28.3,79.4,28.3,81.1z"/>
	</g>
	<g>
		<path class="st1" d="M115.7,81.1v9c0,3.7-3,6.8-6.8,6.8h-9c-1.7,0-2.5-2.1-1.3-3.3l13.9-13.9C113.6,78.6,115.7,79.4,115.7,81.1z"
			/>
	</g>
	<g>
		<g>
			<g>
				<g>
					<path class="st12" d="M93.8,73.1c-1.1,0.2-7.3,7-7.3,7.1c0.7-1.2,1.5-2.6,2.3-3.9c2-3.2,3.7-7.3,5.5-10.8c1.8-3.5,2.6-5.9,3-7
						c-4.1-1.1-5.2,2-7.1,5.8c-1.9,3.8-5.5,10.5-5.5,10.5L84,77.8l0,0c1-4.4,3.1-13.8,3.9-16.9c0.9-3.2,1.2-10,1.2-10
						s-1.4-0.7-3.2,0.5c-1.8,1.2-2.3,5-2.7,8.5c-0.4,3.5-2.9,8.7-2.9,8.7s0,0.1-0.1,0.1c-0.8-3.8-2-6.1-2-6.1s-1.7-0.5-5.3-0.5
						l-2.1,4.3c1.8,0.3,3.2-0.1,3.2-0.1s0.1,6.3,0,7.7c-0.1,1.4-0.9,4.1-3.5,4.6c-2,0.4-2.9-1-3.3-1.8l-0.4-2
						c-0.2-2.1-0.5-5.5-0.9-7.9c-0.4-3.3-3.7-4.9-5-4.7c-1.3,0.2-1.4,1.4-0.7,4c0.9,3.3,0.7,11.3-1,20.8c-1.6,8.5,0.9,15.8,0.9,15.8
						l0.6,1.1c0,0,11.8,1.5,12.1,0.7l4.4-7.9c1-1.2,2.5-3.1,3.9-5c0.6-0.6,1.1-1.3,1.7-1.9c3.9-4.3,8.3-9.1,10.2-10.9
						c2-1.8,4.3-3.6,5.2-4.4C97,71.5,95.9,72.7,93.8,73.1z"/>
					<g>
						<path class="st15" d="M73,62.1c3.6,0,5.3,0.5,5.3,0.5s3.2,6.3,2.8,15.2"/>
						<path class="st15" d="M60.9,104.6c0,0-3.6-6.2-1.6-17.6c1.6-9.6,1.9-17.5,1-20.8c-0.7-2.6-0.6-3.8,0.7-4s4.6,1.5,5,4.7
							c0.4,3.3,0.9,8,1,9.4c0,0,0.8,2.9,3.5,2.3c2.7-0.6,3.4-3.3,3.5-4.6s0.1-7.3,0.1-7.3s-1.4,0.4-3.2,0.1"/>
						<path class="st15" d="M80.4,68.6c0,0,2.1-5.2,2.5-8.7c0.4-3.5,1.3-7.3,3.1-8.5c1.8-1.2,3.2-0.5,3.2-0.5s-0.4,6.8-1.2,10
							c-0.9,3.2-2.9,12.6-3.9,16.9"/>
						<path class="st15" d="M85.2,72.9c0,0,2.8-4.1,4.4-8c1.8-4.4,3.7-7.6,7.8-6.5c-0.4,1.1-1.1,4.1-2.9,7.6s-3.7,7-5.6,10.2
							c-2,3.2-3.1,5.3-3.1,5.3"/>
						<path class="st15" d="M87.4,78.6c0,0,4.1-4,4.9-4.6c0.9-0.7,5-2.9,6.4,0.1c-0.9,0.7-3.6,3.1-5.6,4.9s-6.4,6.6-10.2,10.9
							c-3.6,4-7.2,8.1-8.5,11.2c-1,2.3-1.5,3.5-1.5,3.5"/>
						<path class="st15" d="M66.9,74.8c0,0,0.2,4.2,1.4,7.7"/>
					</g>
				</g>
			</g>
			<g>
				<path class="st16" d="M38.2,63.6l1.7-0.7c5-2.2,10-11.8,12.7-20.3c3.1-9.9,7.1-12.6,8.7-13.3l0.6-0.2l0.5,0.4
					c7.3,7,18.3,9.4,24.3,10.2l2.5,0.4L87,41.4c-5.1,3.2-7.2,9.5-9.5,16.2c-0.6,1.8-1.2,3.6-1.9,5.4c-3.4,8.9-11.1,14.8-11.5,15.1
					l-0.5,0.4L38.2,63.6z"/>
				<path class="st17" d="M61.7,30.2c6.6,6.3,16.3,9.3,24.8,10.5c-6.7,4.3-8.5,13.3-11.8,22c-3.3,8.7-11.2,14.7-11.2,14.7L40.3,63.8
					c5.5-2.4,10.6-12.5,13.2-20.9C56.2,34.4,59.6,31.1,61.7,30.2 M62.1,27.9l-1.2,0.5c-1.7,0.7-5.9,3.5-9.2,13.8
					C49.2,50.3,44.3,60,39.5,62l-3.4,1.5l3.2,1.9L62.6,79l1.1,0.6l1-0.8c0.3-0.3,8.3-6.4,11.8-15.5c0.7-1.8,1.3-3.6,1.9-5.4
					c2.3-6.8,4.4-12.7,9.1-15.7l4.3-2.8l-5.1-0.7c-5.8-0.8-16.7-3.2-23.7-10L62.1,27.9L62.1,27.9z"/>
			</g>
		</g>
		<g>
			<defs>
				<polygon id="SVGID_00000069393443242706937840000007366929896951351736_" points="67.6,55.2 73.2,83.8 54.7,83.8 55.4,54.2 				
					"/>
			</defs>
			<clipPath id="SVGID_00000088101114025120021240000012587812274425052042_">
				<use xlink:href="#SVGID_00000069393443242706937840000007366929896951351736_"  style="overflow:visible;"/>
			</clipPath>
			<g style="clip-path:url(#SVGID_00000088101114025120021240000012587812274425052042_);">
				<g>
					<path class="st12" d="M93.1,74.5c-0.9,0.7-6.6,5.6-6.6,5.6c0.7-1.2,1.5-2.6,2.3-3.9c2-3.2,4.1-7.8,5.9-11.3
						c1.8-3.5,2.6-5.9,3-7c-4.1-1.1-5.2,2-7.1,5.8c-1.9,3.8-5.9,11-5.9,11L84,77.8l0,0c1-4.4,3.1-13.8,3.9-16.9
						c0.9-3.2,1.6-11.1,1.6-11.1s-1.4-0.7-3.2,0.5c-1.8,1.2-2.3,5-2.7,8.5c-0.4,3.5-3.3,9.8-3.3,9.8s0,0.1-0.1,0.1
						c-0.8-3.8-2-6.1-2-6.1s-1.7-0.5-5.3-0.5l-2.1,4.3c1.8,0.3,3.2-0.1,3.2-0.1s0.1,6.3,0,7.7c-0.1,1.4-0.9,4.1-3.5,4.6
						c-2,0.4-2.9-1-3.3-1.8l-0.4-2c-0.2-2.1-0.5-5.5-0.9-7.9c-0.4-3.3-3.7-4.9-5-4.7c-1.3,0.2-1.4,1.4-0.7,4
						c0.9,3.3,0.7,11.3-1,20.8c-1.6,8.5,1.4,15.8,1.4,15.8l0.5-0.6c-0.3,1-0.4,1.7-0.4,1.7l11.6,2c0,0,0.2-0.5,0.5-1.2l4.4-7.9
						c1-1.2,2.5-3.1,3.9-5c0.6-0.6,1.1-1.3,1.7-1.9c3.9-4.3,8.3-9.1,10.2-10.9c2-1.8,4.3-3.6,5.2-4.4C97,71.5,94,73.8,93.1,74.5z"/>
					<g>
						<path class="st15" d="M73,62.1c3.6,0,5.3,0.5,5.3,0.5s3.2,6.3,2.8,15.2"/>
						<path class="st15" d="M60.7,102.7c0,0-3-7.3-1.4-15.8c1.8-9.5,1.9-17.5,1-20.8c-0.7-2.6-0.6-3.8,0.7-4s4.6,1.5,5,4.7
							c0.4,3.3,0.9,8,1,9.4c0,0,0.8,2.9,3.5,2.3c2.7-0.6,3.4-3.3,3.5-4.6s0.1-7.3,0.1-7.3s-1.4,0.4-3.2,0.1"/>
						<path class="st15" d="M80.4,68.6c0,0,2.5-6.3,2.9-9.8c0.4-3.5,1.3-7.3,3.1-8.5c1.8-1.2,3.2-0.5,3.2-0.5s-0.8,8-1.6,11.1
							c-0.9,3.2-2.9,12.6-3.9,16.9"/>
						<path class="st15" d="M85.2,72.9c0,0,3.1-4.5,4.8-8.5c1.8-4.4,3.7-7.6,7.8-6.5c-0.4,1.1-1.1,4.1-2.9,7.6
							c-1.8,3.5-4,7.5-6,10.7c-2,3.2-3.1,5.3-3.1,5.3"/>
						<path class="st15" d="M87.4,78.6c0,0,4.1-4,4.9-4.6c0.9-0.7,5-2.9,6.4,0.1c-0.9,0.7-3.6,3.1-5.6,4.9s-6.4,6.6-10.2,10.9
							c-3.6,4-7.4,8.5-8.7,11.7c-1.3,3.2-1.3,3.2-1.3,3.2"/>
						<path class="st15" d="M66.9,74.8c0,0,0.2,4.2,1.4,7.7"/>
						<path class="st15" d="M67.4,77c0,0,0.9,2.7,3.5,3.2"/>
					</g>
				</g>
				<path class="st15" d="M76.1,65.9c0,0-1.5,0.8-2.9,0.9"/>
			</g>
		</g>
	</g>
</g>
</svg>
