<?xml version="1.0" encoding="utf-8"?>
<!-- Generator: Adobe Illustrator 27.3.1, SVG Export Plug-In . SVG Version: 6.00 Build 0)  -->
<svg version="1.1" id="background_art" xmlns="http://www.w3.org/2000/svg" xmlns:xlink="http://www.w3.org/1999/xlink" x="0px"
	 y="0px" viewBox="0 0 143.4 103.2" style="enable-background:new 0 0 143.4 103.2;" xml:space="preserve">
<style type="text/css">
	.st0{fill:#F1F2F7;stroke:#002D74;stroke-width:0.9442;stroke-miterlimit:10;}
	.st1{fill:none;stroke:#002D74;stroke-width:1.4162;stroke-miterlimit:10;}
	.st2{fill:#B4B8D3;stroke:#002D74;stroke-width:1.8883;stroke-miterlimit:10;}
	.st3{fill:#002D74;stroke:#002D74;stroke-width:1.8883;stroke-miterlimit:10;}
	.st4{opacity:0.7;}
	.st5{fill:none;stroke:#FFFFFF;stroke-width:1.8883;stroke-linecap:round;stroke-miterlimit:10;stroke-dasharray:0,15.4804;}
	.st6{fill:none;stroke:#FFFFFF;stroke-width:1.6523;stroke-linecap:round;stroke-miterlimit:10;stroke-dasharray:0,14.8677;}
	.st7{fill:none;stroke:#FFFFFF;stroke-width:1.4162;stroke-linecap:round;stroke-miterlimit:10;stroke-dasharray:0,15.7411;}
	.st8{fill:none;stroke:#FFFFFF;stroke-width:1.1802;stroke-linecap:round;stroke-miterlimit:10;stroke-dasharray:0,14.7514;}
	.st9{fill:none;stroke:#FFFFFF;stroke-width:0.9442;stroke-linecap:round;stroke-miterlimit:10;stroke-dasharray:0,17.2257;}
	.st10{fill:none;}
	.st11{clip-path:url(#SVGID_00000083051819790284298270000003284574988843718580_);}
	.st12{fill:#FFFFFF;}
	.st13{fill:#B4B8D3;}
	.st14{fill:#D9DBE9;stroke:#002D74;stroke-width:1.4162;stroke-linecap:round;stroke-miterlimit:10;}
	.st15{fill:#7BAFD9;}
	.st16{fill:#B5D8E9;}
	.st17{fill:#3988C4;}
	.st18{fill:none;stroke:#002D74;stroke-width:1.4162;stroke-linecap:round;stroke-miterlimit:10;}
</style>
<g>
	<path class="st0" d="M22.1,102.5V17.4c0-0.9,0.7-1.6,1.6-1.6h95.9c0.9,0,1.6,0.7,1.6,1.6v85.1"/>
	<g>
		<path class="st1" d="M137.8,102.5V15.6c0-5.5-4.5-10-10-10H15.6c-5.5,0-10,4.5-10,10v86.9H137.8z"/>
	</g>
	<circle class="st2" cx="71.7" cy="53.7" r="40.7"/>
	<circle class="st3" cx="71.7" cy="53.7" r="36.8"/>
	<g class="st4">
		<g>
			<path class="st5" d="M102.9,61.1c-4,17.2-21.3,27.9-38.5,23.9c-41-11.4-27.1-70.5,14.7-62.4C96.3,26.6,107,43.8,102.9,61.1
				L102.9,61.1z"/>
		</g>
		<g>
			<path class="st6" d="M97.2,59.2c-3,14.1-16.9,23-30.9,20c-33.5-8.6-23-56.9,11-50.9C91.3,31.3,100.2,45.2,97.2,59.2L97.2,59.2z"
				/>
		</g>
		<g>
			<path class="st7" d="M91.5,57.4c-2,10.9-12.5,18.1-23.4,16c-26-5.9-19-43.2,7.3-39.4C86.3,36.1,93.5,46.5,91.5,57.4L91.5,57.4z"
				/>
		</g>
		<g>
			<path class="st8" d="M85.7,55.6c-1,7.7-8.1,13.1-15.8,12.1c-18.4-3.2-15-29.6,3.7-27.9C81.3,40.8,86.7,47.9,85.7,55.6L85.7,55.6z
				"/>
		</g>
		<g>
			<path class="st9" d="M80,53.7c0,4.5-3.7,8.2-8.2,8.2c-10.9-0.4-10.9-16,0-16.5C76.3,45.5,80,49.2,80,53.7L80,53.7z"/>
		</g>
	</g>
	<circle class="st10" cx="71.7" cy="53.7" r="8"/>
	<path class="st1" d="M123.5,102.5H19.8V17.4c0-2.1,1.7-3.9,3.9-3.9h95.9c2.1,0,3.9,1.7,3.9,3.9V102.5z"/>
	<g>
		<defs>
			<rect id="SVGID_1_" x="0" y="0" width="143.4" height="18.3"/>
		</defs>
		<clipPath id="SVGID_00000142886526634054256750000004745394119997524384_">
			<use xlink:href="#SVGID_1_"  style="overflow:visible;"/>
		</clipPath>
		<g style="clip-path:url(#SVGID_00000142886526634054256750000004745394119997524384_);">
			<path class="st12" d="M13.5-16.3l8.1,28.9c0.5,1.6,2,2.8,3.7,2.8h92.9c1.7,0,3.2-1.1,3.7-2.8l8.1-28.9H65H13.5z"/>
			<path class="st1" d="M13.5-16.3l8.1,28.9c0.5,1.6,2,2.8,3.7,2.8h92.9c1.7,0,3.2-1.1,3.7-2.8l8.1-28.9H65H13.5z"/>
			<path class="st13" d="M25.2,12c-0.2,0-0.4-0.1-0.4-0.3L17.9-13h107.6l-6.9,24.6c-0.1,0.2-0.2,0.3-0.4,0.3h-5.7H28.6H25.2z"/>
			<path class="st14" d="M30.1,12h-4.9c-0.2,0-0.4-0.1-0.4-0.3L17.9-13h107.6l-6.9,24.6c-0.1,0.2-0.2,0.3-0.4,0.3h-5.7"/>
		</g>
	</g>
	<g>
		<path class="st15" d="M60.4,35.6c0,0,1.1-3.7,2.5-6.5c1.4-2.8,2.5-4.1,5.6-3.7c3.1,0.4,5.8-1.1,9.2-2.9c3.4-1.8,5.4-0.7,6.4,1.9
			c1,2.6,1.8,6.7,3.4,6.7s9.1,0.3,10.6,2.5c2.4,3.5,0.4,2.7-0.7,3.5c-1,0.8-5.4,4.2-10.9,3.1c-6.1-1.3-3.4-4.6-7.7-2.5
			C74.5,39.7,60.4,35.6,60.4,35.6z"/>
		<path class="st16" d="M69.1,77.7c0,0,3.6,6.9,5.7,6.9c2.1,0,10.9-0.3,16.3-3.8c5.4-3.5,10.1-6.3,10.4-11c0.3-4.8-0.8-20,0-22.8
			c0.8-2.8,1.9-7.9-2.4-9.9c-4.4-2-2.2,2.9-10.5,2.7S77.2,30.6,75,37s2.7,16.7,2.7,16.7L69.1,77.7z"/>
		<path class="st17" d="M57.8,39c0,0-9.3,7.7-4.9,13.1S83,66.8,86.8,66.4c3.8-0.4,9.1-9.4,6.8-13.7s-4.4-7.5-6.8-6.4
			C84.4,47.4,82,48.8,80,47s-2.8-5.4-1.8-6.7c1-1.3,3.4-5.2,1.8-6.8c-1.6-1.7-3.4-3.5-8.1-2.3C67.1,32.3,61.6,35,57.8,39z"/>
		<g>
			<path class="st15" d="M40.8,41c-0.7-3.6,3.5-8.2,6.8-9.9c2.1-1.1,6.7-0.2,9,0.6c3.3,1.3,4.1,3.9,9.7,4.9c0,2.4-2.5,5.4-4.1,7.1
				c-1.6,1.7-4.4-0.6-3.9,6.3c0.1,1.7,2.7,1.5,4.3,1.9c1.7,0.4,2.6-0.5,4.1,0.1c4.1,1.6,2.1,8.3,11.4,9.1c1.5,0.1,2.9-0.3,4.3-0.5
				c1.8-0.2,2.5-1.1,4.4-0.9c0.5,0.1,4,1.1,4.1,1.5c0.8,2.5,0.2,7.2-0.4,9.8c-0.6,2.6,0.4,5.1-1.9,6.5c-3.1,1.9-10,0-13.6,0.5
				c-1,0.1-1.2,1-2,1.6c-0.5,0.4-1.4,2.4-1.9,2.8c-1.4,1.2-3.9,1.9-5.7,2.2c-1.1,0.2-4.6-0.7-5.5-1.4c-0.5-0.3-0.4-2.1-0.8-2.6
				c-1.7-2.1-2.5-1.5-5.1-2.1c-2.9-0.7-7.7-1.8-9.5-4.2c-1-1.4-0.3-4.4-0.1-6.1c0.3-1.7,0.7-3,0.7-4.7c0-2.6-1.5-5-3.7-6.4
				c-1.3-0.9-2.9-1.2-3.8-2.5c-0.8-1.2-1-2.4-0.6-3.8c0.4-1.4,1.3-2.6,2.1-3.7C39.4,47.1,41.6,45.2,40.8,41z"/>
		</g>
	</g>
	<g>
		<path class="st1" d="M28.3,81.1v9c0,3.7,3,6.8,6.8,6.8h9c1.7,0,2.5-2.1,1.3-3.3L31.5,79.8C30.3,78.6,28.3,79.4,28.3,81.1z"/>
	</g>
	<g>
		<path class="st1" d="M115.7,81.1v9c0,3.7-3,6.8-6.8,6.8h-9c-1.7,0-2.5-2.1-1.3-3.3l13.9-13.9C113.6,78.6,115.7,79.4,115.7,81.1z"
			/>
	</g>
	<g>
		<path class="st18" d="M41.2,44.6c-1.9,1.6-3.3,3.8-3.9,6.2c-0.2,0.9-0.3,1.8-0.1,2.7c0.6,1.9,2.8,2.5,4.5,3.6
			c2.3,1.5,3.7,4.3,3.7,7c0,1.8-0.7,3.5-1,5.3S44,73.2,45,74.7c1.2,1.8,3.5,2.4,5.6,2.9c2.2,0.5,4.4,1,6.6,1.6
			c0.9,0.2,1.9,0.5,2.2,1.4c0.1,0.4,0.1,0.9,0.2,1.3c0.3,2,2.7,2.7,4.7,2.7c2.1,0,4.3-0.3,6.1-1.4c1.8-1.1,3.2-3,3.2-5.2"/>
		<path class="st18" d="M71.9,81.9c0,0,1.4,4.3,10.5,2.1s18.3-8,19.1-14.2c0.8-6.3-0.5-12.9,0-19.8S102.3,38,99.1,37
			c-3.2-1-7.1,7.6-18.3-0.1"/>
		<path class="st18" d="M98,66.4c0,0-1.2-1.1,0-3.5c1.2-2.4,3.7-2.8,3.5-6.4"/>
		<path class="st18" d="M67.6,71.6c0,0,2.1,7.2,8.8,6.8s13.4,2.3,14-4.6c0.6-6.8,0-11.1,0.9-11.9c0.9-0.8-5.8-3.9-9.7-1.2
			c-4,2.6-10.3-1.2-11.5-4.4c-1.2-3.2-2.6-4.4-6.3-4.4c-3.7,0-4.8,0.8-5.7-1.3c0,0-1.4-4.5,2.6-6c4-1.5,8.2-8.8,4.6-8
			c-3.6,0.8-6.5-5.9-12-5.5c-5.5,0.5-7.7-1.1-10.9,5.6c-3.2,6.7-1,7.9,2,11.1c3,3.2,0.5,9,10,8.9"/>
		<path class="st18" d="M60.9,34.8l0.5-1c0.8-1.5,1.2-3.1,1.4-4.7c0.2-1.4,0.9-3.1,3.2-3.6c4-0.9,3.7,2.1,8.4-1.1
			c4.7-3.2,7.4-3.6,9.6,0c2.1,3.6,0.2,7.2,5,6.7s10.3,1,10,5.9"/>
		<path class="st18" d="M62.6,35.1c5.8-4.5,9.3-5.3,13.2-4.3c0,0,8,2.3,2.4,9.4c-1.8,2.3,1.6,9.7,6.1,7.2c7.2-3.9,10.4,5.6,9.9,8.1
			c-0.5,2.5-2.9,6.4-2.9,6.4"/>
	</g>
</g>
</svg>
