<?xml version="1.0" encoding="utf-8"?>
<!-- Generator: Adobe Illustrator 27.3.1, SVG Export Plug-In . SVG Version: 6.00 Build 0)  -->
<svg version="1.1" id="Layer_1" xmlns="http://www.w3.org/2000/svg" xmlns:xlink="http://www.w3.org/1999/xlink" x="0px" y="0px"
	 viewBox="0 0 100 100" style="enable-background:new 0 0 100 100;" xml:space="preserve">
<style type="text/css">
	.st0{fill-rule:evenodd;clip-rule:evenodd;fill:#C10230;}
	.st1{fill-rule:evenodd;clip-rule:evenodd;fill:#FFFFFF;}
	.st2{fill:#FFFFFF;}
	.st3{fill:#FBDEDC;}
	.st4{fill:#FFEAC9;}
	.st5{fill:#002D74;}
</style>
<g>
	<g>
		<g id="XMLID_00000119801631737929226390000012174166948621462420_">
			<g id="XMLID_00000044171382469198852940000015596107451733584261_">
				<path id="XMLID_00000096039996663865387540000018034350591484538261_" class="st0" d="M87.8,50c0,21.3-17.3,38.5-38.5,38.5
					C28,88.6,10.7,71.3,10.7,50c0-21.2,17.3-38.5,38.5-38.5C70.5,11.5,87.8,28.8,87.8,50"/>
				<path class="st0" d="M49.2,11.7c-21.1,0-38.3,17.2-38.3,38.3s17.2,38.3,38.3,38.3S87.5,71.1,87.5,50S70.4,11.7,49.2,11.7z"/>
				<path id="XMLID_00000182494387070544019400000002707944505177016989_" class="st1" d="M71.1,50c0-12.1-9.8-21.9-21.9-21.9
					S27.3,37.9,27.3,50s9.8,21.9,21.9,21.9S71.1,62.1,71.1,50"/>
				<path id="XMLID_00000138533882615357698110000008191530656784584884_" class="st2" d="M49.2,13.3C29,13.3,12.5,29.8,12.5,50
					c0,20.3,16.5,36.8,36.8,36.8S86.1,70.3,86.1,50C86,29.8,69.5,13.3,49.2,13.3z M49.2,85.7c-19.7,0-35.7-16-35.7-35.7
					s16-35.7,35.7-35.7s35.7,16,35.7,35.7S68.9,85.7,49.2,85.7z"/>
				<path id="XMLID_00000130609007267119875040000000731927042016263605_" class="st3" d="M57.1,52.5c-1.1-1.1-2.2-1.4-2.6-1.4
					c-0.4-0.1-1.7-0.2-2.2-0.1c-0.5,0.1-1.2,0.3-1.3,0.6s-0.2,0.6-0.5,1c-0.2,0.3-0.6,0.7-0.8,1.2c-0.5,0.7-0.6,1.5-0.7,2.5
					c-0.1,0.9-0.2,1.9-0.6,2.6l-0.2,0.3L47.9,59c-0.3-0.2-0.4-0.4-0.6-0.7l-0.4-0.8c-2.6-2.3-3.9-3.9-5.4-6.9l-0.6-1.3v-0.2
					c0.7-0.9,1-2,1.1-3.1c0.1-0.2,0-0.5-0.1-0.7c-0.1-0.3-0.2-0.6-0.1-1c0,0,0-0.2,0-0.3s-0.1-0.3-0.1-0.4c-0.1-0.1-0.5-0.7-1-1
					c-0.3-0.2-0.4-0.2-0.5-0.3h-0.3l-0.1-0.1c-0.3-0.4-0.6-0.7-0.9-0.5s-0.8,0.1-0.9-0.1c-0.1-0.1-0.3-0.2-0.5-0.2
					c-0.3,0-0.7,0.1-0.8,0.3c-0.4,0.5-0.7,0.6-1,0.7c-0.2,0-0.3,0.1-0.4,0.3l-0.1,0.2H35c-0.4,0-0.6,0.3-0.7,0.5l-0.1,0.1l-0.7,0.8
					c-0.2,0.3-0.7,1.1-0.6,2.4l0.1,0.1l0.7-0.3l1-0.5c0,0,0.6-0.2,0.9,0.2c0.2,0.4,0.3,0.5,0.8,0.9c0.3,0.2-1.7,1.7-1.7,1.7
					l-0.2,0.7c0.5,0.4,0.6,0.6,1.1,1l0.9,1l0,0c0.9,2.9,1.8,5.7,2.8,8.4c1.9,5.1,5.8,8.9,7.1,9c1.3,0.2,2.2-0.2,3.6-1.7
					c0,0,0.6-0.6,1.1-0.9c0.2-0.2,1.3-1,2.4-2c1-1,2.1-2.1,2.5-2.6c0.9-1.1,1.7-2.3,2.3-3.5c0,0,0.2-0.2,0.2-1.2
					c0-0.8-0.1-1.5-0.2-2C58.2,54.7,58.1,53.6,57.1,52.5z"/>
				<path id="XMLID_00000044173142862034461760000018299521249368697251_" class="st4" d="M57.1,52.5c-1.1-1.1-2.2-1.4-2.6-1.4
					c-0.4-0.1-1.7-0.2-2.2-0.1c-0.5,0.1-1.2,0.3-1.3,0.6s-0.2,0.6-0.5,1c-0.2,0.3-0.6,0.7-0.8,1.2c-0.5,0.7-0.6,1.5-0.7,2.5
					c-0.1,0.9-0.2,1.9-0.6,2.6l-0.2,0.3L47.9,59c-0.3-0.2-0.4-0.4-0.6-0.7l-0.4-0.8c-2.6-2.3-3.9-3.9-5.4-6.9l-0.6-1.3v-0.2
					c0.7-0.9,1-2,1.1-3.1c0.1-0.2,0-0.5-0.1-0.7c-0.1-0.3-0.2-0.6-0.1-1c0,0,0-0.2,0-0.3s-0.1-0.3-0.1-0.4c-0.1-0.1-0.5-0.7-1-1
					c-0.3-0.2-0.4-0.2-0.5-0.3h-0.3l-0.1-0.1c-0.3-0.4-0.6-0.7-0.9-0.5s-0.8,0.1-0.9-0.1c-0.1-0.1-0.3-0.2-0.5-0.2
					c-0.3,0-0.7,0.1-0.8,0.3c-0.4,0.5-0.7,0.6-1,0.7c-0.2,0-0.3,0.1-0.4,0.3l-0.1,0.2H35c-0.4,0-0.6,0.3-0.7,0.5l-0.1,0.1l-0.7,0.8
					c-0.2,0.3-0.7,1.1-0.6,2.4l0.1,0.1l0.7-0.3l1-0.5c0,0,0.6-0.2,0.9,0.2c0.2,0.4,0.3,0.5,0.8,0.9c0.3,0.2-1.7,1.7-1.7,1.7
					l-0.2,0.7c0.5,0.4,0.6,0.6,1.1,1l0.9,1l0,0c0.9,2.9,1.8,5.7,2.8,8.4c1.9,5.1,5.8,8.9,7.1,9c1.3,0.2,2.2-0.2,3.6-1.7
					c0,0,0.6-0.6,1.1-0.9c0.2-0.2,1.3-1,2.4-2c1-1,2.1-2.1,2.5-2.6c0.9-1.1,1.7-2.3,2.3-3.5c0,0,0.2-0.2,0.2-1.2
					c0-0.8-0.1-1.5-0.2-2C58.2,54.7,58.1,53.6,57.1,52.5z"/>
				<path id="XMLID_00000088854826199547450110000015234587183089338503_" class="st5" d="M44.4,59.4c-0.1,0.2-0.2,0.5-0.4,0.5
					c-0.3-0.1-0.1-0.5,0.1-0.7L44,59.6L44.4,59.4z M44.7,60l-0.2,0.5l-0.1,0.1L44.7,60z M64.9,54.3c0.3,0.7-1,0.7-0.3,1.3
					c-0.3,0.3-0.8,0.4-1.2,0.5c-0.5,0.6-1,1.1-1.8,0.9c-0.4,0.7-1.1,1.3-2,1.1c-0.1-0.1-0.3-0.2-0.4-0.1c-0.1,0.3-0.3,0.6-0.4,0.8
					c-1.9,3.5-5.1,6.5-8.2,8.7c-1.2,1.3-2.4,2.1-4,1.9c-1.5-0.1-5.5-4-7.4-9.2l0,0c-1-2.8-2-5.6-2.9-8.4c-0.2-0.3-0.5-0.7-0.8-1
					c-0.4-0.5-0.9-0.9-1.4-1.3c-0.6,0.2-1.1,0.9-1.7,0.4c-0.5-0.4-0.8-0.9-0.9-1.5c-0.3-1,0.8-1.3,1.4-1.8c-0.1-1.3,0.4-2.2,0.7-2.5
					c0.4-0.5,0.5-0.7,0.7-1c0.2-0.2,0.5-0.6,1-0.6c0.8-0.9,0.8-0.2,1.6-1.1c0.2-0.3,1.2-0.6,1.4-0.2c0.5,0.7,1.2-0.5,1.9,0.6
					c2.6-1.5,5-3.1,7.5-4.8c-0.5-1.1-1.1-2.3-1.1-3.5l4.8-3.2c1.2,0.3,2.1,1.5,3,2.4c0.6-0.8,1.3,0.1,1.7,0.6c0.3,0.5,0.5,1,0.7,1.5
					l-0.6,0.5c0.5,1.3,1.1,2.6,1.4,4.1c-1.4,1.3-3.2,2.1-4.7,3.3c-1.5-0.2-2.5-1.7-3.4-2.8H49l-6.6,4.3c-0.3,0.5,0.3,0.9,0.1,1.5
					c-0.2,1.1-0.4,2.2-1.1,3.1c0.2,0.5,0.4,0.9,0.6,1.4c1.4,2.9,2.7,4.6,5.4,6.9c0.6,0.7,0.6,1.1,1.1,1.4c0.8-1.6,0.4-3.7,1.3-5.1
					c0.7-1.4,1.6-1.6,1.1-2.5c-0.4-0.3-0.5-0.8-0.4-1.3c0-0.1,0-0.2,0.1-0.2c0.5-1.4,2.5-2,2.6-3.7c0.3,0.1,0.4-0.3,0.7-0.3
					c-0.3,0.2-0.6,0.6-0.7,0.9h0.2c-0.1,0.2-0.2,0.4,0,0.5c0.8,0.2,1.5-0.1,2.3,0C57,46.7,57.8,48,59,48c0.3,0,0.4-0.2,0.7-0.4
					c0.2,0,0.4,0.2,0.5,0.4c0.1,0.1-0.6-0.4-0.4,0.1h-0.2c0.1,0.2,0.1,0.4,0.1,0.6c0.1,0.2,0.1,0.4,0.3,0.6c0.4,0,0.4,0.6,0.7,0.4
					c0.1,0.5,1,0.2,0.8,0.9c-0.2,0.1-0.5,0.1-0.7,0.2c-0.1-0.1-0.1-0.2-0.2-0.3c0.2,0.7,0.7,1.2,1,1.8c0.1-0.4-0.3-0.7-0.4-1.1
					l0.5,0.6l-0.1-0.5c0.4,0.8,0.9,0,1.2,0.7c0.1,0.2-0.2,0.2-0.2,0.3l-0.5,0.2c-0.1,0,0,0.1-0.1,0.3l-0.3-0.4
					c-0.3,0.3-0.3,0.9-0.1,1.3l0,0l0.1-0.4c0.1,0.4,0.1,0.6,0.3,0.8c0.1-0.2,0-0.4,0.1-0.6c0.1,0.2,0.1,0.5,0.2,0.6
					c0.1,0,0.2-0.1,0.2-0.2v-0.3h0.2v-0.3h0.2c0.1-0.2-0.1-0.4-0.1-0.5l0.3-0.1c-0.5-0.4,0.3-0.6-0.1-1c0.5-0.2,0.3-0.9,0.2-1.4
					c-0.1-0.2-0.2-0.6-0.2-0.8c0.6,1.4,0.8,3.3,0.6,4.6l0.3-0.7c0.2,0.4-0.2,0.6,0.1,0.8l0.2-0.5l0.1,0.4c0.2-0.3,0.3-0.7,0.3-1.1
					c0.4,0.6-0.2,1.3,0,1.6L64.9,54.3z M55,33.4l0.1,0.3v-0.1l0,0L55,33.4z M53.2,41.3l-0.8-1.2h-0.2l0,0l0.8,1.2H53.2z M53.7,41.4
					l-1.9-2.7l-0.1,0.1l1.8,2.8l0.1-0.1L53.7,41.4z M51.2,37.1c0.7,1.6,1.8,2.8,2.6,4.3l0.2-0.1L51.2,37.1z M46.1,57.9L46.1,57.9
					l0.1-0.4L46.1,57.9z M46.1,57.1L45.7,58l0.2-0.2L46.1,57.1z M45.8,57l-0.4,0.7l0.3-0.2L45.8,57z M45.3,57.2h0.2
					c0.1-0.2,0.2-0.4,0.2-0.6C45.4,56.7,45.3,57,45.3,57.2z M45.3,56.4l-0.2,0.4l0,0l0.2-0.2V56.4z M45,56.2l-0.3,0.5h0.1
					C45,56.5,45.2,56.3,45,56.2z M44.6,56.3L44.6,56.3c0.3-0.1,0.2-0.4,0.2-0.4L44.6,56.3z M44.3,55.8c0-0.1,0.1-0.1,0.1-0.2h-0.1
					V55.8z M43.8,55.4L43.8,55.4c0.2-0.1,0.2-0.1,0.2-0.3C43.8,55,43.8,55.2,43.8,55.4z M42.2,53.2h0.1c0-0.1,0.2-0.2,0-0.3
					L42.2,53.2z M42.1,52.4l-0.2,0.2H42C42.1,52.5,42.1,52.4,42.1,52.4z M41.8,52.3L41.8,52.3c0.1,0,0.1-0.1,0.1-0.2L41.8,52.3z
					 M47.9,34.8L48,35l0.1-0.1L47.9,34.8L47.9,34.8L47.9,34.8z M41.1,42.5c0.7,0.5,1.1-0.5,1.7-0.7c0.4-0.4,1.3-0.6,1.7-1.2
					c1.8-1.1,3.8-2.2,5.6-3.6v-0.1c0-0.2-0.2-0.2-0.4-0.2l-8.6,5.6L41.1,42.5z M38.6,44.6v0.3l-0.2-0.2c0,0.1,0,0.1-0.1,0.2
					c-0.1,0-0.1-0.1-0.2-0.1c0.1,0.2-0.2,0.2-0.2,0.3c0.1,0.3,0.3,0.7,0.8,0.5c0.4-0.2,0.4-0.6,0.2-0.9
					C38.8,44.7,38.7,44.7,38.6,44.6z M38.8,47c-0.5,0.1-1,0.3-1.4,0.7L38.8,47z M38.1,47.6l-0.2,0.2L38.1,47.6L38.1,47.6z M39,46.6
					C38.9,46.6,38.9,46.6,39,46.6c-0.1,0-0.1,0-0.2,0h-0.1c-0.1,0-0.1,0-0.1,0.1C38.7,46.8,38.8,46.7,39,46.6z M36.7,41.8
					c0.1,0.3,0.5,0.4,0.8,0.5c0.4,0.1,0.6,0.6,1,0.5c0-0.3-0.4-0.5-0.1-0.7c-0.1,0-0.2,0.1-0.3,0l0.3-0.3l-0.7,0.1l0.2-0.3
					c-0.3-0.1-0.4,0.3-0.6,0.1l0.2-0.3C37.3,41.5,37,41.7,36.7,41.8z M35.5,42.8c0.9,0.3,2,0.8,2.4,1.8c0.2-0.3,0.6-0.4,0.9-0.4
					l-0.2-0.3c-0.2,0-0.3,0.3-0.5,0.1c0.1-0.2,0.3-0.1,0.4-0.3H38c0.1-0.1,0.1-0.2,0.2-0.2h-0.4c0-0.1,0.1-0.1,0.2-0.2h-0.5
					c0.1-0.2,0.2-0.1,0.3-0.2c-0.2,0-0.4,0.1-0.5,0l0.3-0.2H37c0-0.1,0.1-0.1,0.2-0.1h-0.6c0.1-0.1,0.1-0.1,0.2-0.1h-0.6l0.2-0.2
					C36.2,42.5,35.4,42.2,35.5,42.8z M35.2,43.9c0.8,0.2,1.3,1,1.5,1.7c0.1,0.4,0.3,0.5,0.5,0.4h0.1c0.1,0,0.2,0,0.3,0h0.1
					c0.1,0,0.1,0,0.1,0c0.2,0,0.1-0.3,0.2-0.4c-0.2-0.2-0.2-0.6-0.5-0.5c-0.1,0.2,0.1,0.2,0.1,0.4c-0.1,0-0.1-0.1-0.2,0h-0.1
					c-0.2,0-0.3,0.1-0.4,0.2l-0.1-0.1c0-0.4,0.4-0.7,0.7-0.8c0-0.2-0.1-0.2-0.2-0.2c-0.1,0-0.2,0-0.2,0c0-0.1,0.1-0.1,0.1-0.2h-0.4
					c0,0,0.1-0.1,0.2-0.1h-0.4l0,0c0-0.1,0.1-0.2,0.2-0.1c0,0,0,0-0.1,0c-0.1,0-0.3,0.1-0.3,0c0.1-0.1,0.2-0.1,0.2-0.2h-0.5l0.1-0.1
					h-0.4c0,0,0-0.1,0.1-0.1l0,0h-0.5l0.1-0.1h0.1l0,0l0,0L35.2,43.9l0.2-0.4c-0.2,0-0.4,0.2-0.6,0.2h-0.1l0.1-0.1l-0.2,0.2
					C34.2,43.9,34.9,43.7,35.2,43.9z M33,46.5h0.1c0.2-0.3,1-0.3,0.6-0.8c0.2,0,0.2-0.4,0.4-0.1v-0.3c0.8,0.2,1.3,0.8,2.1,1
					c0.3,0,0.3-0.3,0.3-0.5c-0.2-0.7-0.6,0.3-0.9-0.1c0-0.2,0.1-0.5,0.1-0.8h-0.2v-0.2l-0.4,0.1l0.1-0.3l-0.5,0.2l0.1-0.4
					c-0.2,0-0.4,0.3-0.6,0.1l0.1-0.1L34,44.4v-0.3l-0.4,0.3c-0.4,0.3-0.4,0.9-0.3,1.3c-0.1,0-0.2-0.2-0.3-0.2v0.6
					C33,46,33.2,46.4,33,46.5z M32,47.9c0.4,0.4,0.6,0.9,1,1.3c0-0.3-0.3-0.5-0.3-0.7l0.5,0.5L33,48.6c-0.2-0.4-0.7-0.9-1.2-0.8
					c-0.1,0.1-0.4,0.4-0.1,0.6c0.8,0.1,0.8,1.1,1.4,1.5C32.8,49.1,32.3,48.6,32,47.9z M33.3,49.4c0-0.1-0.1-0.1-0.2-0.1
					c0.1,0.1,0,0.3,0.2,0.2V49.4z M35.5,46.5l-0.1-0.2c-0.6,0.1-0.9,0.6-1.5,0.8c-0.5,0.2-0.7,0.9-1.3,0.5c0.1,0.3,0.5,0.5,0.7,0.7
					v-0.4C34,47.4,34.9,47.1,35.5,46.5z M36,50.7l1-1.2c-0.4-0.2-0.1-0.7-0.6-0.7c0-0.3,0.2-0.7,0.3-0.8l-0.5,0.3
					c-0.6,0.3-1.2,1-1.3,1.5l0.6-0.7c0,0.3-0.4,0.5-0.4,0.9c0-0.1,0.1-0.2,0.2-0.1c0.2,0.1,0,0.2,0,0.2h0.3c0,0.1-0.1,0.2,0,0.3
					l0.2-0.2c0.1,0,0.1,0.1,0.1,0.2h0.2C36.1,50.5,36,50.6,36,50.7z M53.5,61.1l-0.6-0.3c0.1-0.2,0.3,0.1,0.5,0l-0.3-0.3l0.1-0.1
					c0.2,0,0.6,0.1,0.7,0.1l-0.8-0.4c0.3-0.1,0.7,0.2,1.1,0.2c-0.1-0.3-0.6-0.3-0.8-0.5c0.2-0.2,0.6,0.1,0.8,0l-0.7-0.4
					c0.4-0.1,0.8,0.4,1.1,0.2c-0.3-0.2-0.8-0.3-1-0.5c0.3,0,0.7,0.2,1,0.2L54,58.8c0.2-0.1,0.5,0.1,0.8,0.1l-0.4-0.4
					c0.2-0.1,0.5,0,0.7,0.1L54.3,58c0.2,0,0.6,0.2,0.7,0.1l-0.3-0.4c0.2-0.2,0.5,0.3,0.6,0l-0.4-0.3c0.2-0.2,0.5,0.2,0.7,0l-0.3-0.3
					c0.3-0.3,0.5,0.2,0.7,0.1c-0.1-0.2-0.4-0.2-0.5-0.4H56c0-0.3-0.3-0.2-0.3-0.4h0.6c0-0.3-0.3-0.2-0.5-0.4
					c0.2-0.2,0.5,0.1,0.7,0.1c0-0.3-0.6-0.4-0.6-0.7c0.3,0.2,0.8,0,1,0.4l0.1-0.1c-0.2-0.3-0.9-0.5-0.9-0.9c0.3,0.1,0.5,0.5,0.9,0.4
					l-0.9-0.8L56,54.3c0.1,0,0.2,0,0.2,0c0.3,0.1,0.6,0.4,1,0.5c-0.1-0.2-0.4-0.4-0.6-0.6l0,0c-0.2-0.1-0.3-0.2-0.4-0.4
					c0.3,0,0.5,0.3,0.7,0.4c0.1,0.1,0.2,0.1,0.4,0l-0.1-0.1l0,0c-0.4-0.4-1-0.5-1.2-0.9l0.8,0.3c-0.2-0.4-0.9-0.5-1-0.9l0.5,0.1
					c-0.5-0.3-1-0.5-1.5-0.7c0.3-0.2,0.7,0.2,1.1,0.2c-0.4-0.3-0.8-0.4-1.2-0.5h0.7l-0.1-0.1c-0.3-0.1-1-0.1-0.8-0.4h-1.9
					c-0.2,0.1-0.2,0.3-0.4,0.1v0.3c-0.2,0.1-0.2-0.2-0.4-0.2l0.1,0.3c-0.1,0.2-0.4-0.3-0.3,0l0.1,0.2c-0.1,0.1-0.2,0-0.3,0v0.4
					c-0.1,0-0.2-0.1-0.3-0.2l0.1,0.4l-0.4-0.2v0.1c0.2,0.2,0.1,0.3,0.3,0.5c-0.2,0.2-0.2-0.2-0.5-0.3c0,0.3,0.3,0.4,0.2,0.6L50.5,53
					c0,0.2,0.3,0.3,0.2,0.5l-0.3-0.3c0,0.2,0.2,0.3,0.2,0.5l-0.4-0.2c0,0.2,0.3,0.3,0.2,0.5c-0.1,0-0.2-0.2-0.3-0.1
					c0,0.1,0.2,0.2,0,0.4L50,54.2c0.3,0.2,0.1,0.5,0,0.7V55l-0.1-0.1l-0.3-0.4c0,0.2,0,0.3,0.1,0.4V55c0.1,0.2,0.2,0.3,0.2,0.5
					c-0.2,0-0.3-0.5-0.3-0.4c-0.3,0.3,0.2,0.7,0.1,1c-0.3,0-0.1-0.3-0.4-0.4c0.1,0.3,0.3,0.5,0.2,0.8l-0.2-0.2
					c0,0.2,0.3,0.3,0.1,0.5l-0.2-0.1l0.3,0.5c-0.4,0.2,0.2,0.5,0.1,0.7l-0.5-0.3l1.4,1.6c-0.1,0.1-0.2-0.1-0.3,0
					c-0.4,0.2,0,0.3,0,0.5c-0.2,0-0.4-0.1-0.5-0.3l0.5,0.7c-0.6-0.3-1.2-0.8-1.3-1.5l-0.1,0.1l0.1,0.1c0.1,0.3,0.5,0.7,0.1,1
					l-0.1-0.1c-0.1,0-0.1,0.1-0.2,0.1l-0.4-0.6c0,0.4,0.4,0.7,0.3,1c-0.2-0.2-0.3-0.4-0.4-0.7c0,0.3,0.2,0.6,0.2,0.9l-0.1-0.1v0.2
					c0.4,0.4-0.1,0.8,0.2,1.2c-0.1,0-0.2,0.1-0.2,0.2l0,0c0,0.1,0.1,0.3,0,0.4l0,0c0,0.5-0.5,0.9-0.5,1.4c-0.1-0.5,0.1-0.9,0.1-1.4
					c-0.1,0.4-0.1,0.8-0.3,1.2l-0.2,0c0.1-0.3,0.1-0.7,0.2-1l-0.3,0.6c-0.1-0.3,0.2-0.7,0.1-1l-0.3,0.7c-0.2-0.2,0.2-0.5,0-0.7l0,0
					v0.1l-0.4,0.4c0-0.2,0-0.3,0-0.5s0.1-0.4,0.1-0.5l-0.4,0.3c0-0.3,0.2-0.5,0.3-0.7c-0.4,0-0.3,0.7-0.6,0.7l0.3-0.9l-0.5,0.5
					l-0.1-0.1l-0.3,0.4c-0.1,0-0.1-0.2-0.1-0.3c-0.1,0-0.3,0-0.4-0.1l0.3-0.6l0.1,0.1c0,0.1,0,0.2,0,0.3l0.2-0.3l0.1,0.1H46
					c0.1-0.2,0.4-0.4,0.2-0.7l-0.1,0.1c-0.1,0-0.1,0-0.1-0.1s0.1-0.2,0.1-0.4L46,60c-0.1,0.1-0.2,0-0.3-0.1c0.3-0.3-0.2-0.4-0.1-0.7
					c-0.5,0.2-0.1-0.4-0.2-0.4l-0.1,0.1c-0.3-0.3-0.3-0.5-0.6-0.7c0-0.2-0.5-0.2-0.2-0.5h-0.3c0-0.2,0.2-0.3,0.1-0.5
					c-0.2,0.1-0.2,0.6-0.5,0.5c-0.1-0.4,0.5-0.6,0.4-0.9l-0.5,0.5c-0.8,0,0.4-0.7,0.1-1.2c-0.5,0-0.5-0.5-0.6-0.8l-0.1-0.2l-0.3,0.2
					l-0.6,0.5l0.3-0.5l0.2-0.3l-0.4,0.3l-0.2,0.2c0-0.1,0-0.1,0-0.2c0.1-0.3,0.5-0.5,0.5-0.7L42,55.2h-0.1l0.5-0.8
					c-0.4,0-0.3,0.6-0.7,0.5c0-0.4,0.4-0.5,0.6-0.9c-0.2-0.9-0.6,0.4-0.9,0.2c0.1-0.3,0.4-0.4,0.6-0.7c0.3-0.7-0.7-0.9-0.5-1.4
					l-0.4,0.1c0-0.1,0.1-0.1,0.1-0.2H41v-0.1l0,0c0-0.1,0.1-0.2,0.2-0.3c-0.2,0-0.3,0.3-0.4,0.2c0-0.1,0.1-0.2,0.2-0.3l-0.3,0.2
					l0.2-0.5c-0.1,0-0.2,0.3-0.3,0.1c0.1-0.1,0.3-0.2,0.2-0.4c-0.1,0-0.2,0.2-0.3,0c0.1-0.5-0.1-0.7-0.3-1l0.1-0.4l-0.4-0.2
					c0.1-0.4,0.9,0,1-0.4c-0.1,0-0.1,0-0.1-0.1l0.2-0.2l0.1-0.1c0,0,0,0-0.1,0c0,0,0,0-0.1,0c-0.3,0-0.6,0.1-0.7-0.1l0.1-0.1l0,0
					l0,0c0,0,0,0,0.1,0l0,0c0,0,0.1,0,0.1,0.1c0-0.2,0.5-0.2,0.3-0.5c0.2-0.1,0.6-0.1,0.7-0.4c-0.2,0.1-0.4,0.3-0.6,0.1
					c0.1-0.3,0.5-0.2,0.7-0.4h-0.5c0-0.1,0-0.1,0-0.1H41c0-0.2,0.5-0.3,0.7-0.5c-0.7-0.1,0.3-0.2,0.2-0.5c-0.2,0-0.3,0.3-0.5,0.1
					l0.5-0.4l0,0h-0.1l0,0c0,0-0.1,0-0.1-0.1l0.2-0.3l-0.2-0.2l0.1-0.1c-0.3-0.3-0.2-0.8-0.2-1.2h-0.3c0-0.1,0.1-0.2,0.2-0.3h-0.4
					c0-0.1,0.2-0.2,0.3-0.2c-0.4,0.2-0.6-0.2-0.9-0.3l0.2-0.2c0-0.1,0-0.1-0.1-0.2L40.3,43l-0.1-0.2c-0.4,0-0.8-0.4-1-0.7l0.1-0.1
					c0.1,0,0.1,0.2,0.3,0.2c-0.1,0-0.3-0.3-0.5-0.3H39c-0.3,0.2-0.2,0.6-0.2,0.9c0.2,0.8,1.1,1.1,1.6,1.4c0.1,0.3-0.1,0.5,0.2,0.7
					c-0.1,0.1-0.1,0-0.2,0l0,0l0.2,0.2c-0.3,0-0.1,0.4-0.3,0.4h-0.1c0.2,0.2-0.3,0.2,0,0.4L40,46.1l0.1,0.1
					c-0.4,0.1,0.1,0.3-0.3,0.4l0.3,0.2c0,0,0,0.1-0.1,0.1l0,0h-0.1l0,0c0,0.1,0,0.1,0.1,0.2c-0.4,0.2-0.9,0.3-1.1,0.8l0.1,0.2
					l-0.9,0.7l0.5-0.2l-0.5,0.6l0,0c0.1-0.1,0.3-0.3,0.5-0.3h0.1l-0.2,0.2l-0.8,0.2c0.2-0.2,0.5-0.5,0.8-0.4L38,49.4l0.5-0.2
					c0,0.3-0.3,0.3-0.4,0.5h0.4l-0.3,0.4c0.1,0.1,0.3,0,0.2,0.2h0.1c0.2,0.1-0.1,0.2-0.1,0.4l0.4-0.1c0.1,0.1-0.1,0.2-0.1,0.3H39
					l-0.3,0.5c0.1,0,0.1,0,0.2,0.1c-0.1,0.1-0.1,0.1-0.1,0.2c0.1,0,0.2-0.1,0.3,0c-0.1,0.1-0.3,0.2-0.2,0.4c0.1,0,0.1,0.1,0.1,0.2
					c-0.1,0.1-0.2,0.3-0.2,0.5c0.2,0,0.3-0.5,0.5-0.3c-0.2,0.2-0.2,0.4-0.4,0.5c0.2-0.1,0.3-0.4,0.5-0.2c-0.3,0.4-0.7,1-1.1,1.1
					v-0.2c-0.6,0,0.3-0.4,0-0.7L38,53.2c-0.2-0.1,0.1-0.2,0.1-0.4H38c-0.1-0.1-0.1-0.2-0.1-0.3c-0.1,0-0.1-0.1-0.2-0.1
					c-0.2-0.3,0-0.7-0.2-0.9c-0.2-0.4-0.5-0.8-0.5-1.2l-0.3-0.1c0-0.1,0-0.1,0-0.2c-0.4,0.2-0.9,0.7-1,1.2l0.3-0.3
					c0.2,0.2-0.1,0.3-0.1,0.4l0.3-0.3c0.1,0.1-0.1,0.3-0.1,0.4l0.2-0.1c0,0.2-0.1,0.3-0.2,0.4c0.8-0.3-0.2,0.4,0.2,0.7h0.1v0.1
					c-0.1,0.3,0.2,0.4,0,0.7c0.1,0,0.2-0.1,0.3,0c-0.2,0.4,0.3,0.5,0.1,0.9h0.3l-0.2,0.4c0.1-0.1,0.1-0.2,0.2-0.2
					c0.1,0.2-0.1,0.3-0.1,0.5l0.3-0.3c0.2,0.1,0,0.2,0,0.2h0.2l-0.2,0.4l0.3-0.1c-0.2,0.2,0,0.4-0.1,0.7c0.3,0.2,0.1,0.4,0,0.6
					l0.3-0.3c0.1,0.2-0.1,0.4-0.2,0.7l0.3-0.3c0.1,0.2-0.2,0.5-0.2,0.8l0.4-0.2l0.6,0.7c0.3-0.2,0-0.4,0.3-0.6
					c0.2,0.4-0.3,0.7-0.2,1.1c0.1-0.2,0.1-0.5,0.3-0.5l-0.2,0.8c0.2-0.2,0.2-0.6,0.5-0.5l-0.2,0.8l0.3-0.3c0.1,0.3-0.2,0.6-0.2,0.9
					l0.3-0.4c0.1,0.3-0.2,0.5-0.1,0.8l0.3-0.4c0.1,0.2-0.2,0.5-0.1,0.8L40,60l-0.2,0.5l0.3-0.4c0.1,0.4-0.2,0.5-0.2,0.9l0.3-0.5
					c0.1,0.4-0.1,0.6,0,1l0.3-0.6c0.2,0.4-0.1,0.6,0,1.1l0.4-0.8c0,0.4-0.1,0.6-0.2,1v0.1v-0.1l0.4-0.7c0,0.3-0.1,0.6-0.1,1
					c0,0.2,0,0,0,0.2c0.1-0.1,0-0.1,0.1-0.2c0,0,0.1-0.1,0.1,0c0,0.2,0.1,0,0.2,0c0,0,0.1,0,0.1,0.1c0,0.3-0.1,0.6-0.1,0.9l0.2-0.3
					l0.1,0.1c0,0.2-0.1,0.5-0.1,0.8l0.3-0.6c0.1,0.3-0.1,0.7,0,0.9l0.2-0.3c0.2,0.2,0,0.3,0,0.6l0.2-0.3c0.2,0.2,0,0.5,0.1,0.7
					l0.2-0.4c0.1,0.1,0.1,0.3,0,0.5l0.2-0.3c0.3,0.2,0,0.4,0.1,0.7l0.1-0.2c0.4,0,0.3,0.5,0.4,0.8c0.1-0.2,0-0.5,0.2-0.6l0.1,0.8
					c0-0.2,0-0.3,0.2-0.4l0.1,1.1c0.2-0.2-0.1-0.5,0.1-0.7l0.2,0.7c0.1-0.1,0.1-0.3,0.2-0.4c0.2,0.3,0,0.5,0.1,0.8l0.3-0.5
					c0,0.1,0,0.4,0,0.6l0.1-0.1c0.2,0,0.1,0.5,0.3,0.3c-0.2,0.7,0.6,0.7,0.9,1.1l0.1-0.1l0.3,0.2l0.2-0.2C46.9,69,47,69,47.2,69
					c0.1,0,0.2,0,0.3,0h0.2c0.6-0.1,1.3-0.4,1.6-0.9c0.6-0.2,0.2-0.8,0.6-1.1l0,0c0.1,0,0.2,0.2,0.3,0c0.1-0.2-0.1-0.2-0.2-0.3
					c0.2-0.1,0-0.2,0-0.4l0.3-0.1L50.2,66h0.4l-0.1-0.2c0.2-0.2,0.3-0.3,0.6-0.3h0.1l-0.5-0.2c0.2,0,0.2-0.3,0.3-0.3
					c0,0,0.1,0,0.2,0.1v-0.3c0.1-0.1,0.2-0.3,0.3-0.3c0,0,0.1,0,0.2,0.1c-0.3-0.3,0.2-0.4,0.2-0.6c0.1,0,0.2,0.1,0.3,0.1l0,0
					c-0.1-0.3-0.1-0.4-0.1-0.7l0.4-0.1c-0.1-0.1-0.2,0-0.3-0.2l0.3-0.2c-0.1,0-0.1-0.1-0.1-0.2h0.5l-0.3-0.2c0,0,0-0.1,0.1-0.1l0,0
					v-0.2c0,0,0,0,0.1,0s0.3,0.1,0.4,0.1c0,0,0.1,0,0.1-0.1l-0.5-0.3h0.4c0-0.1-0.1-0.2-0.2-0.2c-0.1,0-0.2-0.1-0.2-0.1
					c0.1-0.1,0.3,0,0.4,0l-0.3-0.4C53.1,61,53.4,61.2,53.5,61.1z M39.8,44.8c-0.1-0.2-0.2-0.4-0.3-0.7v0.6l-0.3-0.1v0.1
					C39.3,44.9,39.6,45,39.8,44.8z M49.7,58.5l0.2,0.2l-0.4-0.4L49.7,58.5z M53.9,61.5l-0.1,0.2H54C54.1,61.6,54,61.6,53.9,61.5z
					 M54.8,62.6c-0.2-0.2-0.5-0.4-0.8-0.3v0.4c0,0.2,0.2,0.2,0.4,0.2v-0.2L54.8,62.6z M57.7,57.1c0.1-0.1,0.1-0.2,0.2-0.1
					c-0.1-0.1,0.2-0.5-0.1-0.6c0.1,0.5-0.8,0.3-0.7,0.9c-0.4-0.3,0,0.4-0.4,0.3c0,0.4-0.3,0.6-0.4,1c-0.1,0-0.1-0.1-0.2-0.1
					c0.1,0.2,0,0.5-0.1,0.8h-0.2c-0.1,0-0.1,0.3-0.3,0.2l0.1,0.4c-0.2,0-0.3,0.1-0.5,0l0.1,0.2c-0.2,0.3-0.4,0.7-0.7,0.7l0.1,0.3
					c-0.4,0.3-0.2,1-0.7,1c0.3,0.1,0.5,0.2,0.8,0.2l-0.1-0.2h0.6l-0.5-0.4c0.1-0.1,0.6,0.1,0.6,0l-0.2-0.2h0.7
					c-0.3-0.2-0.6-0.3-0.8-0.5c0.3-0.1,0.6,0.2,0.9,0.1l-0.6-0.4c0.3-0.1,0.6,0.3,1,0.1l-0.6-0.3c0.2-0.2,0.3,0.2,0.6,0v-0.3h0.4
					l-0.4-0.3h0.4c-0.1,0-0.2-0.1-0.1-0.2H57l-0.3-0.2c0.4-0.1,0.1-0.2,0.2-0.4l0.4,0.1l-0.2-0.4c0.3,0-0.1-0.2,0.1-0.3
					c0.1,0,0.3,0.2,0.4,0l-0.4-0.2l0.1-0.1l0.1,0.1c0.4,0.1,0.2-0.1,0.3-0.3H58C57.8,57.7,58.3,57.3,57.7,57.1z M58.8,53.7h-0.2v0.4
					h0.2V53.7z M60.9,54.9L60.9,54.9l-0.1,0.4h0.1V54.9z M61.5,54.2l-0.1-0.9L61.5,54.2L61.5,54.2z M62.2,56l-0.4,0.4h0.3L62.2,56z
					 M63.1,55.3c-0.2,0-0.5,0.1-0.5,0.3C62.8,55.5,63.1,55.5,63.1,55.3z M63.5,52.3c0,0.5-0.3,1.1-0.1,1.6h0.1
					C63.5,53.4,63.8,52.9,63.5,52.3z M41.8,56.5l-0.2,0.2L41.8,56.5L41.8,56.5z M41.9,54.2l-0.3,0.4l0.2-0.1L41.9,54.2z M44.4,60.1
					l-0.2,0.2l0.3-0.7L44.4,60.1z M45.1,60.9l-0.2,0.2l0.3-0.6L45.1,60.9z M48.6,67.7L48.6,67.7L48.6,67.7L48.6,67.7z M41.4,53.7
					h0.1l-0.2,0.2L41.4,53.7z M48.8,67.6L48.8,67.6l-0.1-0.2L48.8,67.6z M47.3,68.2l0.3,0.4v0.1L47.3,68.2z M47.6,68.1l0.3,0.3l0,0
					L47.6,68.1L47.6,68.1z M45,60.2l-0.2,0.4l-0.1,0.2L45,60.2z M43.3,56.9l0.4-0.5h-0.1L43.3,56.9L43.3,56.9z M41.7,58.8
					c0-0.2,0.4-0.4,0.3-0.5C41.9,58.5,41.6,58.7,41.7,58.8z M43.4,56.1c-0.1,0.2-0.2,0.4-0.3,0.6C42.9,56.6,43.3,56.3,43.4,56.1z
					 M42.7,56.4l0.4-0.5l0,0L42.7,56.4L42.7,56.4z M41.7,58.1l-0.3,0.5h0.1L41.7,58.1L41.7,58.1z M41.1,58.6
					c-0.2-0.2,0.2-0.4,0.3-0.6C41.5,58.1,41.3,58.4,41.1,58.6z M40.9,58.3c-0.1-0.2,0.1-0.5,0.3-0.6C41.2,58,40.9,58.1,40.9,58.3z
					 M43.1,59.6c0.2-0.2,0.4-0.5,0.5-0.7C43.4,59.1,43.1,59.5,43.1,59.6z M41.2,53.7l0.3-0.4l0,0L41.2,53.7L41.2,53.7z M43.6,59.5
					L43.6,59.5l0.1-0.3C43.9,59.2,43.6,59.3,43.6,59.5z M42.9,55.6l-0.4,0.6l0.2-0.2L42.9,55.6z M42.9,58.1
					c-0.1,0.3-0.4,0.6-0.5,0.8C42.5,58.7,42.7,58.3,42.9,58.1z M42.2,58.6l0.1-0.1l0.4-0.7L42.2,58.6z M42.9,58.9l0.2-0.5l-0.4,0.8
					c0-0.1,0.1-0.1,0.2-0.1l0.1,0.2l0.4-0.6L42.9,58.9z M39.7,53.7c-0.2,0.4-0.4,0.7-0.7,1C39,54.3,39.5,54,39.7,53.7z M39.8,56.5
					c-0.2-0.2-0.2-0.4,0-0.6l0.1-0.1c-0.1-0.2-0.2,0.1-0.3,0.1c0.1-0.4,0.4-0.8,0.7-1.1L40,55.4l0.4-0.2C40.6,55.6,40,56,39.8,56.5z
					 M39.8,53.3l-0.4,0.1c0-0.2,0.2-0.3,0.3-0.5c-0.4,0.3-0.8,0.7-1,1H39l-0.1,0.4L39.8,53.3z M40.1,54.4c-0.2-0.1-0.1-0.3,0-0.4
					c-0.3,0.3-0.8,0.6-0.9,1.1l0.4-0.2l-0.3,0.6C39.7,55.3,39.8,54.8,40.1,54.4z M41,53.4L41,53.4l0.2-0.4h0.1L41,53.4z M40.9,57.5
					L40.7,58l0.2-0.2V57.5z M41.2,56.3l0.2-0.3h-0.1L41.2,56.3L41.2,56.3z M41.1,55.9l-1,1.3h0.1L41.1,55.9L41.1,55.9z M39.9,56.9
					c0.4-0.3,0.7-1,0.9-1.3L39.9,56.9z M40.9,57.2l-0.3,0.5l0.2-0.3L40.9,57.2z M40.7,56.8l-0.4,0.5l0.2-0.1L40.7,56.8z M50.5,34.6
					v-0.1l-0.3-0.3L50.5,34.6L50.5,34.6z M47.9,33.1l-0.2,0.2c0,0,0.1,0.2,0.2,0.2v-0.1c0,0,0,0,0-0.1
					C47.9,33.3,47.9,33.2,47.9,33.1L47.9,33.1L47.9,33.1c0.2,0.2,0.4,0.4,0.4,0.6v0.1v0.1c0,0-0.2-0.1-0.3-0.2l0,0
					c0.2,0.6,0.6,1.1,1,1.6c0,0,0.2,0.3,0.4,0.5l0,0c0-0.3-0.2-0.5-0.4-0.7s-0.3-0.4-0.4-0.7v-0.1h0.1c0.2,0.2,0.4,0.4,0.5,0.7
					c0.2,0.4,0.4,0.7,0.8,0.7l-0.2-0.3c-0.1-0.2-0.3-0.4-0.3-0.6v-0.1l0.1,0.1c0.2,0.2,0.4,0.5,0.5,0.7c0.2,0.3,0.3,0.6,0.6,0.8
					L50.5,36l-0.2-0.5v-0.1l0.1,0.1c0.6,0.8,1.2,1.7,1.8,2.7s1.3,2.1,2.1,3l0,0l0,0l-0.1-0.3c-0.2-0.8-0.4-1.7-0.9-2.8
					c-0.5-0.4-0.8-0.9-1.2-1.4l-0.8-1.1v-0.3v-0.1l0.7,1c0.3,0.4,0.6,0.9,0.9,1.3l0,0c-0.3-0.9-0.9-1.6-1.4-2.4L51,34.4l-1.8-1.7
					C48.7,32.4,48.2,32.8,47.9,33.1z M49,33.8L48.5,33l0.5,0.6V33.8L49,33.8z M49.9,34.2L49.9,34.2l-0.2-0.3L49.9,34.2L49.9,34.2z
					 M49.3,34.9l-0.2-0.3L49.3,34.9L49.3,34.9L49.3,34.9z M50.3,35l0.8,1.2C50.8,35.9,50.5,35.4,50.3,35z M51.2,35.7
					c0.2,0,0.2,0.2,0.3,0.4C51.3,36.2,51.3,35.9,51.2,35.7z M53.6,39.5L53.6,39.5l-1.9-3.1h-0.1L53.6,39.5L53.6,39.5z M52.9,39
					l-0.6-1C52.5,38.3,53,38.6,52.9,39L52.9,39z M54,40.5v-0.2l-0.9-1.2L54,40.5z M60.4,51.5c-0.2,0-0.4,0-0.5-0.1s-0.1-0.2-0.1-0.3
					s0-0.2,0-0.4c0-0.1,0-0.3,0-0.4c0-0.2-0.1-0.3-0.2-0.4L59.5,50l0,0l0,0l-0.2-0.1c-0.2-0.1-0.3-0.1-0.3-0.4l0,0l0,0
					c0,0.1-0.1,0.2-0.2,0.2l0,0l0,0l-0.1-0.6c0,0.1-0.2,0.3-0.2,0.3l-0.2-0.3v0.1c0,0-0.3-0.3-0.3-0.4l0,0l0,0c0,0.1,0,0.1-0.1,0.1
					l0,0l0,0c-0.1-0.1-0.2-0.2-0.3-0.3s-0.3-0.1-0.3-0.3h-0.1c-0.1,0-0.1,0-0.1,0.1c-0.2,0-0.4-0.2-0.6-0.3l-0.3-0.2l0,0
					c0.1,0.1,0.1,0.1,0.1,0.2c-0.3,0-0.6-0.2-0.8-0.4l-0.3-0.2h0.2h0.1l-0.3-0.1c-0.1-0.1-0.2-0.2-0.4-0.1h-0.1l0,0v0.2l0,0l0,0
					l-0.2-0.1h-0.2c0,0-0.1,0-0.2,0.1l0.3,0.1c0.2,0,0.3,0.1,0.3,0.2l0,0h-0.3c-0.3,0-0.6,0-0.7-0.2c-0.1,0.2-0.2,0.2-0.3,0.2h-0.1
					c-0.1,0-0.1,0-0.2,0.1h-0.3c-0.7,0.2-1.3,0.7-1.7,1.5c0.1,0.1,0,0.3-0.1,0.4c-0.1,0.1-0.2,0.3-0.2,0.4c0.3,0.3,0.5,0.3,0.7,0.3
					h0.1h0.3h0.3h0.2c0.2,0,0.3,0,0.6,0.3c0-0.1,0-0.1,0.1-0.1l0.1-0.1l0.1-0.1l0.3-0.1h0.1c0.2,0,0.3,0.1,0.3,0.3l0.2-0.1
					c0.2,0,0.3,0.1,0.4,0.1l0.3,0.1l0.2-0.1h0.2h0.2c0.1,0,0.2-0.1,0.2-0.3l0,0l0,0c0.2,0.1,0.3,0.2,0.4,0.4
					c0.1,0.2,0.2,0.3,0.3,0.4c0.1-0.1,0.1-0.2,0.2-0.3l0.1-0.2v0.1c0,0,0.2,0.2,0.3,0.3s0.3,0.3,0.5,0.3l0,0c0,0.1,0,0.2,0,0.2
					c0,0.1,0.1,0.2,0.3,0.2c0.1,0.1,0.3,0.1,0.3,0.3l0,0l0,0l0.1-0.3l0,0l0,0c0.1,0.1,0.2,0.2,0.2,0.4l0.1-0.2l0.3,0.6l0.3,0.7l0,0
					v-0.2V53v-0.2v0.1l0.3,0.8v0.1c0.3,0.2,0.3,0.5,0.4,0.9v0.4c0,0.2,0,0.4,0.1,0.5c0.1-0.4,0.1-0.8,0-1.2c0-0.4,0-0.9,0.1-1.3V53
					v0.1l0.1,0.5v0.9v1l0.1,0.4l0,0c0.1-0.8,0-1.7,0-2.5v-1.3l0.1,0.1l0,0v-0.1c0-0.2,0-0.3,0.2-0.4l0.1,0.1l0,0
					c0-0.1,0.1-0.2,0.2-0.2c0.2,0.6,0.2,1.3,0.3,1.9l0.1,1l0,0c0-0.4,0-0.8,0-1.2C60.8,52.7,60.7,52.1,60.4,51.5z M53.2,48.3
					c0.3-0.1,0.3-0.3,0.7-0.2C53.6,48.2,53.5,48.7,53.2,48.3z M53.6,47.9h0.5l0.1,0.1L53.6,47.9z M55.9,48.8
					c0.2-0.3-0.1-0.5-0.2-0.6c0.2,0,0.3,0.2,0.4,0.3l0.1,0.4C56.1,48.9,56,48.9,55.9,48.8z M58.5,51.5l0.1-0.4l0.1,0.4H58.5z
					 M59.2,51.2c-0.1,0.1,0,0.2,0,0.3L59,51.3c0,0.1-0.1,0.1-0.2,0.1v-0.2c0.2,0.2,0.6-0.5,0.7-0.1l0.1-0.5l0.1,1.1
					C59.5,51.7,59.4,51.3,59.2,51.2z"/>
				<g id="XMLID_00000115504031022417708620000006515548010314488459_">
					<path id="XMLID_00000088094572852157033700000006035246620632728962_" class="st2" d="M20.8,43.9c0,0,0.1-0.3,0.2-0.9
						c0.1-0.6-0.4-1.2-1.1-1.4c-0.8-0.2-1.4,0.1-1.5,0.7c-0.2,0.5-0.2,1.1-0.2,1.1L20.8,43.9 M22.2,44.3l3.4,0.7
						c-0.3,1.1-0.4,2.3-0.4,2.3l-8.9-1.5c0,0,0.2-1.8,0.8-4c0.6-2.4,2-3,3.6-2.6c1.2,0.3,1.7,1.2,1.7,2.3c0.5,0,1.4,0,2.4-0.2
						c1.5-0.3,2.3-0.6,2.3-0.6s-0.6,1.5-0.9,2.5c-0.4,0.3-1.5,0.4-3.7,0.7L22.2,44.3z"/>
					<path id="XMLID_00000109738381537285523900000014645812536201919121_" class="st2" d="M78.6,51.3c0,0,0,0.3,0,1
						c0,0.6,0.6,1.1,1.3,1.1c0.8,0,1.3-0.4,1.4-1s0.1-1.1,0.1-1.1H78.6 M77.1,51.3h-3.4c0.1-1.1,0-2.3,0-2.3l9-0.5
						c0,0,0.1,1.8-0.1,4c-0.2,2.5-1.4,3.3-3,3.2c-1.2-0.1-1.8-0.8-2.1-1.8c-0.5,0.2-1.4,0.3-2.3,0.7c-1.4,0.6-2.1,1.1-2.1,1.1
						s0.3-1.6,0.4-2.5c0.3-0.4,1.4-0.7,3.5-1.4L77.1,51.3z"/>
					<path id="XMLID_00000064331472010570153450000006696776757826955686_" class="st2" d="M27.2,40.2L19,36.1c0,0,0.9-2.1,1.8-3.4
						l5.9,1.9l-3.9-4.8c0,0,1.1-1.4,2.2-2.7l7,6.1c-0.8,0.8-1.4,1.6-1.4,1.6l-5-3.8v0.1l4,4.7c-0.6,0.8-1,1.6-1,1.6l-5.9-1.9l0,0
						l5.4,3C27.7,39.2,27.2,40.2,27.2,40.2z"/>
					<path id="XMLID_00000008127497138659293310000003271058085242626225_" class="st2" d="M59.8,28.1l4.2-8.3c0,0,2.2,1,3.4,1.9
						l-1.9,6l4.8-3.9c0,0,1.4,1.1,2.6,2.3l-6.1,7c-0.8-0.8-1.6-1.5-1.6-1.5l3.8-5h-0.1l-4.7,4c-0.8-0.7-1.5-1.1-1.5-1.1l1.9-6l0,0
						l-3.1,5.4C60.8,28.6,59.8,28.1,59.8,28.1z"/>
					<path id="XMLID_00000039093146832772123550000003426757896678312115_" class="st2" d="M67.6,34l7-6c0,0,1.6,1.8,2.3,3l-4,4.7
						l5.8-1.7c0,0,0.8,1.6,1.5,3.1l-8.2,4c-0.4-1.1-0.9-2-0.9-2l5.4-3.1l0,0l-5.8,2c-0.5-0.9-1-1.6-1-1.6l4-4.7l0,0l-5,3.7
						C68.3,34.8,67.6,34,67.6,34z"/>
					<path id="XMLID_00000082331769753479775340000015482403960422901890_" class="st2" d="M38.9,26.2c0.2-0.8,0.1-2.5-0.7-4
						l-1.5,0.9c0.8,1.2,0.7,2.3,0.6,2.6l-2.5-0.9c0.7-1.3,1.1-2,0.5-3c-0.7-1.3-2.2-1.3-3.6-0.4c-1.1,0.7-1.9,2.4-0.9,3.8
						c0.2,0.3,0.8,0.6,1.4,0.7c-0.6,1-1,2.5-0.3,3.6c0.9,1.5,2.9,1.5,4.1,0.8c0.9-0.5,1.9-1.4,2.1-2.1l0.7,0.2c0,0,1.6-0.8,2.8-1.2
						L38.9,26.2z M32.4,23.6c-0.3-0.4-0.1-0.9,0.3-1.1c0.2-0.1,0.6-0.2,0.8,0c0.6,0.5,0.3,1,0,1.5C33,24.1,32.6,24,32.4,23.6z
						 M36.5,28c-0.1,0.2-0.5,0.5-0.7,0.6c-0.7,0.3-1.7,0-2-0.6c-0.3-0.4-0.4-1.2-0.1-1.6l2.8,1C36.7,27.6,36.7,27.7,36.5,28z"/>
					<path id="XMLID_00000161610687284942493460000003478910703436202152_" class="st2" d="M25.3,54.4L23.2,54
						c-0.1-0.9-0.2-2-0.2-2.8l2-0.6c0,0,0-1.5,0.1-2.7l-9.2,2.9c0,0,0,1.7,0.3,3.7l9.5,2C25.7,56.4,25.4,55.4,25.3,54.4z M17.7,52.8
						l3.7-1.2c0,0.7,0.1,1.4,0.2,2L17.7,52.8L17.7,52.8z"/>
					<path id="XMLID_00000103242868221687805130000012524216535694931122_" class="st2" d="M56.2,17.2l-4.9,8.7c0,0,1,0,2.1,0.2
						l1.1-1.9c0.9,0.2,2,0.4,2.8,0.7V27c0,0,1.4,0.4,2.5,1l0.1-10C59.8,18.1,58.2,17.6,56.2,17.2z M55.3,22.7l2-3.5h0.1l-0.1,4
						C56.6,23,55.8,22.8,55.3,22.7z"/>
					<path id="XMLID_00000090981021183287980000000007820791897205834660_" class="st2" d="M51,16.5c0,0-1.3-0.1-2.8,0l0.3,3.7
						c-0.6,0-1.8,0.1-3,0.3l-0.4-3.6c0,0-1.3,0.1-2.8,0.5l1.4,9.1c0,0,1.2-0.3,2.3-0.4l-0.4-3.8c0.6-0.1,1.7-0.2,3-0.3l0.3,3.8
						c0,0,1.3,0,2.3,0L51,16.5z"/>
					<path id="XMLID_00000085966197749841675440000002767054266943468959_" class="st2" d="M81.1,39.6l-8.6,2.8
						c0.9,2.8,1.2,5.5,1.2,5.5l1.5-0.2c-0.1-1.2-0.6-3.5-0.6-3.5l2.1-0.6c0.3,1.6,0.5,3.2,0.5,3.2l1.6-0.2c-0.2-1.4-0.4-2.8-0.6-3.4
						l2-0.5c0,0,0.5,2,0.7,4.3l1.6-0.1C82.2,42.8,81.1,39.6,81.1,39.6z"/>
				</g>
				<g id="XMLID_00000039115150909137316480000011708381871212978077_">
					<path id="XMLID_00000018947202268017128810000013017240070958295944_" class="st2" d="M27,66.3l0.6-0.4l-1.5-2.2l-0.6,0.4
						c0,0,0.4,0.6,0.5,0.7c-0.1,0.1-2.6,1.7-2.6,1.7l0.5,0.8c0,0,2.5-1.7,2.6-1.7C26.6,65.7,27,66.3,27,66.3z"/>
					<path id="XMLID_00000071547386902994577940000004179192452855913913_" class="st2" d="M28.8,67.3c0,0-1.1,0.9-1.2,1
						c-0.1-0.1-0.4-0.5-0.5-0.6c0.1-0.1,1.2-1,1.2-1L27.7,66l-3,2.5l0.6,0.7c0,0,1.2-1,1.3-1.1c0.1,0.1,0.4,0.5,0.5,0.6
						c-0.1,0.1-1.3,1.1-1.3,1.1l0.6,0.7l3-2.5L28.8,67.3z"/>
					<path id="XMLID_00000076605646707305958170000016112951096684658606_" class="st2" d="M29.8,69.5c0.1,0.1,0.9,0.9,0.9,0.9
						l0.5-0.5l-1.5-1.5L27,71.2l1.6,1.6l0.5-0.5c0,0-0.9-0.8-0.9-0.9c0.1-0.1,0.6-0.6,0.7-0.7c0.1,0.1,0.8,0.8,0.8,0.8l0.5-0.5
						c0,0-0.8-0.7-0.8-0.8C29.3,70,29.8,69.6,29.8,69.5z"/>
					<path id="XMLID_00000124134062838831275990000011621801565338373511_" class="st2" d="M32.5,72.1c0.1-0.1,0.1-0.1,0.2-0.2
						c0.1,0,0.2,0,0.3,0.1c0.2,0.1,0.2,0.3-0.1,0.6l0,0l0.7,0.5l0,0c0.3-0.3,0.4-0.6,0.3-0.9c0-0.3-0.2-0.5-0.6-0.8
						c-0.7-0.5-1.3-0.5-1.7,0.1c-0.4,0.5-0.1,1.1,0,1.6c0.2,0.4,0.3,0.7,0.1,0.9c-0.1,0.1-0.2,0.2-0.2,0.2c-0.1,0-0.2,0-0.2-0.1
						c-0.1-0.1-0.2-0.2-0.2-0.2c0-0.1,0.1-0.3,0.2-0.5l0,0l-0.6-0.5l0,0c-0.3,0.3-0.4,0.6-0.4,0.9s0.2,0.6,0.6,0.8
						c0.5,0.4,1.2,0.7,1.8-0.1c0.4-0.6,0.2-1.1,0-1.6C32.4,72.6,32.3,72.3,32.5,72.1z"/>
					<path id="XMLID_00000067933039403782947030000005708396436877789877_" class="st2" d="M36.2,74.3l0.4-0.6l-2.3-1.4l-0.4,0.6
						c0,0,0.7,0.4,0.8,0.5c-0.1,0.1-1.6,2.7-1.6,2.7l0.8,0.5c0,0,1.6-2.6,1.6-2.7C35.6,73.9,36.2,74.3,36.2,74.3z"/>
					<path id="XMLID_00000052062614327562851350000005966466491563023237_" class="st2" d="M37.2,73.9l-2.7,3l0.8,0.4
						c0,0,0.5-0.6,0.6-0.7c0.1,0,0.8,0.4,0.9,0.4c0,0.1-0.2,0.8-0.2,0.8l0.9,0.4l0.7-4L37.2,73.9z M37.2,75.1
						c-0.1,0.3-0.3,1.2-0.3,1.3c-0.1,0-0.4-0.2-0.5-0.3C36.4,76.1,37,75.4,37.2,75.1z"/>
					<path id="XMLID_00000074437358585751663100000003498624822807528341_" class="st2" d="M41.2,75.6c0,0-0.6,1.8-0.8,2.3
						c0-0.5-0.1-2.5-0.1-2.5L39.2,75l-1.3,3.7l0.8,0.3c0,0,0.7-1.9,0.8-2.4c0,0.5,0.1,2.7,0.1,2.7l1.1,0.2l1.3-3.7L41.2,75.6z"/>
					<path id="XMLID_00000013169881559207847810000009589637762894312375_" class="st2" d="M43.7,76.2l-1.3-0.3l-0.8,3.8l1.3,0.3
						c0.4,0.1,0.7,0,1-0.1c0.5-0.3,0.6-1,0.7-1.4v-0.1C44.8,77.2,44.7,76.4,43.7,76.2z M43.4,76.9c0.3,0.1,0.3,0.2,0.3,0.5
						c0,0.2-0.1,0.5-0.1,0.8c-0.1,0.6-0.2,0.9-0.4,1.1c-0.1,0.1-0.2,0.1-0.3,0c0,0-0.2,0-0.3-0.1c0-0.1,0.5-2.3,0.5-2.4
						C43.2,76.8,43.4,76.9,43.4,76.9z"/>
					<path id="XMLID_00000073711197351429603380000014524797196819000494_" class="st2" d="M46.1,76.6l-1.5,3.8l0.9,0.1
						c0,0,0.3-0.7,0.3-0.8c0.1,0,0.9,0.1,1,0.1c0,0.1,0.1,0.9,0.1,0.9l1,0.1l-0.7-4L46.1,76.6z M46.7,79c-0.1,0-0.5,0-0.6-0.1
						c0-0.1,0.3-1,0.4-1.3C46.5,78,46.6,78.9,46.7,79z"/>
					<path id="XMLID_00000072997529741388203490000017410142393959692715_" class="st2" d="M50.8,79.5c0-0.5-0.3-0.7-0.5-0.8
						c0.3-0.1,0.5-0.4,0.5-0.9l0,0c0-0.3-0.1-0.6-0.3-0.8c-0.2-0.2-0.4-0.2-0.7-0.2h-1.5l0.1,3.9h0.9c0,0,0-1.5,0-1.6
						c0.1,0,0.1,0,0.1,0c0.2,0,0.3,0,0.4,0.1c0.1,0.1,0.1,0.3,0.1,0.6V80c0,0.2,0,0.4,0.1,0.7l0,0h0.9v-0.1
						C50.8,80.5,50.8,79.9,50.8,79.5z M49.8,77.9L49.8,77.9c0,0.1,0,0.5-0.3,0.5c0,0-0.2,0-0.3,0c0-0.1,0-0.8,0-0.9
						c0.1,0,0.3,0,0.3,0c0.1,0,0.2,0,0.2,0.1C49.8,77.6,49.8,77.8,49.8,77.9z"/>
					<path id="XMLID_00000009552303318941774420000001852860420394064816_" class="st2" d="M54,78.4c-0.1-0.6-0.2-1.3-0.6-1.6
						c-0.2-0.2-0.5-0.2-0.9-0.2l-1.4,0.2l0.5,3.9l1.3-0.2c0.4,0,0.7-0.2,0.9-0.4c0.4-0.5,0.3-1.2,0.2-1.6V78.4z M52.4,79.8
						c0-0.1-0.3-2.4-0.3-2.5c0.1,0,0.3,0,0.3,0c0.1,0,0.2,0,0.3,0.1c0.2,0.2,0.3,0.6,0.3,1.1c0,0.3,0,0.5,0,0.6c0,0.2,0,0.4-0.1,0.5
						s-0.2,0.1-0.3,0.1C52.7,79.8,52.5,79.8,52.4,79.8z"/>
					<path id="XMLID_00000170968579986045745210000007025208235517615516_" class="st2" d="M56.5,75.8c-1.3,0.4-1,1.3-0.8,2.3l0,0
						c0.3,1,0.5,1.9,1.9,1.6c1.3-0.4,1-1.3,0.8-2.3C58,76.4,57.8,75.4,56.5,75.8z M57.3,79c-0.1,0-0.2,0-0.3,0
						c-0.2-0.1-0.3-0.5-0.5-1.1c-0.2-0.7-0.3-1-0.1-1.2c0-0.1,0.1-0.1,0.2-0.2c0.1,0,0.2,0,0.3,0c0.2,0.1,0.3,0.5,0.5,1.1
						C57.7,78.5,57.7,78.9,57.3,79z"/>
					<path id="XMLID_00000058563403056244163190000014273505800282753960_" class="st2" d="M60.6,76c0,0-0.9,0.4-1,0.4
						c0-0.1-0.3-0.7-0.3-0.8c0.1,0,1.1-0.4,1.1-0.4l-0.3-0.7l-1.9,0.8l1.4,3.6l0.8-0.3c0,0-0.6-1.4-0.6-1.5c0.1,0,1-0.4,1-0.4
						L60.6,76z"/>
					<path id="XMLID_00000114778805169139397290000006144932379626592447_" class="st2" d="M64.3,74.5c0-0.2-0.1-0.4-0.2-0.7
						c-0.2-0.4-0.4-0.6-0.7-0.7c-0.2-0.1-0.5,0-0.8,0.1l-1.3,0.7l1.9,3.4l0.8-0.4c0,0-0.7-1.2-0.7-1.3c0.1,0,0.5-0.3,0.5-0.3
						C64.1,75.2,64.3,74.9,64.3,74.5z M63.3,74.3c0,0.1,0.1,0.2,0.1,0.3s0,0.2-0.1,0.3c0,0-0.3,0.1-0.3,0.2c0-0.1-0.4-0.7-0.5-0.8
						c0.1,0,0.3-0.2,0.3-0.2C62.9,73.9,63.1,74,63.3,74.3z"/>
					<path id="XMLID_00000039839178998159523320000002670603268367800242_" class="st2" d="M65.8,71.1l-0.7,0.5l1.5,2.2
						c0.1,0.2,0.2,0.3,0.2,0.5c0,0.1-0.1,0.2-0.2,0.3c-0.1,0.1-0.2,0.1-0.3,0.1s-0.3-0.1-0.4-0.3l-1.5-2.2l-0.7,0.5l1.6,2.2
						c0.4,0.6,1.1,0.7,1.8,0.2c1-0.7,0.6-1.5,0.4-1.8L65.8,71.1z"/>
					<path id="XMLID_00000165228333027895630800000003390325544818902954_" class="st2" d="M69.7,71.3c-0.3-0.4-0.7-0.3-0.9-0.2
						c0.1-0.1,0.1-0.2,0.1-0.4c0-0.2-0.1-0.5-0.3-0.7c-0.4-0.5-1-0.6-1.4-0.2l-1.1,1l2.6,2.9l0.7-0.6c0,0-1-1.1-1-1.2l0.1-0.1
						c0.1-0.1,0.3-0.2,0.4-0.2c0.2,0,0.3,0.2,0.5,0.4l0.1,0.1c0.1,0.2,0.3,0.3,0.5,0.4l0,0l0.7-0.6h-0.1
						C70.4,72.1,70,71.6,69.7,71.3z M68.2,71.1c0,0.1,0,0.2-0.1,0.2c0,0-0.1,0.1-0.2,0.2c-0.1-0.1-0.5-0.6-0.6-0.7
						c0.1-0.1,0.2-0.2,0.2-0.2c0.1-0.1,0.3-0.2,0.5,0.1C68.1,70.8,68.2,71,68.2,71.1z"/>
					
						<rect id="XMLID_00000092433519084426758570000011870704956442233253_" x="69.5" y="68.1" transform="matrix(0.6965 -0.7176 0.7176 0.6965 -29.0516 71.4791)" class="st2" width="0.9" height="3.9"/>
					<path id="XMLID_00000094593526813620133220000006855161132110856374_" class="st2" d="M73.8,66.1l-1.4-2.2v-0.1l-0.5,0.8
						c0,0,0.8,1.1,0.9,1.3c-0.3-0.1-1.5-0.4-1.5-0.4l-0.5,0.7l-1.7,2l0.6,0.5c0,0,0.5-0.6,0.6-0.7c0.1,0.1,2.4,2,2.4,2l0.6-0.7
						c0,0-2.3-1.9-2.4-2c0.1-0.1,0.6-0.7,0.6-0.7l-0.3-0.2c0.7,0.2,2.3,0.5,2.3,0.5l1.1,0.8l0.5-0.8L73.8,66.1z"/>
				</g>
			</g>
			<g id="XMLID_00000034792724939540715230000003233183956693659067_">
				<path id="XMLID_00000111902509158456721250000009256325184670845840_" class="st5" d="M59.4,62.1h-0.5v-0.3h1.4v0.3h-0.5v1.7
					h-0.3v-1.7H59.4z"/>
				<path id="XMLID_00000121249132995656801090000007976038373942207880_" class="st5" d="M60.5,61.8H61l0.4,1.4l0,0l0.4-1.4h0.5
					v1.9H62v-1.6l0,0l-0.4,1.6h-0.3l-0.4-1.6l0,0v1.6h-0.3v-1.9H60.5z"/>
			</g>
			<g id="XMLID_00000050652638888267765340000007934236293312154275_">
				<path id="XMLID_00000026880579547122683450000007064743053494108046_" class="st5" d="M86.2,67.6h-0.5v-0.3h1.4v0.3h-0.5v1.7
					h-0.3L86.2,67.6L86.2,67.6z"/>
				<path id="XMLID_00000040556853862873737960000003796121750215292095_" class="st5" d="M87.2,67.4h0.5l0.4,1.4l0,0l0.4-1.4H89
					v1.9h-0.3v-1.6l0,0l-0.4,1.6H88l-0.4-1.6l0,0v1.6h-0.3L87.2,67.4L87.2,67.4z"/>
			</g>
		</g>
	</g>
</g>
</svg>
