<?xml version="1.0" standalone="no"?>
<!DOCTYPE svg PUBLIC "-//W3C//DTD SVG 20010904//EN"
 "http://www.w3.org/TR/2001/REC-SVG-20010904/DTD/svg10.dtd">
<svg version="1.0" xmlns="http://www.w3.org/2000/svg"
 width="700.000000pt" height="700.000000pt" viewBox="0 0 700.000000 700.000000"
 preserveAspectRatio="xMidYMid meet">
<metadata>
Created by potrace 1.14, written by Peter Selinger 2001-2017
</metadata>
<g transform="translate(0.000000,700.000000) scale(0.100000,-0.100000)"
fill="#000000" stroke="none">
<path d="M3120 6175 c-591 -72 -1142 -340 -1571 -765 -424 -420 -687 -944
-776 -1545 -25 -169 -25 -562 0 -730 87 -583 332 -1088 725 -1496 375 -389
819 -643 1332 -763 231 -54 305 -61 620 -61 329 1 427 12 686 80 683 179 1265
618 1630 1229 366 612 472 1345 294 2042 -51 198 -94 314 -194 519 -403 820
-1199 1384 -2105 1490 -153 18 -493 18 -641 0z m640 -125 c584 -76 1105 -334
1517 -751 407 -412 646 -899 729 -1484 21 -145 23 -464 5 -610 -61 -485 -252
-942 -551 -1315 -584 -728 -1517 -1084 -2438 -929 -809 136 -1522 667 -1882
1404 -181 371 -261 717 -261 1135 0 427 86 785 277 1162 215 424 551 785 963
1035 325 198 709 326 1093 363 114 11 433 5 548 -10z"/>
<path d="M3265 5994 c-484 -39 -942 -213 -1332 -505 -111 -84 -362 -329 -445
-434 -276 -353 -451 -758 -520 -1205 -18 -115 -18 -586 0 -700 67 -429 224
-805 480 -1150 104 -139 349 -387 483 -487 353 -265 732 -421 1179 -489 142
-22 498 -25 640 -5 356 49 739 184 1010 357 561 358 957 903 1109 1526 57 235
66 319 66 603 -1 223 -4 279 -23 390 -72 418 -229 783 -484 1122 -101 135
-338 371 -478 475 -351 262 -736 421 -1165 484 -100 14 -425 26 -520 18z m308
-316 c4 -95 7 -244 7 -330 l0 -158 -75 0 c-52 0 -77 4 -80 13 -2 6 -8 65 -14
130 -5 65 -11 120 -14 123 -4 4 -198 -14 -203 -19 -1 -1 4 -56 12 -122 7 -66
13 -125 14 -131 0 -11 -148 -39 -158 -30 -10 10 -101 620 -94 628 11 10 176
36 184 29 4 -3 13 -59 20 -124 l12 -118 75 6 c134 11 131 10 130 63 0 26 -4
82 -8 125 -3 43 -5 80 -2 83 2 2 46 4 96 4 l92 0 6 -172z m505 86 l112 -27 0
-346 1 -346 138 273 c76 150 143 278 149 284 11 11 167 -65 215 -106 l25 -21
-64 -199 c-35 -110 -63 -201 -61 -202 2 -2 76 55 165 127 l162 131 35 -27 c20
-15 61 -50 92 -79 l57 -53 -209 -239 c-114 -131 -212 -241 -217 -243 -14 -5
-109 91 -104 105 2 6 62 87 132 180 70 93 119 162 108 153 -10 -9 -80 -67
-154 -130 -74 -63 -142 -119 -151 -126 -12 -10 -24 -6 -64 22 -26 19 -50 36
-52 38 -2 3 24 90 57 194 33 105 60 195 60 199 0 5 -44 -69 -99 -164 -54 -95
-100 -175 -103 -178 -7 -6 -113 40 -121 54 -4 5 -45 24 -92 42 l-85 34 0 72 0
73 -42 11 c-24 6 -59 15 -78 21 -68 18 -76 14 -115 -56 -30 -54 -40 -64 -58
-61 -12 3 -43 8 -69 11 -27 3 -48 9 -48 12 0 4 26 52 57 107 245 435 275 486
291 486 9 0 68 -12 130 -26z m-1686 -224 c47 -13 88 -65 95 -119 4 -29 -1 -54
-21 -97 -14 -31 -25 -58 -23 -60 1 -2 40 -16 85 -33 73 -27 82 -29 83 -13 4
42 -4 90 -22 126 -10 22 -18 40 -16 41 12 10 95 55 100 55 17 0 50 -122 53
-195 l3 -80 90 -34 91 -34 -99 -42 c-63 -28 -107 -41 -124 -38 -19 4 -27 0
-32 -16 -3 -11 -27 -39 -53 -62 -116 -103 -252 -119 -335 -41 -42 40 -57 75
-57 134 1 46 7 73 33 138 5 11 -6 21 -35 35 -59 28 -81 62 -81 127 0 29 7 67
16 83 25 49 82 96 139 116 63 22 63 22 110 9z m-393 -654 l240 -208 -46 -54
c-26 -30 -52 -53 -58 -50 -6 2 -81 57 -166 121 -85 65 -161 122 -169 129 -19
14 -15 9 131 -164 63 -74 120 -142 127 -151 10 -14 7 -25 -23 -71 l-36 -55
-182 58 c-99 32 -182 57 -184 55 -2 -2 67 -43 154 -91 87 -48 162 -91 168 -96
9 -9 -43 -120 -55 -118 -3 0 -132 64 -288 142 l-284 143 52 99 c79 155 46 147
277 72 109 -36 199 -63 201 -62 2 2 -55 75 -127 163 -72 88 -131 163 -131 167
0 11 145 185 152 182 4 -1 115 -96 247 -211z m3322 30 c33 -43 58 -82 57 -87
-2 -4 -59 -74 -128 -155 -69 -81 -128 -152 -132 -159 -6 -9 214 50 372 100 18
6 26 -6 70 -100 28 -58 50 -108 50 -110 0 -6 -550 -275 -562 -275 -14 0 -70
133 -59 139 5 3 84 49 174 101 91 52 165 96 164 97 -1 1 -87 -27 -190 -62
l-187 -64 -35 55 -36 56 77 91 c43 51 102 120 132 155 30 34 52 62 48 62 -3 0
-75 -52 -160 -115 -86 -63 -159 -115 -164 -115 -11 0 -72 75 -72 88 0 5 109
103 242 216 l242 208 18 -24 c11 -12 46 -58 79 -102z m-1645 99 c58 -9 150
-29 207 -46 136 -39 359 -151 472 -236 487 -366 715 -973 586 -1562 -129 -589
-585 -1038 -1189 -1174 -83 -18 -128 -21 -307 -21 -179 0 -224 3 -308 22 -337
75 -628 244 -842 488 -183 210 -308 466 -361 744 -25 132 -25 408 0 540 92
481 386 874 816 1094 154 79 306 126 510 159 67 11 322 6 416 -8z m-2209 -766
c45 -17 83 -60 95 -108 l11 -44 86 6 c47 3 119 14 159 25 39 11 72 17 72 13 0
-4 -13 -43 -29 -87 -34 -93 -37 -94 -193 -115 -54 -7 -98 -16 -98 -21 0 -4 -1
-11 -2 -15 -2 -3 46 -16 105 -28 59 -12 110 -24 112 -26 2 -3 -2 -38 -9 -79
-13 -74 -13 -75 -42 -73 -16 1 -156 23 -312 50 l-282 47 5 35 c53 328 110 431
242 431 28 0 64 -5 80 -11z m4268 -254 c13 -66 28 -153 31 -193 8 -85 4 -92
-63 -92 -39 0 -43 2 -43 24 0 25 -40 269 -45 274 -1 2 -33 -5 -70 -14 l-67
-17 7 -41 c34 -206 33 -194 11 -200 -12 -3 -37 -6 -57 -6 -36 0 -36 1 -43 48
-3 26 -11 75 -17 108 l-11 62 -71 -20 c-40 -11 -73 -21 -73 -22 -1 0 6 -44 17
-96 28 -145 28 -147 -26 -156 -25 -3 -48 -4 -50 -2 -3 2 -12 42 -20 89 -9 46
-27 130 -42 187 -14 57 -24 104 -22 105 2 2 137 46 299 99 l295 96 18 -56 c10
-32 29 -111 42 -177z m-3982 -437 c-3 -46 -6 -88 -8 -94 -2 -6 -33 -19 -70
-29 l-67 -18 7 -96 c4 -53 8 -97 10 -99 1 -1 31 -7 66 -13 35 -6 67 -14 71
-18 4 -3 14 -37 21 -74 13 -61 13 -67 -2 -67 -9 1 -158 31 -331 68 l-315 67
-6 45 c-4 25 -8 83 -10 130 l-4 84 305 97 c168 54 312 98 321 98 13 1 15 -11
12 -81z m4034 -115 c-6 -169 -14 -212 -50 -263 -40 -59 -71 -75 -146 -75 -58
0 -73 4 -103 27 -19 15 -41 41 -48 57 -7 17 -19 31 -28 31 -31 0 -149 -41
-216 -75 -38 -19 -71 -33 -73 -31 -4 4 10 96 22 152 5 23 52 47 172 85 49 15
73 28 76 41 5 17 -4 18 -114 18 l-119 0 0 80 0 80 28 1 c15 0 117 6 227 13
110 7 240 14 289 15 l89 1 -6 -157z m-3907 -980 c29 -43 64 -90 77 -104 l24
-26 -42 -37 c-41 -35 -42 -36 -24 -56 18 -20 18 -20 60 15 41 33 43 33 59 16
9 -10 16 -22 16 -28 0 -9 -81 -80 -178 -157 -23 -19 -24 -18 -45 3 l-22 23 43
37 c45 39 50 52 27 71 -12 10 -22 6 -57 -24 -23 -20 -45 -36 -49 -36 -4 0 -14
11 -22 24 -16 24 -15 25 84 107 55 45 97 84 94 87 -2 3 -11 0 -19 -7 -11 -9
-18 -7 -33 13 l-20 25 -89 -60 -89 -59 -17 23 c-10 12 -18 25 -18 28 0 4 40
32 90 63 l90 57 -17 26 c-16 24 -16 26 2 39 10 8 20 14 21 14 1 0 25 -35 54
-77z m3234 -8 c30 -47 64 -86 92 -106 49 -33 48 -32 34 -60 -14 -25 -24 -24
-63 4 -18 13 -64 31 -103 39 l-70 15 -18 -31 -18 -31 48 -40 c27 -22 64 -54
82 -70 l33 -30 -23 -22 -23 -22 -80 69 -80 68 -26 -24 c-25 -24 -26 -24 -43
-5 -17 19 -16 22 41 88 32 38 66 79 75 92 14 20 22 22 53 17 20 -4 44 -10 53
-14 16 -6 16 -4 1 18 -44 69 -44 67 -29 94 7 14 14 26 15 26 1 0 23 -34 49
-75z m-2979 -295 c46 -47 48 -51 32 -67 -16 -16 -18 -15 -46 12 -25 23 -33 26
-46 15 -21 -18 -19 -30 12 -62 25 -27 26 -29 10 -45 -16 -16 -18 -15 -45 10
l-28 27 -24 -25 -24 -25 29 -30 c27 -29 28 -31 12 -47 -16 -16 -20 -14 -71 36
l-55 54 91 99 c50 54 94 98 97 98 4 0 29 -23 56 -50z m2785 -45 l95 -95 -23
-22 -22 -23 -97 97 c-96 96 -97 97 -78 118 10 11 21 20 24 20 4 0 49 -43 101
-95z m-125 -10 c14 -13 25 -36 25 -50 0 -17 6 -25 18 -25 9 -1 36 -18 59 -39
l42 -38 -25 -13 c-22 -13 -27 -11 -59 20 -32 31 -37 33 -51 18 -15 -14 -13
-19 20 -55 34 -38 35 -41 18 -57 -10 -9 -23 -16 -29 -16 -6 0 -50 43 -99 96
l-88 97 48 43 c55 51 86 55 121 19z m-2498 -86 c15 -6 38 -20 51 -31 42 -40
20 -124 -23 -88 -9 7 -13 21 -9 35 7 27 -19 41 -37 19 -9 -11 -8 -23 6 -54 22
-48 22 -82 2 -114 -31 -47 -83 -46 -136 3 -33 31 -39 57 -18 85 20 27 60 5 51
-28 -7 -29 13 -44 32 -24 13 12 12 20 -1 57 -22 62 -19 98 10 126 27 28 33 29
72 14z m2380 -88 c69 -90 77 -121 43 -163 -24 -32 -72 -52 -104 -44 -15 4 -49
40 -91 96 -64 86 -67 92 -49 105 11 8 24 14 29 14 6 0 35 -37 65 -82 57 -85
81 -102 99 -69 8 15 -1 35 -49 107 -56 84 -58 90 -43 107 9 10 21 17 27 15 5
-2 38 -40 73 -86z m-2165 -59 c27 -15 48 -29 48 -32 0 -3 -7 -14 -15 -24 -12
-16 -18 -17 -27 -8 -23 23 -36 11 -89 -78 -29 -49 -56 -90 -59 -90 -3 0 -16 9
-28 18 l-24 18 51 87 c28 47 51 90 51 96 0 6 -9 15 -20 21 -23 12 -26 30 -8
48 9 9 19 7 42 -8 17 -11 52 -33 78 -48z m1932 7 c27 -13 56 -64 56 -98 0 -22
-44 -71 -62 -71 -5 0 2 -21 16 -47 15 -25 25 -47 24 -48 -7 -5 -47 -25 -51
-25 -3 0 -24 35 -47 78 -24 42 -54 96 -67 119 l-24 41 62 31 c72 36 62 34 93
20z m-1776 -73 c4 -5 -36 -266 -43 -274 -1 -1 -16 3 -33 9 -27 9 -30 14 -25
39 4 24 1 31 -25 44 -30 15 -31 15 -51 -10 -17 -22 -23 -24 -43 -13 -13 6 -25
13 -27 15 -2 1 38 50 89 107 89 101 94 104 123 96 16 -5 32 -11 35 -13z m1550
-53 c2 -16 -4 -24 -32 -33 -33 -11 -34 -13 -24 -40 10 -29 10 -29 43 -16 37
16 45 12 45 -17 0 -12 -11 -23 -30 -30 -35 -13 -36 -18 -10 -75 l19 -43 -26
-10 c-14 -5 -28 -7 -31 -4 -7 7 -92 225 -92 236 0 12 100 58 120 56 8 -1 16
-12 18 -24z m-1418 -23 c10 -6 18 -36 25 -87 l10 -78 25 72 c23 68 26 72 50
66 14 -3 26 -7 28 -8 1 -1 -18 -58 -42 -126 -45 -128 -52 -137 -101 -125 -23
6 -24 11 -27 94 l-3 87 -23 -65 c-31 -89 -32 -90 -63 -77 l-26 12 46 128 c48
135 48 135 101 107z m1236 -47 c39 -40 73 -156 60 -207 -13 -53 -117 -76 -156
-34 -37 40 -65 179 -42 215 12 19 64 43 94 43 15 0 34 -8 44 -17z m-934 -40
c25 -22 32 -72 18 -136 -21 -103 -57 -123 -166 -96 -34 9 -43 15 -39 28 2 9
14 61 25 116 30 148 21 135 88 118 31 -8 65 -22 74 -30z m224 -143 c30 -166
31 -157 -11 -152 -31 4 -35 8 -35 32 0 29 -15 40 -55 40 -16 0 -25 -7 -29 -25
-5 -21 -12 -25 -41 -25 l-35 0 19 48 c59 148 83 207 86 213 3 3 21 3 42 0 l37
-6 22 -125z m399 134 c23 -9 42 -51 55 -121 15 -85 -2 -128 -57 -141 -80 -21
-113 -23 -113 -10 0 7 -7 60 -15 118 -21 153 -22 148 23 153 68 7 90 7 107 1z
m-187 -26 c20 -26 23 -58 8 -89 -14 -28 -14 -34 -1 -52 8 -12 15 -43 15 -69 0
-46 -1 -48 -29 -48 -33 0 -41 14 -41 71 0 32 -3 39 -20 39 -18 0 -20 -7 -20
-55 0 -54 -1 -55 -29 -55 l-28 0 -6 83 c-4 45 -7 106 -7 135 l0 52 74 0 c47 0
77 -5 84 -12z"/>
<path d="M3968 5582 c-21 -37 -51 -90 -67 -118 l-30 -52 66 -16 c36 -9 67 -16
68 -14 7 9 15 268 8 268 -4 0 -25 -30 -45 -68z"/>
<path d="M2277 5412 c-22 -24 -21 -55 1 -75 28 -26 67 -22 80 8 16 35 15 49
-6 68 -24 22 -55 21 -75 -1z"/>
<path d="M2357 5143 c-4 -3 -7 -24 -7 -45 0 -55 41 -98 101 -105 39 -4 50 -1
77 22 54 45 42 62 -68 101 -111 40 -95 35 -103 27z"/>
<path d="M3427 4767 l-167 -112 6 -40 c3 -22 21 -78 39 -124 l33 -83 -186
-122 c-103 -68 -219 -142 -259 -165 -69 -41 -73 -42 -96 -26 -17 11 -36 14
-64 9 -29 -4 -42 -2 -52 10 -19 23 -55 20 -88 -8 -26 -21 -61 -42 -147 -88
-19 -9 -54 -48 -84 -93 -51 -75 -62 -108 -42 -120 6 -4 10 8 10 28 0 23 8 41
25 57 14 13 25 18 25 12 0 -7 11 -12 25 -12 14 0 25 -5 25 -11 0 -5 4 -8 9 -4
5 3 21 0 35 -6 20 -10 25 -18 23 -43 -2 -31 2 -34 36 -21 13 6 17 2 17 -19 0
-34 -10 -33 -91 9 -66 34 -67 34 -84 15 -10 -11 -14 -20 -9 -20 5 -1 -2 -10
-16 -21 l-25 -21 -12 28 -12 29 -1 -37 c0 -30 -5 -39 -34 -56 -19 -11 -42 -32
-52 -47 -14 -22 -15 -32 -5 -65 25 -86 81 -119 141 -85 14 8 31 14 38 15 7 0
44 -32 82 -71 39 -39 70 -66 70 -61 0 6 -7 18 -16 27 -13 12 -14 19 -4 30 7 8
8 15 3 15 -6 0 -22 9 -37 21 -22 18 -24 23 -14 42 10 21 10 21 -7 7 -17 -14
-17 -14 -7 7 12 21 81 83 93 83 4 0 5 -9 2 -21 -3 -12 -2 -24 3 -28 5 -3 14
-16 21 -27 9 -17 8 -24 -3 -36 -13 -13 -13 -18 -2 -29 16 -17 58 -105 58 -122
0 -22 37 -87 45 -79 4 4 5 -5 1 -20 -10 -44 14 -46 51 -2 19 21 29 40 23 42
-5 2 -7 9 -3 15 4 7 0 7 -9 -1 -15 -12 -16 -9 -14 22 2 19 0 40 -5 47 -4 7 -3
21 2 31 7 12 6 18 -1 18 -6 0 -8 5 -4 12 5 8 2 9 -10 5 -10 -4 -15 -3 -11 4 4
5 1 16 -5 24 -6 8 -9 19 -5 25 3 5 1 10 -6 10 -9 0 -9 3 0 14 9 11 9 15 -1 19
-8 4 -7 6 5 6 19 1 23 16 6 27 -8 4 -4 13 12 25 13 10 25 23 25 28 1 6 2 15 3
19 0 5 16 17 35 27 28 15 34 24 34 50 0 18 9 49 20 71 24 48 19 98 -12 112
-12 5 -36 22 -54 37 -26 22 -32 34 -32 65 0 48 13 57 34 25 23 -35 69 -58 86
-42 10 10 12 8 7 -6 -5 -13 2 -23 23 -36 17 -10 27 -21 23 -24 -3 -4 -1 -7 5
-7 7 0 12 -13 12 -29 0 -16 5 -42 10 -56 8 -21 7 -35 -5 -57 -13 -28 -13 -29
3 -24 14 5 13 3 -2 -9 -11 -8 -16 -15 -10 -15 5 0 -2 -9 -16 -20 -22 -17 -23
-20 -6 -20 20 0 20 0 0 -14 -10 -8 -16 -17 -12 -21 8 -9 -23 -45 -39 -45 -7 0
-13 -4 -13 -10 0 -5 11 -10 25 -10 23 0 24 -2 15 -20 -6 -12 -21 -20 -35 -20
-14 0 -25 -4 -25 -10 0 -5 5 -10 10 -10 6 0 10 -7 10 -15 0 -24 24 -95 32 -95
4 0 5 -9 3 -21 -3 -14 10 -35 40 -66 50 -51 55 -76 23 -110 -12 -13 -17 -23
-11 -23 6 0 16 7 23 15 7 8 16 15 21 15 17 0 9 -30 -11 -42 -21 -13 -27 -38
-10 -38 5 0 14 8 19 18 6 9 11 12 11 6 0 -5 -5 -15 -10 -20 -6 -6 -8 -18 -4
-28 5 -14 9 -14 22 -4 14 12 14 10 2 -11 l-13 -24 29 22 29 23 12 -31 c7 -16
20 -34 29 -39 15 -8 15 -12 -1 -41 -19 -39 -13 -50 18 -32 18 11 20 11 10 0
-7 -7 -13 -20 -13 -28 1 -13 3 -13 14 2 13 17 14 16 20 -5 3 -13 21 -39 40
-59 19 -20 33 -39 30 -41 -2 -3 2 -11 11 -18 8 -7 15 -21 15 -31 0 -11 5 -19
10 -19 6 0 10 -6 10 -14 0 -8 6 -16 13 -19 22 -7 -14 -39 -40 -34 -31 6 -48
-22 -25 -39 13 -10 22 -8 46 9 l29 21 -7 -30 -6 -29 15 25 16 25 -7 -24 c-4
-16 -3 -21 5 -17 7 5 11 -4 11 -25 0 -28 2 -30 17 -18 15 12 16 12 10 -6 l-7
-20 16 20 c15 19 15 19 8 -9 -4 -18 -3 -27 3 -23 6 4 8 -3 5 -18 -3 -20 -1
-24 12 -19 29 11 49 65 52 144 1 41 5 83 9 92 4 9 4 21 1 26 -3 5 6 7 19 4 19
-3 25 0 25 14 0 15 4 14 28 -9 35 -34 41 -34 37 -1 -1 15 3 28 12 31 11 4 9
11 -9 32 -44 49 -63 74 -50 67 10 -6 11 -1 5 21 -4 15 -6 36 -5 46 1 9 3 26 4
36 1 11 5 18 9 15 4 -2 6 22 4 54 -3 49 -2 54 9 39 12 -16 14 -16 20 -1 3 8 6
27 6 40 0 14 4 23 9 20 4 -3 13 6 20 20 9 20 9 24 -1 19 -7 -4 -6 -1 3 7 9 7
14 19 11 27 -3 9 0 11 8 6 9 -6 12 -4 8 6 -3 8 1 20 8 27 8 7 14 9 14 5 0 -4
11 8 25 27 14 19 25 30 25 26 0 -5 11 -1 25 8 26 17 145 23 145 7 0 -5 15 -13
33 -17 17 -4 26 -9 18 -12 -9 -3 -4 -9 15 -18 l29 -13 -30 5 -30 5 33 -18 c17
-9 32 -23 32 -30 0 -7 3 -13 8 -13 4 0 18 -10 32 -21 24 -20 24 -20 3 -14 -33
9 -28 1 18 -29 22 -15 38 -30 35 -33 -3 -3 -17 2 -32 11 -37 25 -40 13 -4 -18
34 -28 30 -34 -10 -11 -42 24 -46 17 -10 -15 36 -30 35 -38 -3 -19 -14 7 -10
-1 13 -22 19 -18 27 -30 16 -26 -10 4 -30 10 -44 13 l-27 6 25 -21 25 -21 -24
0 c-24 0 -24 0 -5 -15 18 -14 18 -14 -6 -15 -14 -1 -19 -4 -12 -7 20 -8 14
-20 -14 -27 -22 -6 -24 -9 -12 -23 11 -15 10 -16 -9 -11 -24 6 -32 -7 -10 -15
6 -3 1 -6 -12 -6 -21 -1 -22 -3 -10 -17 12 -15 11 -16 -11 -9 -22 7 -23 6 -11
-9 10 -12 10 -16 1 -16 -9 0 -9 -4 1 -17 13 -15 12 -16 -8 -11 -26 7 -29 -1
-10 -21 10 -10 6 -11 -18 -7 l-30 6 30 -15 30 -16 -28 6 c-17 3 -26 2 -23 -4
4 -5 -2 -11 -11 -14 -14 -3 -12 -6 10 -15 37 -15 34 -23 -5 -16 -25 4 -29 3
-18 -5 13 -9 13 -11 -2 -11 -12 0 -15 -5 -11 -17 5 -12 3 -14 -8 -9 -8 4 -5 0
5 -8 19 -16 19 -16 -3 -16 -20 0 -21 -2 -11 -15 10 -12 10 -15 -1 -15 -11 0
-11 -2 1 -10 13 -8 13 -10 1 -10 -11 0 -10 -4 5 -16 19 -15 18 -15 -3 -11 -21
5 -28 -3 -24 -25 0 -5 -3 -8 -9 -8 -5 0 -15 -19 -22 -42 -7 -25 -30 -58 -56
-84 -24 -24 -42 -49 -40 -56 2 -6 -11 -27 -30 -45 -23 -22 -32 -39 -28 -50 4
-9 1 -20 -5 -24 -7 -4 -17 -22 -23 -40 -17 -52 -84 -93 -155 -96 -76 -2 -138
25 -152 67 -6 16 -15 30 -20 30 -5 0 -9 8 -9 18 0 14 -2 15 -10 2 -7 -12 -10
-8 -11 15 0 17 -3 24 -6 17 -3 -8 -17 6 -35 33 -23 34 -33 43 -39 33 -6 -9 -9
-7 -9 10 0 13 -6 22 -16 22 -8 0 -12 5 -9 10 7 12 -20 42 -29 33 -3 -4 -6 1
-6 11 0 9 -4 14 -10 11 -5 -3 -10 1 -10 10 0 10 -5 13 -11 9 -9 -5 -10 1 -5
21 6 24 5 27 -8 16 -12 -10 -14 -9 -9 8 3 13 1 21 -7 21 -8 0 -11 9 -8 25 4
20 1 25 -15 25 -17 0 -19 5 -14 38 5 25 3 32 -3 22 -8 -12 -10 -12 -10 4 0 20
0 20 -15 0 -14 -18 -14 -17 -9 16 5 34 5 34 -11 15 -16 -19 -17 -19 -10 14 5
23 4 31 -4 27 -7 -5 -10 1 -8 16 1 15 -3 22 -12 20 -10 -2 -12 4 -7 24 6 24 5
26 -8 15 -12 -10 -14 -9 -9 10 4 15 3 20 -5 15 -9 -5 -9 0 -2 18 7 18 6 26 -1
26 -7 0 -9 9 -6 21 4 14 2 19 -8 15 -7 -2 -16 2 -19 10 -3 8 -2 13 3 10 4 -3
6 7 3 22 -4 19 -7 22 -10 10 -4 -22 -16 -23 -32 -3 -7 9 -15 14 -17 12 -7 -8
95 -274 136 -357 109 -217 290 -430 410 -483 85 -37 183 -10 284 81 30 26 91
76 138 112 184 142 381 362 468 522 36 67 36 67 73 61 41 -6 93 19 116 56 8
14 23 21 42 21 18 0 42 11 63 29 18 16 52 37 75 46 33 14 41 21 37 35 -3 10
-1 21 5 25 5 3 15 16 21 27 10 18 9 20 -5 15 -15 -6 -16 0 -11 46 4 47 4 49
-6 18 -5 -18 -13 -30 -16 -27 -3 3 -13 0 -21 -7 -13 -10 -14 -8 -7 12 5 15 4
21 -3 17 -6 -3 -12 -1 -15 6 -2 7 -3 5 -2 -4 3 -19 -10 -24 -20 -9 -8 14 6 92
15 86 9 -6 2 63 -10 110 l-8 30 -1 -37 c-1 -20 -6 -40 -11 -43 -6 -4 -8 -10
-6 -14 7 -10 -10 -75 -31 -124 -17 -38 -17 -38 -29 -15 -12 20 -13 21 -14 4 0
-16 -3 -15 -20 7 -21 27 -25 53 -11 76 6 9 11 10 15 3 4 -7 18 -4 41 9 40 24
37 48 -6 50 -38 2 -41 3 -57 13 -11 7 -12 4 -3 -12 6 -11 11 -24 11 -29 0 -8
-60 83 -60 91 0 3 12 6 27 8 41 5 38 23 -9 51 -55 32 -85 65 -89 97 -4 31 8
53 24 43 7 -4 6 1 -2 10 -13 16 -16 16 -37 2 -35 -23 -55 -19 -140 26 -76 41
-78 41 -181 40 -115 -1 -126 6 -106 60 8 21 8 26 -2 23 -7 -3 -15 -19 -19 -35
-3 -18 -34 -60 -80 -107 -108 -115 -123 -150 -86 -210 28 -45 25 -62 -16 -116
-53 -69 -81 -141 -94 -236 -14 -100 -37 -190 -49 -190 -5 0 -19 15 -30 33 -11
18 -66 78 -122 133 -132 128 -205 228 -280 379 l-61 122 25 49 c38 75 60 188
46 231 -9 28 -9 38 2 48 29 28 465 305 479 305 8 0 29 -19 45 -41 44 -60 130
-136 168 -148 32 -11 38 -8 183 88 201 133 193 122 162 218 -14 43 -36 107
-49 141 -22 60 -23 65 -6 77 9 7 17 17 17 24 0 23 -44 103 -72 132 -29 28 -71
39 -82 20 -4 -5 -34 19 -69 54 -50 50 -133 108 -149 104 -2 0 -78 -51 -171
-112z m73 -109 c47 -42 91 -94 131 -156 69 -106 76 -135 9 -37 -24 36 -45 65
-47 65 -1 0 -3 -12 -3 -26 0 -14 4 -23 9 -20 5 3 20 -11 34 -32 13 -21 43 -59
65 -85 22 -25 48 -70 57 -99 10 -29 20 -59 23 -67 3 -9 1 -12 -6 -7 -17 10
-15 0 4 -18 8 -9 14 -22 12 -28 -3 -7 -26 16 -52 51 -30 41 -44 70 -41 82 3 9
1 20 -4 24 -7 4 -8 -1 -4 -12 11 -31 -11 -3 -87 115 -69 107 -86 130 -74 97
11 -27 -4 -16 -26 21 -12 19 -25 33 -27 30 -3 -3 2 -17 11 -31 22 -33 2 -33
-21 1 -34 48 -62 79 -63 68 0 -6 14 -28 30 -49 39 -49 38 -61 -1 -15 -41 48
-60 86 -53 104 4 9 0 23 -7 32 -11 14 -10 19 10 35 13 11 29 19 36 19 8 0 46
-28 85 -62z m5 -237 c7 -12 -74 -70 -255 -182 -80 -50 -187 -119 -239 -155
-88 -60 -138 -80 -129 -52 5 15 587 397 605 398 6 0 14 -4 18 -9z m193 -187
c73 -110 78 -121 62 -132 -15 -9 -21 -7 -35 11 -9 12 -13 15 -9 7 6 -12 5 -13
-7 -3 -18 15 -56 78 -40 69 18 -12 13 3 -20 50 -17 25 -29 47 -26 50 2 2 32
-36 67 -86 101 -145 87 -106 -20 55 -49 73 -80 127 -63 110 6 -5 47 -64 91
-131z m-1084 -146 c-5 -8 0 -9 14 -6 12 4 20 2 16 -3 -3 -5 3 -9 14 -9 10 0
19 -6 20 -12 0 -7 4 -24 8 -38 8 -25 7 -25 -17 -7 -13 9 -41 24 -61 33 -44 19
-47 27 -15 42 29 14 29 14 21 0z m-74 -68 c0 -5 17 -12 37 -16 23 -4 48 -19
62 -36 14 -15 32 -28 41 -28 13 0 13 -2 1 -9 -11 -7 -9 -10 10 -13 23 -3 23
-4 -7 -19 -31 -16 -31 -16 -63 22 -17 21 -54 49 -81 61 -54 25 -66 48 -25 48
14 0 25 -4 25 -10z m-70 -80 c0 -5 10 -10 23 -10 32 0 67 -11 62 -19 -2 -4 12
-13 31 -20 39 -14 43 -26 14 -41 -11 -6 -20 -19 -20 -30 0 -16 4 -18 23 -11
12 5 21 14 20 20 -5 19 16 12 28 -10 15 -28 0 -41 -42 -37 -28 3 -35 8 -43 37
-13 45 -66 100 -105 107 -23 5 -29 9 -19 15 18 12 28 11 28 -1z m310 -65 c0
-8 -7 -15 -16 -15 -14 0 -14 3 -4 15 7 8 14 15 16 15 2 0 4 -7 4 -15z m-52
-32 c-2 -24 -8 -28 -33 -28 -38 0 -47 31 -13 44 40 17 50 13 46 -16z m-248
-91 c0 -14 -30 -37 -92 -72 -32 -17 -58 -39 -58 -48 0 -13 -3 -12 -21 4 -19
17 -19 19 -2 25 10 4 50 27 88 53 71 47 85 53 85 38z m1391 -78 c14 -17 69
-48 69 -39 0 3 14 -1 30 -10 17 -9 30 -13 30 -10 0 5 72 -45 107 -75 7 -6 28
-20 48 -31 31 -19 35 -25 35 -64 0 -35 4 -44 21 -48 16 -4 20 -10 14 -24 -5
-10 -10 -38 -13 -63 -2 -25 -9 -51 -14 -57 -6 -7 -8 -40 -5 -75 4 -44 4 -52
-2 -26 -8 37 -39 114 -54 133 -4 6 -17 25 -30 44 -12 19 -30 35 -41 37 -10 1
-36 19 -57 40 -31 30 -41 35 -52 25 -12 -9 -18 -6 -31 14 -14 21 -20 24 -31
15 -14 -12 -115 -10 -115 3 0 10 -44 9 -56 -2 -12 -11 -142 3 -157 18 -9 9 -8
16 1 31 6 11 12 25 12 31 0 23 43 70 82 90 26 13 62 21 100 22 32 1 58 5 58 9
0 5 -8 8 -17 9 -12 1 -10 4 7 9 38 12 46 11 61 -6z m-1584 -46 c28 -32 40 -53
23 -43 -10 6 -12 4 -7 -9 4 -10 3 -15 -3 -11 -13 8 -13 -1 0 -28 8 -17 7 -17
-7 3 -10 14 -32 40 -51 57 -18 18 -30 37 -27 43 11 18 51 11 72 -12z m1833
-397 c0 -6 -4 -13 -10 -16 -5 -3 -10 1 -10 9 0 9 5 16 10 16 6 0 10 -4 10 -9z
m97 -98 c-2 -21 -4 -6 -4 32 0 39 2 55 4 38 2 -18 2 -50 0 -70z m188 -13 c-3
-5 -12 -10 -18 -10 -7 0 -6 4 3 10 19 12 23 12 15 0z m-55 -60 c0 -5 -5 -10
-11 -10 -5 0 -7 5 -4 10 3 6 8 10 11 10 2 0 4 -4 4 -10z m-1209 -23 c-10 -9
-11 -8 -5 6 3 10 9 15 12 12 3 -3 0 -11 -7 -18z m906 -17 c-3 -11 -1 -23 4
-26 24 -15 -2 -74 -33 -74 -10 0 -9 -3 2 -10 13 -8 12 -10 -4 -10 -13 0 -17
-5 -13 -20 3 -13 0 -20 -9 -20 -13 0 -16 -7 -13 -27 0 -3 -6 -10 -15 -15 -9
-5 -14 -13 -11 -19 4 -5 1 -9 -4 -9 -6 0 -11 -7 -11 -16 0 -11 -6 -14 -22 -9
-23 7 -23 7 -3 -10 19 -16 19 -16 -10 -11 -29 6 -29 6 -10 -10 19 -15 19 -15
-10 -9 -26 6 -28 5 -14 -7 14 -11 14 -15 3 -26 -7 -6 -18 -12 -25 -12 -9 0 -9
-3 0 -14 9 -11 6 -15 -16 -21 -16 -4 -22 -10 -15 -12 16 -6 -3 -33 -24 -33
-17 0 -19 40 -1 41 9 0 9 2 0 5 -8 4 -6 14 8 37 10 18 19 38 19 45 0 6 9 22
20 35 12 12 27 29 35 38 8 9 15 21 15 27 0 6 9 16 20 22 11 6 20 17 20 24 0
23 52 110 84 139 35 32 40 33 33 7z m-853 -5 c-4 -8 -10 -15 -15 -15 -4 0 -6
7 -3 15 4 8 10 15 15 15 4 0 6 -7 3 -15z"/>
<path d="M3690 4160 c6 -11 13 -20 16 -20 2 0 0 9 -6 20 -6 11 -13 20 -16 20
-2 0 0 -9 6 -20z"/>
<path d="M3735 3620 c-3 -5 -2 -10 4 -10 5 0 13 5 16 10 3 6 2 10 -4 10 -5 0
-13 -4 -16 -10z"/>
<path d="M3914 3599 c0 -10 4 -19 8 -19 4 0 8 6 8 14 0 8 -4 17 -8 20 -4 2 -8
-4 -8 -15z"/>
<path d="M4129 3414 c-12 -16 -12 -17 5 -11 12 5 23 1 33 -10 13 -17 13 -16
11 7 -4 30 -30 37 -49 14z"/>
<path d="M2259 3615 c22 -42 28 -48 34 -31 4 9 2 15 -3 13 -5 -1 -16 7 -25 18
l-16 20 10 -20z"/>
<path d="M2537 3353 c-4 -7 -3 -14 3 -18 5 -3 10 -17 10 -31 0 -13 5 -24 10
-24 12 0 12 6 -4 49 -7 21 -15 30 -19 24z"/>
<path d="M2738 3263 c-21 -23 -24 -30 -13 -40 7 -6 16 -9 19 -6 12 12 6 -13
-6 -27 -11 -12 -10 -12 5 0 10 7 16 19 13 25 -2 7 3 23 11 36 11 15 12 20 3
14 -10 -6 -12 -4 -7 8 9 23 5 21 -25 -10z"/>
<path d="M2571 3260 c0 -8 4 -24 9 -35 5 -13 9 -14 9 -5 0 8 -4 24 -9 35 -5
13 -9 14 -9 5z"/>
<path d="M2769 3184 c-16 -19 -20 -28 -11 -31 6 -3 10 -10 6 -16 -3 -7 4 -1
15 12 12 13 21 32 21 42 0 25 -2 24 -31 -7z"/>
<path d="M2788 3122 c-8 -15 -12 -37 -9 -50 6 -23 6 -23 29 7 26 35 26 38 9
56 -12 11 -16 9 -29 -13z"/>
<path d="M2646 3021 c-4 -7 -5 -15 -2 -18 9 -9 19 4 14 18 -4 11 -6 11 -12 0z"/>
<path d="M2816 3012 c-3 -5 1 -9 9 -9 8 0 12 4 9 9 -3 4 -7 8 -9 8 -2 0 -6 -4
-9 -8z"/>
<path d="M2880 2918 c-12 -22 -12 -22 6 -6 10 10 15 20 12 24 -4 3 -12 -5 -18
-18z"/>
<path d="M3004 2875 c-17 -13 -17 -14 -2 -15 9 0 20 5 23 11 11 17 0 20 -21 4z"/>
<path d="M3070 2823 c0 -8 5 -13 12 -11 18 6 21 25 3 25 -8 0 -15 -7 -15 -14z"/>
<path d="M4125 2660 c3 -5 15 -10 26 -10 17 0 19 -7 19 -61 0 -37 4 -58 10
-54 6 3 10 31 10 61 0 41 4 54 15 54 8 0 15 5 15 10 0 6 -23 10 -51 10 -31 0
-48 -4 -44 -10z"/>
<path d="M4240 2606 c0 -76 17 -90 22 -18 l4 47 13 -48 c7 -26 18 -46 24 -44
6 2 17 23 23 48 l12 44 1 -47 c2 -74 21 -57 21 17 0 57 -2 65 -19 65 -14 0
-21 -10 -26 -32 -12 -53 -19 -56 -31 -13 -6 23 -18 41 -27 43 -15 3 -17 -6
-17 -62z"/>
<path d="M1305 4070 c-9 -10 -20 -39 -22 -64 l-5 -44 53 -11 c30 -5 71 -13 91
-17 l36 -6 7 45 c4 27 3 53 -4 66 -26 48 -122 68 -156 31z"/>
<path d="M1372 3347 c-68 -22 -122 -41 -120 -42 6 -6 251 -56 255 -52 2 2 0
33 -4 68 l-8 65 -123 -39z"/>
<path d="M5500 3366 c0 -66 33 -101 94 -101 60 0 92 31 101 98 l7 47 -101 0
-101 0 0 -44z"/>
<path d="M4717 2052 c-3 -4 4 -18 14 -31 23 -28 45 -16 34 18 -6 20 -39 29
-48 13z"/>
<path d="M4393 1809 c-14 -14 4 -59 24 -59 20 0 26 25 13 49 -12 24 -21 26
-37 10z"/>
<path d="M2570 1700 c-19 -27 -20 -31 -5 -36 20 -8 21 -7 28 34 8 40 4 40 -23
2z"/>
<path d="M3943 1624 c-3 -9 4 -48 16 -86 20 -60 25 -69 44 -66 19 3 22 9 21
48 -2 64 -28 120 -54 120 -11 0 -23 -7 -27 -16z"/>
<path d="M3015 1608 c-3 -7 -11 -43 -19 -81 -13 -63 -13 -68 5 -77 15 -9 21
-5 32 17 23 44 32 134 16 144 -19 12 -29 11 -34 -3z"/>
<path d="M3247 1543 c-3 -5 -8 -23 -12 -40 -6 -28 -4 -33 12 -33 16 0 18 6 15
40 -4 40 -7 46 -15 33z"/>
<path d="M3655 1523 c10 -105 14 -114 36 -102 15 8 19 21 19 67 0 61 -19 102
-47 102 -13 0 -14 -10 -8 -67z"/>
<path d="M3440 1546 c0 -33 20 -44 37 -20 17 24 12 38 -15 42 -18 3 -22 -2
-22 -22z"/>
<path d="M6000 2280 c0 -5 6 -10 14 -10 18 0 26 -22 26 -76 0 -24 5 -44 10
-44 6 0 10 27 10 61 0 57 1 60 23 57 19 -3 22 -10 25 -60 4 -70 22 -78 23 -10
l1 47 15 -47 c8 -27 18 -48 23 -48 5 0 15 21 23 48 l15 47 1 -47 c2 -73 21
-57 21 17 0 57 -2 65 -19 65 -14 0 -22 -12 -31 -47 l-12 -48 -14 46 c-12 40
-18 47 -45 53 -48 9 -109 7 -109 -4z"/>
</g>
</svg>
